999
dxflib 2.2.0.0
  0
SECTION
  2
HEADER
  9
$ACADVER
  1
AC1015
  9
$HANDSEED
  5
FFFF
  9
$SPLINESEGS
 70
8
  9
$DIMEXE
 40
1.25
  9
$PSVPSCALE
 40
0.5509459742377663
  9
$DIMLUNIT
 70
2
  9
$GRIDMODE
 70
1
  9
$INSUNITS
 70
4
  9
$DIMADEC
 70
2
  9
$DIMASZ
 40
5.0
  9
$DIMGAP
 40
0.625
  9
$DIMTXT
 40
10.0
  9
$GRIDUNIT
 10
0.0
 20
0.0
  9
$DIMEXO
 40
0.625
  9
$LUPREC
 70
4
  9
$PINSBASE
 10
87.4803806372468102
 20
185.9846555355769055
 30
0.0
  9
$DIMAUNIT
 70
0
  9
$AUPREC
 70
2
  9
$PLIMMIN
 10
0.0
 20
0.0
  9
$LUNITS
 70
2
  9
$PLIMMAX
 10
210.0
 20
297.0
  9
$DIMSTYLE
  2
Standard
  9
$AUNITS
 70
0
  0
ENDSEC
  0
SECTION
  2
TABLES
  0
TABLE
  2
VPORT
  5
8
100
AcDbSymbolTable
 70
1
  0
VPORT
  5
30
100
AcDbSymbolTableRecord
100
AcDbViewportTableRecord
  2
*Active
 70
0
 10
0.0
 20
0.0
 11
1.0
 21
1.0
 12
286.3055555555554861
 22
148.5
 13
0.0
 23
0.0
 14
10.0
 24
10.0
 15
10.0
 25
10.0
 16
0.0
 26
0.0
 36
1.0
 17
0.0
 27
0.0
 37
0.0
 40
297.0
 41
1.92798353909465
 42
50.0
 43
0.0
 44
0.0
 50
0.0
 51
0.0
 71
0
 72
100
 73
1
 74
3
 75
1
 76
1
 77
0
 78
0
281
0
 65
1
110
0.0
120
0.0
130
0.0
111
1.0
121
0.0
131
0.0
112
0.0
122
1.0
132
0.0
 79
0
146
0.0
  0
ENDTAB
  0
TABLE
  2
LTYPE
  5
5
100
AcDbSymbolTable
 70
21
  0
LTYPE
  5
14
100
AcDbSymbolTableRecord
100
AcDbLinetypeTableRecord
  2
ByBlock
 70
0
  3

 72
65
 73
0
 40
0.0
  0
LTYPE
  5
15
100
AcDbSymbolTableRecord
100
AcDbLinetypeTableRecord
  2
ByLayer
 70
0
  3

 72
65
 73
0
 40
0.0
  0
LTYPE
  5
16
100
AcDbSymbolTableRecord
100
AcDbLinetypeTableRecord
  2
CONTINUOUS
 70
0
  3
Solid line
 72
65
 73
0
 40
0.0
  0
LTYPE
  5
31
100
AcDbSymbolTableRecord
100
AcDbLinetypeTableRecord
  2
DOT
 70
0
  3
Dot . . . . . . . . . . . . . . . . . . . . . .
 72
65
 73
2
 40
6.3499999999999996
 49
0.0
 74
0
 49
-6.3499999999999996
 74
0
  0
LTYPE
  5
32
100
AcDbSymbolTableRecord
100
AcDbLinetypeTableRecord
  2
DOT2
 70
0
  3
Dot (.5x) .....................................
 72
65
 73
2
 40
3.1749999999999998
 49
0.0
 74
0
 49
-3.1749999999999998
 74
0
  0
LTYPE
  5
33
100
AcDbSymbolTableRecord
100
AcDbLinetypeTableRecord
  2
DOTX2
 70
0
  3
Dot (2x) .  .  .  .  .  .  .  .  .  .  .  .  .
 72
65
 73
2
 40
12.6999999999999993
 49
0.0
 74
0
 49
-12.6999999999999993
 74
0
  0
LTYPE
  5
34
100
AcDbSymbolTableRecord
100
AcDbLinetypeTableRecord
  2
DASHED
 70
0
  3
Dashed __ __ __ __ __ __ __ __ __ __ __ __ __ _
 72
65
 73
2
 40
19.0500000000000007
 49
12.6999999999999993
 74
0
 49
-6.3499999999999996
 74
0
  0
LTYPE
  5
35
100
AcDbSymbolTableRecord
100
AcDbLinetypeTableRecord
  2
DASHED2
 70
0
  3
Dashed (.5x) _ _ _ _ _ _ _ _ _ _ _ _ _ _ _ _ _
 72
65
 73
2
 40
9.5250000000000004
 49
6.3499999999999996
 74
0
 49
-3.1749999999999998
 74
0
  0
LTYPE
  5
36
100
AcDbSymbolTableRecord
100
AcDbLinetypeTableRecord
  2
DASHEDX2
 70
0
  3
Dashed (2x) ____  ____  ____  ____  ____  ___
 72
65
 73
2
 40
38.1000000000000014
 49
25.3999999999999986
 74
0
 49
-12.6999999999999993
 74
0
  0
LTYPE
  5
37
100
AcDbSymbolTableRecord
100
AcDbLinetypeTableRecord
  2
DASHDOT
 70
0
  3
Dash dot __ . __ . __ . __ . __ . __ . __ . __
 72
65
 73
4
 40
25.3999999999999986
 49
12.6999999999999993
 74
0
 49
-6.3499999999999996
 74
0
 49
0.0
 74
0
 49
-6.3499999999999996
 74
0
  0
LTYPE
  5
38
100
AcDbSymbolTableRecord
100
AcDbLinetypeTableRecord
  2
DASHDOT2
 70
0
  3
Dash dot (.5x) _._._._._._._._._._._._._._._.
 72
65
 73
4
 40
12.6999999999999993
 49
6.3499999999999996
 74
0
 49
-3.1749999999999998
 74
0
 49
0.0
 74
0
 49
-3.1749999999999998
 74
0
  0
LTYPE
  5
39
100
AcDbSymbolTableRecord
100
AcDbLinetypeTableRecord
  2
DASHDOTX2
 70
0
  3
Dash dot (2x) ____  .  ____  .  ____  .  ___
 72
65
 73
4
 40
50.7999999999999972
 49
25.3999999999999986
 74
0
 49
-12.6999999999999993
 74
0
 49
0.0
 74
0
 49
-12.6999999999999993
 74
0
  0
LTYPE
  5
3A
100
AcDbSymbolTableRecord
100
AcDbLinetypeTableRecord
  2
DIVIDE
 70
0
  3
Divide ____ . . ____ . . ____ . . ____ . . ____
 72
65
 73
6
 40
31.75
 49
12.6999999999999993
 74
0
 49
-6.3499999999999996
 74
0
 49
0.0
 74
0
 49
-6.3499999999999996
 74
0
 49
0.0
 74
0
 49
-6.3499999999999996
 74
0
  0
LTYPE
  5
3B
100
AcDbSymbolTableRecord
100
AcDbLinetypeTableRecord
  2
DIVIDE2
 70
0
  3
Divide (.5x) __..__..__..__..__..__..__..__.._
 72
65
 73
6
 40
15.875
 49
6.3499999999999996
 74
0
 49
-3.1749999999999998
 74
0
 49
0.0
 74
0
 49
-3.1749999999999998
 74
0
 49
0.0
 74
0
 49
-3.1749999999999998
 74
0
  0
LTYPE
  5
3C
100
AcDbSymbolTableRecord
100
AcDbLinetypeTableRecord
  2
DIVIDEX2
 70
0
  3
Divide (2x) ________  .  .  ________  .  .  _
 72
65
 73
6
 40
63.5
 49
25.3999999999999986
 74
0
 49
-12.6999999999999993
 74
0
 49
0.0
 74
0
 49
-12.6999999999999993
 74
0
 49
0.0
 74
0
 49
-12.6999999999999993
 74
0
  0
LTYPE
  5
3D
100
AcDbSymbolTableRecord
100
AcDbLinetypeTableRecord
  2
CENTER
 70
0
  3
Center ____ _ ____ _ ____ _ ____ _ ____ _ ____
 72
65
 73
4
 40
50.7999999999999972
 49
31.75
 74
0
 49
-6.3499999999999996
 74
0
 49
6.3499999999999996
 74
0
 49
-6.3499999999999996
 74
0
  0
LTYPE
  5
3E
100
AcDbSymbolTableRecord
100
AcDbLinetypeTableRecord
  2
CENTER2
 70
0
  3
Center (.5x) ___ _ ___ _ ___ _ ___ _ ___ _ ___
 72
65
 73
4
 40
28.5749999999999993
 49
19.0500000000000007
 74
0
 49
-3.1749999999999998
 74
0
 49
3.1749999999999998
 74
0
 49
-3.1749999999999998
 74
0
  0
LTYPE
  5
3F
100
AcDbSymbolTableRecord
100
AcDbLinetypeTableRecord
  2
CENTERX2
 70
0
  3
Center (2x) ________  __  ________  __  _____
 72
65
 73
4
 40
101.5999999999999943
 49
63.5
 74
0
 49
-12.6999999999999993
 74
0
 49
12.6999999999999993
 74
0
 49
-12.6999999999999993
 74
0
  0
LTYPE
  5
40
100
AcDbSymbolTableRecord
100
AcDbLinetypeTableRecord
  2
BORDER
 70
0
  3
Border __ __ . __ __ . __ __ . __ __ . __ __ .
 72
65
 73
6
 40
44.4500000000000028
 49
12.6999999999999993
 74
0
 49
-6.3499999999999996
 74
0
 49
12.6999999999999993
 74
0
 49
-6.3499999999999996
 74
0
 49
0.0
 74
0
 49
-6.3499999999999996
 74
0
  0
LTYPE
  5
41
100
AcDbSymbolTableRecord
100
AcDbLinetypeTableRecord
  2
BORDER2
 70
0
  3
Border (.5x) __.__.__.__.__.__.__.__.__.__.__.
 72
65
 73
6
 40
22.2250000000000014
 49
6.3499999999999996
 74
0
 49
-3.1749999999999998
 74
0
 49
6.3499999999999996
 74
0
 49
-3.1749999999999998
 74
0
 49
0.0
 74
0
 49
-3.1749999999999998
 74
0
  0
LTYPE
  5
42
100
AcDbSymbolTableRecord
100
AcDbLinetypeTableRecord
  2
BORDERX2
 70
0
  3
Border (2x) ____  ____  .  ____  ____  .  ___
 72
65
 73
6
 40
88.9000000000000057
 49
25.3999999999999986
 74
0
 49
-12.6999999999999993
 74
0
 49
25.3999999999999986
 74
0
 49
-12.6999999999999993
 74
0
 49
0.0
 74
0
 49
-12.6999999999999993
 74
0
  0
ENDTAB
  0
TABLE
  2
LAYER
  5
2
100
AcDbSymbolTable
 70
9
  0
LAYER
  5
10
100
AcDbSymbolTableRecord
100
AcDbLayerTableRecord
  2
0
 70
0
 62
8
  6
CONTINUOUS
370
0
390
F
  0
LAYER
  5
43
100
AcDbSymbolTableRecord
100
AcDbLayerTableRecord
  2
rodas
 70
0
 62
8
  6
CONTINUOUS
370
0
390
F
  0
LAYER
  5
44
100
AcDbSymbolTableRecord
100
AcDbLayerTableRecord
  2
text
 70
0
 62
7
  6
CONTINUOUS
370
0
390
F
  0
LAYER
  5
45
100
AcDbSymbolTableRecord
100
AcDbLayerTableRecord
  2
carcaca
 70
0
 62
9
  6
CONTINUOUS
370
0
390
F
  0
LAYER
  5
46
100
AcDbSymbolTableRecord
100
AcDbLayerTableRecord
  2
pontos
 70
0
 62
5
  6
CONTINUOUS
370
0
390
F
  0
LAYER
  5
47
100
AcDbSymbolTableRecord
100
AcDbLayerTableRecord
  2
noname
 70
0
 62
7
  6
CONTINUOUS
370
0
390
F
  0
LAYER
  5
48
100
AcDbSymbolTableRecord
100
AcDbLayerTableRecord
  2
raios
 70
0
 62
7
  6
CONTINUOUS
370
0
390
F
  0
LAYER
  5
49
100
AcDbSymbolTableRecord
100
AcDbLayerTableRecord
  2
ponto_raio
 70
0
 62
5
  6
CONTINUOUS
370
0
390
F
  0
LAYER
  5
4A
100
AcDbSymbolTableRecord
100
AcDbLayerTableRecord
  2
trajetoria
 70
0
 62
7
  6
DASHEDX2
370
0
390
F
  0
ENDTAB
  0
TABLE
  2
STYLE
  5
3
100
AcDbSymbolTable
 70
1
  0
STYLE
  5
11
100
AcDbSymbolTableRecord
100
AcDbTextStyleTableRecord
  2
Standard
 70
0
 40
0.0
 41
0.75
 50
0.0
 71
0
 42
2.5
  3
txt
  4

  0
ENDTAB
  0
TABLE
  2
VIEW
  5
6
100
AcDbSymbolTable
 70
0
  0
ENDTAB
  0
TABLE
  2
UCS
  5
7
100
AcDbSymbolTable
 70
0
  0
ENDTAB
  0
TABLE
  2
APPID
  5
9
100
AcDbSymbolTable
 70
1
  0
APPID
  5
12
100
AcDbSymbolTableRecord
100
AcDbRegAppTableRecord
  2
ACAD
 70
0
  0
ENDTAB
  0
TABLE
  2
DIMSTYLE
  5
A
100
AcDbSymbolTable
 70
1
100
AcDbDimStyleTable
 71
0
  0
DIMSTYLE
105
27
100
AcDbSymbolTableRecord
100
AcDbDimStyleTableRecord
  2
Standard
 41
5.0
 42
0.625
 43
3.75
 44
1.25
 70
0
 73
0
 74
0
 77
1
 78
8
140
10.0
141
2.5
143
0.03937007874016
147
0.625
171
3
172
1
271
2
272
2
274
3
278
44
283
0
284
8
340
11
  0
ENDTAB
  0
TABLE
  2
BLOCK_RECORD
  5
1
100
AcDbSymbolTable
 70
1
  0
BLOCK_RECORD
  5
1F
100
AcDbSymbolTableRecord
100
AcDbBlockTableRecord
  2
*Model_Space
340
22
  0
BLOCK_RECORD
  5
1B
100
AcDbSymbolTableRecord
100
AcDbBlockTableRecord
  2
*Paper_Space
340
1E
  0
BLOCK_RECORD
  5
23
100
AcDbSymbolTableRecord
100
AcDbBlockTableRecord
  2
*Paper_Space0
340
26
  0
BLOCK_RECORD
  5
4B
100
AcDbSymbolTableRecord
100
AcDbBlockTableRecord
  2
robo2
340
0
  0
ENDTAB
  0
ENDSEC
  0
SECTION
  2
BLOCKS
  0
BLOCK
  5
20
100
AcDbEntity
  8
0
100
AcDbBlockBegin
  2
*Model_Space
 70
0
 10
0.0
 20
0.0
 30
0.0
  3
*Model_Space
  1

  0
ENDBLK
  5
21
100
AcDbEntity
  8
0
100
AcDbBlockEnd
  0
BLOCK
  5
1C
100
AcDbEntity
 67
1
  8
0
100
AcDbBlockBegin
  2
*Paper_Space
 70
0
 10
0.0
 20
0.0
 30
0.0
  3
*Paper_Space
  1

  0
ENDBLK
  5
1D
100
AcDbEntity
 67
1
  8
0
100
AcDbBlockEnd
  0
BLOCK
  5
24
100
AcDbEntity
  8
0
100
AcDbBlockBegin
  2
*Paper_Space0
 70
0
 10
0.0
 20
0.0
 30
0.0
  3
*Paper_Space0
  1

  0
ENDBLK
  5
25
100
AcDbEntity
  8
0
100
AcDbBlockEnd
  0
BLOCK
  5
4C
100
AcDbEntity
  8
0
100
AcDbBlockBegin
  2
robo2
 70
0
 10
0.0
 20
0.0
 30
0.0
  3
robo2
  1

  0
HATCH
  5
4D
  8
carcaca
 62
256
370
-1
  6
ByLayer
100
AcDbEntity
100
AcDbHatch
 10
0.0
 20
0.0
 30
0.0
210
0.0
220
0.0
230
1.0
  2
SOLID
 70
1
 71
0
 91
1
 92
1
 93
8
 72
1
 10
40.1562500000351861
 20
-40.2187500000104023
 11
-59.8437499999648139
 21
-40.2187500000104023
 72
1
 10
-59.8437499999648139
 20
-40.2187500000104023
 11
-59.8437499999648139
 21
39.7812499999895834
 72
1
 10
-59.8437499999648139
 20
39.7812499999895834
 11
40.1562500000351861
 21
39.7812499999895834
 72
1
 10
40.1562500000351861
 20
39.7812499999895834
 11
40.1562500000351861
 21
-40.2187500000104023
 72
1
 10
-19.8437499999648139
 20
39.7812499999895834
 11
20.1562500000351861
 21
39.7812499999895834
 72
1
 10
20.1562500000351861
 20
39.7812499999895834
 11
-19.8437499999648139
 21
39.7812499999895834
 72
1
 10
-19.8437499999648139
 20
-40.2187500000104023
 11
20.1562500000351861
 21
-40.2187500000104023
 72
1
 10
20.1562500000351861
 20
-40.2187500000104023
 11
-19.8437499999648139
 21
-40.2187500000104023
 97
0
 75
0
 76
1
 98
0
  0
HATCH
  5
4E
  8
rodas
 62
256
370
-1
  6
ByLayer
100
AcDbEntity
100
AcDbHatch
 10
0.0
 20
0.0
 30
0.0
210
0.0
220
0.0
230
1.0
  2
SOLID
 70
1
 71
0
 91
1
 92
1
 93
4
 72
1
 10
-19.8437499999648139
 20
39.7812499999895834
 11
20.1562500000351861
 21
39.7812499999895834
 72
1
 10
20.1562500000351861
 20
39.7812499999895834
 11
20.1562500000351861
 21
53.7812499999895834
 72
1
 10
20.1562500000351861
 20
53.7812499999895834
 11
-19.8437499999648139
 21
53.7812499999895834
 72
1
 10
-19.8437499999648139
 20
53.7812499999895834
 11
-19.8437499999648139
 21
39.7812499999895834
 97
0
 75
0
 76
1
 98
0
  0
HATCH
  5
4F
  8
rodas
 62
256
370
-1
  6
ByLayer
100
AcDbEntity
100
AcDbHatch
 10
0.0
 20
0.0
 30
0.0
210
0.0
220
0.0
230
1.0
  2
SOLID
 70
1
 71
0
 91
1
 92
1
 93
4
 72
1
 10
-19.8437499999648139
 20
-40.2187500000104023
 11
20.1562500000351861
 21
-40.2187500000104023
 72
1
 10
20.1562500000351861
 20
-40.2187500000104023
 11
20.1562500000351861
 21
-54.2187500000104023
 72
1
 10
20.1562500000351861
 20
-54.2187500000104023
 11
-19.8437499999648139
 21
-54.2187500000104023
 72
1
 10
-19.8437499999648139
 20
-54.2187500000104023
 11
-19.8437499999648139
 21
-40.2187500000104023
 97
0
 75
0
 76
1
 98
0
  0
POINT
  5
50
100
AcDbEntity
100
AcDbPoint
  8
rodas
 62
256
370
-1
  6
ByLayer
 10
0.1562500000351861
 20
47.7812499999895834
 30
0.0
  0
LINE
  5
51
100
AcDbEntity
100
AcDbLine
  8
rodas
 62
256
370
-1
  6
ByLayer
 10
-19.8437499999648139
 20
39.7812499999895834
 30
0.0
 11
20.1562500000351861
 21
39.7812499999895834
 31
0.0
  0
LINE
  5
52
100
AcDbEntity
100
AcDbLine
  8
rodas
 62
256
370
-1
  6
ByLayer
 10
20.1562500000351861
 20
39.7812499999895834
 30
0.0
 11
20.1562500000351861
 21
53.7812499999895834
 31
0.0
  0
LINE
  5
53
100
AcDbEntity
100
AcDbLine
  8
rodas
 62
256
370
-1
  6
ByLayer
 10
20.1562500000351861
 20
53.7812499999895834
 30
0.0
 11
-19.8437499999648139
 21
53.7812499999895834
 31
0.0
  0
LINE
  5
54
100
AcDbEntity
100
AcDbLine
  8
rodas
 62
256
370
-1
  6
ByLayer
 10
-19.8437499999648139
 20
53.7812499999895834
 30
0.0
 11
-19.8437499999648139
 21
39.7812499999895834
 31
0.0
  0
CIRCLE
  5
55
100
AcDbEntity
100
AcDbCircle
  8
pontos
 62
256
370
-1
  6
ByLayer
 10
0.0
 20
0.0
 30
0.0
 40
1.4142135623730951
  0
CIRCLE
  5
56
100
AcDbEntity
100
AcDbCircle
  8
pontos
 62
256
370
-1
  6
ByLayer
 10
0.0
 20
-40.0
 30
0.0
 40
1.4142135623730951
  0
CIRCLE
  5
57
100
AcDbEntity
100
AcDbCircle
  8
pontos
 62
256
370
-1
  6
ByLayer
 10
0.0
 20
40.0
 30
0.0
 40
1.4142135623730951
  0
ENDBLK
  5
58
100
AcDbEntity
  8
0
100
AcDbBlockEnd
  0
ENDSEC
  0
SECTION
  2
ENTITIES
  0
HATCH
  5
59
  8
ponto_raio
 62
256
370
-1
  6
ByLayer
100
AcDbEntity
100
AcDbHatch
 10
0.0
 20
0.0
 30
0.0
210
0.0
220
0.0
230
1.0
  2
SOLID
 70
1
 71
0
 91
1
 92
1
 93
1
 72
2
 10
0.0
 20
-200.0
 40
1.0
 50
0.0
 51
360.0
 73
1
 97
0
 75
0
 76
1
 98
0
  0
HATCH
  5
5A
  8
noname
 62
256
370
-1
  6
ByLayer
100
AcDbEntity
100
AcDbHatch
 10
0.0
 20
0.0
 30
0.0
210
0.0
220
0.0
230
1.0
  2
SOLID
 70
1
 71
0
 91
1
 92
1
 93
3
 72
1
 10
50.0
 20
2.0
 11
50.0
 21
-2.0
 72
1
 10
50.0
 20
-2.0
 11
53.4641016151377499
 21
-0.0000000000000029
 72
1
 10
53.4641016151377499
 20
-0.0000000000000029
 11
50.0
 21
1.9999999999999962
 97
0
 75
0
 76
1
 98
0
  0
HATCH
  5
5B
  8
text
 62
256
370
-1
  6
ByLayer
100
AcDbEntity
100
AcDbHatch
 10
0.0
 20
0.0
 30
0.0
210
0.0
220
0.0
230
1.0
  2
SOLID
 70
1
 71
0
 91
1
 92
1
 93
1
 72
2
 10
0.1562500000351861
 20
-0.2187500000104166
 40
2.0
 50
0.0
 51
360.0
 73
1
 97
0
 75
0
 76
1
 98
0
  0
LINE
  5
5C
100
AcDbEntity
100
AcDbLine
  8
0
 62
256
370
-1
  6
ByLayer
 10
40.1562500000351861
 20
-40.2187500000104023
 30
0.0
 11
-59.8437499999648139
 21
-40.2187500000104023
 31
0.0
  0
LINE
  5
5D
100
AcDbEntity
100
AcDbLine
  8
0
 62
256
370
-1
  6
ByLayer
 10
-59.8437499999648139
 20
-40.2187500000104023
 30
0.0
 11
-59.8437499999648139
 21
39.7812499999895834
 31
0.0
  0
LINE
  5
5E
100
AcDbEntity
100
AcDbLine
  8
0
 62
256
370
-1
  6
ByLayer
 10
-59.8437499999648139
 20
39.7812499999895834
 30
0.0
 11
40.1562500000351861
 21
39.7812499999895834
 31
0.0
  0
LINE
  5
5F
100
AcDbEntity
100
AcDbLine
  8
0
 62
256
370
-1
  6
ByLayer
 10
40.1562500000351861
 20
39.7812499999895834
 30
0.0
 11
40.1562500000351861
 21
-40.2187500000104023
 31
0.0
  0
POINT
  5
60
100
AcDbEntity
100
AcDbPoint
  8
0
 62
256
370
-1
  6
ByLayer
 10
0.1562500000351861
 20
-0.2187500000104166
 30
0.0
  0
POINT
  5
61
100
AcDbEntity
100
AcDbPoint
  8
rodas
 62
256
370
-1
  6
ByLayer
 10
0.1562500000351861
 20
-48.2187500000104023
 30
0.0
  0
LINE
  5
62
100
AcDbEntity
100
AcDbLine
  8
rodas
 62
256
370
-1
  6
ByLayer
 10
-19.8437499999648139
 20
-40.2187500000104023
 30
0.0
 11
20.1562500000351861
 21
-40.2187500000104023
 31
0.0
  0
LINE
  5
63
100
AcDbEntity
100
AcDbLine
  8
rodas
 62
256
370
-1
  6
ByLayer
 10
20.1562500000351861
 20
-40.2187500000104023
 30
0.0
 11
20.1562500000351861
 21
-54.2187500000104023
 31
0.0
  0
LINE
  5
64
100
AcDbEntity
100
AcDbLine
  8
rodas
 62
256
370
-1
  6
ByLayer
 10
20.1562500000351861
 20
-54.2187500000104023
 30
0.0
 11
-19.8437499999648139
 21
-54.2187500000104023
 31
0.0
  0
LINE
  5
65
100
AcDbEntity
100
AcDbLine
  8
rodas
 62
256
370
-1
  6
ByLayer
 10
-19.8437499999648139
 20
-54.2187500000104023
 30
0.0
 11
-19.8437499999648139
 21
-40.2187500000104023
 31
0.0
  0
DIMENSION
  5
66
100
AcDbEntity
  8
text
 62
256
370
-1
  6
ByLayer
100
AcDbDimension
 10
-119.8437499999648139
 20
-40.2187500000104023
 30
0.0
 11
-131.0937499999648139
 21
-20.2187500000104023
 31
0.0
 70
1
 71
5
 72
1
 41
1.0
 42
0.0
  1
h
  3
Standard
100
AcDbAlignedDimension
 13
0.1562500000351861
 23
-0.2187500000104166
 33
0.0
 14
0.1562500000351861
 24
-40.2187500000104023
 34
0.0
  0
LINE
  5
67
100
AcDbEntity
100
AcDbLine
  8
noname
 62
256
370
-1
  6
ByLayer
 10
40.0
 20
0.0
 30
0.0
 11
50.0
 21
0.0
 31
0.0
  0
LINE
  5
68
100
AcDbEntity
100
AcDbLine
  8
noname
 62
256
370
-1
  6
ByLayer
 10
50.0
 20
2.0
 30
0.0
 11
50.0
 21
-2.0
 31
0.0
  0
LINE
  5
69
100
AcDbEntity
100
AcDbLine
  8
noname
 62
256
370
-1
  6
ByLayer
 10
50.0
 20
-2.0
 30
0.0
 11
53.4641016151377499
 21
-0.0000000000000029
 31
0.0
  0
LINE
  5
6A
100
AcDbEntity
100
AcDbLine
  8
noname
 62
256
370
-1
  6
ByLayer
 10
53.4641016151377499
 20
-0.0000000000000029
 30
0.0
 11
50.0
 21
1.9999999999999962
 31
0.0
  0
MTEXT
  5
6B
100
AcDbEntity
100
AcDbMText
  8
text
 62
256
370
-1
  6
ByLayer
 10
10.0
 20
0.0
 30
0.0
 40
20.0
 41
200.0
 71
1
 72
2
  1
C
  7
simplex
 50
0.0
 73
1
 44
1.0
  0
CIRCLE
  5
6C
100
AcDbEntity
100
AcDbCircle
  8
ponto_raio
 62
256
370
-1
  6
ByLayer
 10
0.0
 20
-200.0
 30
0.0
 40
1.0
  0
CIRCLE
  5
6D
100
AcDbEntity
100
AcDbCircle
  8
pontos
 62
256
370
-1
  6
ByLayer
 10
0.0
 20
-40.0
 30
0.0
 40
1.4142135623730951
  0
CIRCLE
  5
6E
100
AcDbEntity
100
AcDbCircle
  8
pontos
 62
256
370
-1
  6
ByLayer
 10
0.0
 20
0.0
 30
0.0
 40
1.0
  0
MTEXT
  5
6F
100
AcDbEntity
100
AcDbMText
  8
text
 62
256
370
-1
  6
CONTINUOUS
 10
43.0
 20
11.0
 30
0.0
 40
8.0
 41
100.0
 71
1
 72
2
  1
Frente
  7
simplex
 50
0.0
 73
1
 44
1.0
  0
ARC
  5
70
100
AcDbEntity
  8
trajetoria
 62
256
370
-1
  6
ByLayer
100
AcDbCircle
 10
0.0
 20
0.0
 30
0.0
 40
0.0
100
AcDbArc
 50
0.0
 51
0.0
  0
ARC
  5
71
100
AcDbEntity
  8
trajetoria
 62
256
370
-1
  6
ByLayer
100
AcDbCircle
 10
0.0
 20
-200.0
 30
0.0
 40
200.0
100
AcDbArc
 50
29.7448812969422036
 51
90.0
  0
ARC
  5
72
100
AcDbEntity
  8
trajetoria
 62
256
370
-1
  6
ByLayer
100
AcDbCircle
 10
0.0
 20
-200.0
 30
0.0
 40
240.0
100
AcDbArc
 50
33.6900675259798064
 51
90.0
  0
ARC
  5
73
100
AcDbEntity
  8
trajetoria
 62
256
370
-1
  6
ByLayer
100
AcDbCircle
 10
0.0
 20
-200.0
 30
0.0
 40
160.0
100
AcDbArc
 50
25.2011236454750467
 51
90.0
  0
DIMENSION
  5
74
100
AcDbEntity
  8
raios
 62
256
370
-1
  6
ByLayer
100
AcDbDimension
 10
-80.0
 20
-200.0
 30
0.0
 11
-85.625
 21
-80.0
 31
0.0
 70
1
 71
5
 72
1
 41
1.0
 42
0.0
  1
Re
  3
Standard
100
AcDbAlignedDimension
 13
0.0
 23
40.0
 33
0.0
 14
0.0
 24
-200.0
 34
0.0
  0
DIMENSION
  5
75
100
AcDbEntity
  8
raios
 62
256
370
-1
  6
CONTINUOUS
100
AcDbDimension
 10
111.4639575561840417
 20
-33.9426929460701174
 30
0.0
 11
51.1989565885367099
 21
-113.6317207677369936
 31
0.0
 70
1
 71
5
 72
0
 41
1.0
 42
0.0
  1
R
  3
Standard
100
AcDbAlignedDimension
 13
0.9971426880279413
 23
-200.0755411127294963
 33
0.0
 14
112.1863327207043994
 24
-34.4275785322948025
 34
0.0
  0
DIMENSION
  5
76
100
AcDbEntity
  8
raios
 62
256
370
-1
  6
ByLayer
100
AcDbDimension
 10
-40.0
 20
-200.0
 30
0.0
 11
-45.625
 21
-120.0
 31
0.0
 70
1
 71
5
 72
1
 41
1.0
 42
0.0
  1
Rd
  3
Standard
100
AcDbAlignedDimension
 13
0.0
 23
-40.0
 33
0.0
 14
0.0
 24
-200.0
 34
0.0
  0
INSERT
  5
77
100
AcDbEntity
100
AcDbBlockReference
  8
trajetoria
 62
256
370
-1
  6
ByLayer
  2
robo2
 10
0.0
 20
0.0
 30
0.0
  0
MTEXT
  5
78
100
AcDbEntity
100
AcDbMText
  8
text
 62
256
370
-1
  6
ByLayer
 10
2.7337348314606977
 20
-44.6510022471913786
 30
0.0
 40
20.0
 41
200.0
 71
1
 72
2
  1
D
  7
simplex
 50
0.0
 73
1
 44
1.0
  0
MTEXT
  5
79
100
AcDbEntity
100
AcDbMText
  8
text
 62
256
370
-1
  6
ByLayer
 10
4.5562247191011629
 20
64.9262022471915685
 30
0.0
 40
20.0
 41
200.0
 71
1
 72
2
  1
E
  7
simplex
 50
0.0
 73
1
 44
1.0
  0
DIMENSION
  5
7A
100
AcDbEntity
  8
raios
 62
256
370
-1
  6
ByLayer
100
AcDbDimension
 10
0.0
 20
0.0
 30
0.0
 11
-5.625
 21
-100.0
 31
0.0
 70
1
 71
5
 72
1
 41
1.0
 42
0.0
  1
R
  3
Standard
100
AcDbAlignedDimension
 13
0.0
 23
-200.0
 33
0.0
 14
0.0
 24
0.0
 34
0.0
  0
DIMENSION
  5
7B
100
AcDbEntity
  8
raios
 62
256
370
-1
  6
ByLayer
100
AcDbDimension
 10
-120.0
 20
40.0000000000000142
 30
0.0
 11
-125.625
 21
20.0000000000000142
 31
0.0
 70
1
 71
5
 72
1
 41
1.0
 42
0.0
  1
h
  3
Standard
100
AcDbAlignedDimension
 13
0.0
 23
0.0
 33
0.0
 14
0.0
 24
40.0
 34
0.0
  0
MTEXT
  5
7C
100
AcDbEntity
100
AcDbMText
  8
raios
 62
256
370
-1
  6
ByLayer
 10
6.8039622471911549
 20
9.1367493033709817
 30
0.0
 40
20.0
 41
100.0
 71
1
 72
0
  1
C
  7
unicode
 50
0.0
 73
1
 44
1.0
  0
ENDSEC
  0
SECTION
  2
OBJECTS
  0
DICTIONARY
  5
C
100
AcDbDictionary
280
0
281
1
  3
ACAD_GROUP
350
D
  3
ACAD_LAYOUT
350
1A
  3
ACAD_MLINESTYLE
350
17
  3
ACAD_PLOTSETTINGS
350
19
  3
ACAD_PLOTSTYLENAME
350
E
  3
AcDbVariableDictionary
350
7D
  0
DICTIONARY
  5
D
100
AcDbDictionary
280
0
281
1
  0
ACDBDICTIONARYWDFLT
  5
E
100
AcDbDictionary
281
1
  3
Normal
350
F
100
AcDbDictionaryWithDefault
340
F
  0
ACDBPLACEHOLDER
  5
F
  0
DICTIONARY
  5
17
100
AcDbDictionary
280
0
281
1
  3
Standard
350
18
  0
MLINESTYLE
  5
18
100
AcDbMlineStyle
  2
STANDARD
 70
0
  3

 62
256
 51
90.0
 52
90.0
 71
2
 49
0.5
 62
256
  6
BYLAYER
 49
-0.5
 62
256
  6
BYLAYER
  0
DICTIONARY
  5
19
100
AcDbDictionary
280
0
281
1
  0
DICTIONARY
  5
1A
100
AcDbDictionary
281
1
  3
Layout1
350
1E
  3
Layout2
350
26
  3
Model
350
22
  0
LAYOUT
  5
1E
100
AcDbPlotSettings
  1

  2
C:\Program Files\AutoCAD 2002\plotters\DWF ePlot (optimized for plotting).pc3
  4

  6

 40
0.0
 41
0.0
 42
0.0
 43
0.0
 44
0.0
 45
0.0
 46
0.0
 47
0.0
 48
0.0
 49
0.0
140
0.0
141
0.0
142
1.0
143
1.0
 70
688
 72
0
 73
0
 74
5
  7

 75
16
147
1.0
148
0.0
149
0.0
100
AcDbLayout
  1
Layout1
 70
1
 71
1
 10
0.0
 20
0.0
 11
420.0
 21
297.0
 12
0.0
 22
0.0
 32
0.0
 14
100000000000000000000.0
 24
100000000000000000000.0
 34
100000000000000000000.0
 15
-100000000000000000000.0
 25
-100000000000000000000.0
 35
-100000000000000000000.0
146
0.0
 13
0.0
 23
0.0
 33
0.0
 16
1.0
 26
0.0
 36
0.0
 17
0.0
 27
1.0
 37
0.0
 76
0
330
1B
  0
LAYOUT
  5
22
100
AcDbPlotSettings
  1

  2
C:\Program Files\AutoCAD 2002\plotters\DWF ePlot (optimized for plotting).pc3
  4

  6

 40
0.0
 41
0.0
 42
0.0
 43
0.0
 44
0.0
 45
0.0
 46
0.0
 47
0.0
 48
0.0
 49
0.0
140
0.0
141
0.0
142
1.0
143
1.0
 70
1712
 72
0
 73
0
 74
0
  7

 75
0
147
1.0
148
0.0
149
0.0
100
AcDbLayout
  1
Model
 70
1
 71
0
 10
0.0
 20
0.0
 11
12.0
 21
9.0
 12
0.0
 22
0.0
 32
0.0
 14
0.0
 24
0.0
 34
0.0
 15
0.0
 25
0.0
 35
0.0
146
0.0
 13
0.0
 23
0.0
 33
0.0
 16
1.0
 26
0.0
 36
0.0
 17
0.0
 27
1.0
 37
0.0
 76
0
330
1F
  0
LAYOUT
  5
26
100
AcDbPlotSettings
  1

  2
C:\Program Files\AutoCAD 2002\plotters\DWF ePlot (optimized for plotting).pc3
  4

  6

 40
0.0
 41
0.0
 42
0.0
 43
0.0
 44
0.0
 45
0.0
 46
0.0
 47
0.0
 48
0.0
 49
0.0
140
0.0
141
0.0
142
1.0
143
1.0
 70
688
 72
0
 73
0
 74
5
  7

 75
16
147
1.0
148
0.0
149
0.0
100
AcDbLayout
  1
Layout2
 70
1
 71
2
 10
0.0
 20
0.0
 11
12.0
 21
9.0
 12
0.0
 22
0.0
 32
0.0
 14
0.0
 24
0.0
 34
0.0
 15
0.0
 25
0.0
 35
0.0
146
0.0
 13
0.0
 23
0.0
 33
0.0
 16
1.0
 26
0.0
 36
0.0
 17
0.0
 27
1.0
 37
0.0
 76
0
330
23
  0
DICTIONARY
  5
7D
100
AcDbDictionary
281
1
  3
DIMASSOC
350
7F
  3
HIDETEXT
350
7E
  0
DICTIONARYVAR
  5
7E
100
DictionaryVariables
280
0
  1
2
  0
DICTIONARYVAR
  5
7F
100
DictionaryVariables
280
0
  1
1
  0
ENDSEC
  0
EOF
