G04 start of page 2 for group 0 idx 0 *
G04 Title: (unknown), solder *
G04 Creator: pcb 20110918 *
G04 CreationDate: Mon 01 Apr 2013 04:29:37 PM GMT UTC *
G04 For: telmo *
G04 Format: Gerber/RS-274X *
G04 PCB-Dimensions: 275000 278000 *
G04 PCB-Coordinate-Origin: lower left *
%MOIN*%
%FSLAX25Y25*%
%LNBOTTOM*%
%ADD121C,0.0460*%
%ADD120C,0.0635*%
%ADD119C,0.0380*%
%ADD118C,0.1250*%
%ADD117C,0.0520*%
%ADD116C,0.0200*%
%ADD115C,0.1968*%
%ADD114C,0.0360*%
%ADD113C,0.3150*%
%ADD112C,0.0750*%
%ADD111C,0.0650*%
%ADD110C,0.0935*%
%ADD109C,0.0600*%
%ADD108C,0.1950*%
%ADD107C,0.0720*%
%ADD106C,0.0001*%
%ADD105C,0.0150*%
%ADD104C,0.0400*%
%ADD103C,0.0250*%
G54D103*X246000Y227000D02*Y187000D01*
Y227000D02*X227000Y246000D01*
X241735Y231265D02*X244260Y228740D01*
Y226990D01*
X240915Y232085D02*X244250Y228750D01*
X227000Y246000D02*X48000D01*
X37000Y235000D01*
G54D104*X246000Y227030D02*Y186790D01*
G54D103*X244250Y228750D02*X246060D01*
X29500Y146000D02*X37000Y153500D01*
Y178500D01*
X32970Y149470D02*X31250Y147750D01*
X34475Y150975D02*X31250Y147750D01*
Y145960D01*
Y147750D02*X29460D01*
X37000Y235000D02*Y191000D01*
Y177500D02*Y195000D01*
X29500Y186000D02*X37000D01*
X34180D02*X31960D01*
X30550Y187410D01*
X33980Y186000D02*X31950D01*
X30560Y184610D01*
X34200Y186000D02*X34920D01*
X34950D02*X37000Y188050D01*
X33710Y186000D02*X34950D01*
X34200D01*
X34920D02*X37000Y183920D01*
X90000Y116500D02*Y125500D01*
Y124500D02*Y148500D01*
Y112000D02*Y122000D01*
X126500Y211000D02*Y185000D01*
X90000Y148500D01*
X91250Y149750D01*
X115500Y91000D02*X111000D01*
X90000Y112000D01*
X111510Y91000D02*X113000D01*
X111480D02*X113000D01*
X236000Y227000D02*Y187000D01*
Y227000D02*X229000Y234000D01*
X232120Y230880D02*X234250Y228750D01*
X231600Y231400D02*X234250Y228750D01*
Y227060D01*
G54D104*X236000Y186130D02*Y227230D01*
G54D103*X234250Y228750D02*X236240D01*
X137000Y138063D02*Y202000D01*
X139500Y204500D01*
X137000Y144550D02*X138320Y145870D01*
X137000Y149470D02*X135700Y148170D01*
X137000Y152710D02*Y149470D01*
Y151730D02*Y149460D01*
X138370Y148090D01*
X137000Y140860D02*Y144580D01*
Y141130D02*Y144550D01*
X139500Y204500D02*X154000D01*
X139500D02*X154500D01*
X156000Y206000D01*
Y230000D01*
Y224940D02*Y227560D01*
Y224700D02*Y227530D01*
X149330Y232460D02*X153540D01*
X142460D02*X158460D01*
X156000Y227560D02*X154570Y228990D01*
X156000Y227530D02*X157320Y228850D01*
X229000Y234000D02*X160000D01*
X156000Y230000D01*
X156250Y230250D01*
X153540Y232460D02*X156000Y230000D01*
X158460Y232460D02*X159020Y233020D01*
X138740Y228740D02*X136780D01*
X137000Y227000D02*X142460Y232460D01*
X140415Y230415D02*X138740Y228740D01*
X140280Y230280D02*X138760Y228760D01*
Y226950D01*
X104705Y131358D02*X130295D01*
X107000Y137140D02*X102840Y132980D01*
X113980Y131358D02*X108218D01*
X137000Y138063D02*X130295Y131358D01*
X134994Y136056D02*X132817Y133880D01*
X130020D01*
X135114Y136176D02*X132830Y133893D01*
X126792Y131358D02*X128820Y129330D01*
X123770Y131358D02*X126738D01*
X128570Y133190D01*
X121380Y131358D02*X126792D01*
X132830Y133893D02*Y131170D01*
X137000Y144580D02*X135660Y145920D01*
X84000Y108000D02*X110000Y82000D01*
X119500D02*X125000Y87500D01*
Y95500D01*
Y90710D01*
X110000Y82000D02*X119500D01*
X56500Y26600D02*X172200D01*
X47400D02*X58000D01*
X39500Y31000D02*X43900Y26600D01*
X56000D01*
X41100Y45100D02*X39500Y43500D01*
Y31000D01*
X41100Y45100D02*Y42820D01*
X39500Y41220D01*
X106100Y102650D02*X117850D01*
X125000Y95500D01*
X53000Y108000D02*X84000D01*
X43877D02*X56741D01*
X41509D02*X54500D01*
X32228Y117281D02*X41509Y108000D01*
X37710Y111800D02*X35640Y113869D01*
Y113870D02*X38060Y111450D01*
X35650Y113860D01*
X32228Y117281D02*X37710Y111800D01*
X35640Y113869D02*Y117260D01*
Y113870D01*
X35650Y113860D02*X32200D01*
X107000Y133716D02*X104642Y131358D01*
X102840Y132980D02*Y129493D01*
X108218Y131358D02*X106330Y129470D01*
X107000Y136000D02*Y131858D01*
X107500Y131358D01*
X113190D02*X109062D01*
X107000Y133420D01*
Y144510D02*X105760Y145750D01*
X107000Y147000D02*Y133716D01*
Y139920D02*Y144510D01*
Y141010D02*Y144540D01*
Y139020D02*Y137140D01*
Y144540D02*X108260Y145800D01*
X104705Y131358D02*X98500Y125153D01*
X102840Y129493D02*X99394Y126046D01*
X102200Y128853D01*
Y131410D01*
X99718Y126372D02*X102217Y128870D01*
X104970D01*
X99348Y126002D02*X96110Y122763D01*
Y112640D01*
X106100Y102650D01*
X172200Y26600D02*X190700Y45100D01*
X185065Y39465D02*X188340Y42740D01*
Y44920D01*
X184745Y39145D02*X188360Y42760D01*
X190860D01*
G54D105*X70800Y39500D02*X94500D01*
X62700Y45100D02*X68300Y39500D01*
G54D103*X62700Y45100D02*X67070Y40730D01*
G54D105*X67600Y39500D02*X66290Y40810D01*
G54D103*X66985Y40815D02*X65030Y42770D01*
X67115Y40685D02*X65010Y42790D01*
X62410D01*
G54D105*X68300Y39500D02*X73500D01*
X75290D02*X69010D01*
X66390Y42120D01*
X71330Y39500D02*X67600D01*
X73500Y45100D02*X79400Y51000D01*
G54D103*X73410Y45010D02*X78535Y50135D01*
X78140Y49740D02*X75830Y47430D01*
Y45230D01*
X77870Y49470D02*X75820Y47420D01*
X73290D01*
G54D105*X79400Y51000D02*X85500D01*
X82300D02*X78700D01*
X76520Y48820D01*
X81810Y51000D02*X80100D01*
X77400Y48300D01*
G54D103*X65030Y42770D02*Y45390D01*
G54D105*X94500Y39500D02*X108500Y53500D01*
X81900Y51000D02*X101500D01*
X107000Y56500D01*
X97000Y147000D02*X132000Y182000D01*
X100565Y150565D02*X99230Y149230D01*
X100920Y150920D02*X99220Y149220D01*
G54D103*X131500Y113642D02*X142500Y124642D01*
X135914Y118056D02*X133988Y116130D01*
X130220D01*
X136554Y118696D02*X132800Y114942D01*
X120140Y113642D02*X126772D01*
X128510Y115380D01*
X120660Y113642D02*X126808D01*
G54D105*X99230Y149230D02*X96800D01*
X99220Y149220D02*Y146750D01*
G54D103*X142500Y124642D02*Y199000D01*
G54D105*X162300Y153800D02*X147400Y138900D01*
X150600Y137100D02*X167300Y153800D01*
X132000Y182000D02*Y208000D01*
X145380Y221380D01*
X165100Y166000D02*X147500D01*
X183500Y171500D02*X228000D01*
X222500Y176000D02*X179500Y219000D01*
X171000D01*
X228000Y171500D02*X232500Y176000D01*
X180000Y168500D02*X235000D01*
X242500Y176000D01*
X164000Y179500D02*Y181500D01*
X166500Y184000D01*
X171000D01*
X183500Y171500D01*
X169000Y179500D02*X180000Y168500D01*
X177300Y153800D02*X165100Y166000D01*
X79000Y151000D02*X84000Y156000D01*
Y209000D01*
X53500Y188000D02*X79000Y162500D01*
X53500Y221500D02*Y188000D01*
X57500Y210500D02*X79000Y189000D01*
X61500Y218000D02*X79000Y200500D01*
X53500Y231500D02*X57500Y227500D01*
Y210500D01*
X53500Y241500D02*X61500Y233500D01*
Y218000D01*
X84000Y209000D02*X91500Y216500D01*
X72500D02*X76000Y220000D01*
X94500D01*
X72500Y226500D02*X76500Y222500D01*
X95500D01*
X103500Y211000D02*X115500D01*
X94500Y220000D02*X103500Y211000D01*
X95500Y222500D02*X103500Y214500D01*
X117500D01*
X121000Y211000D01*
X145380Y221380D02*Y227430D01*
G54D103*X104705Y113642D02*X130295D01*
X109710D02*X108218D01*
X106230Y115630D01*
X112960Y113642D02*X108172D01*
X106130Y111600D01*
X126808Y113642D02*X128800Y111650D01*
G54D105*X147400Y138900D02*Y104500D01*
Y84900D02*Y104900D01*
X150600Y84200D02*Y137100D01*
Y84000D02*Y86000D01*
X108500Y53500D02*X120100D01*
X107000Y56500D02*X119000D01*
X120100Y53500D02*X150600Y84000D01*
X119000Y56500D02*X147400Y84900D01*
G54D103*X132800Y114942D02*Y113330D01*
G54D106*G36*
X230300Y48700D02*Y41500D01*
X237500D01*
Y48700D01*
X230300D01*
G37*
G54D107*X223100Y45100D03*
X228500Y33900D03*
X217700D03*
X212300Y45100D03*
X201500D03*
X190700D03*
X206900Y33900D03*
X196100D03*
G54D108*X261500Y39500D03*
G54D109*X29500Y176000D03*
Y166000D03*
Y146000D03*
Y156000D03*
Y216000D03*
Y206000D03*
Y186000D03*
Y196000D03*
G54D110*X44228Y98281D03*
X32228Y117281D03*
X56228D03*
G54D108*X163100Y39500D03*
G54D106*G36*
X80700Y48700D02*Y41500D01*
X87900D01*
Y48700D01*
X80700D01*
G37*
G54D107*X73500Y45100D03*
X62700D03*
X51900D03*
X41100D03*
G54D108*X13500Y39500D03*
G54D107*X78900Y33900D03*
G54D108*X111900Y39500D03*
G54D107*X68100Y33900D03*
X57300D03*
X46500D03*
G54D111*X83500Y127000D03*
G54D112*X104705Y131358D03*
Y113642D03*
G54D111*X83500Y92000D03*
G54D109*X97000Y227000D03*
X107000D03*
X117000D03*
X137000D03*
X127000D03*
X156000Y230000D03*
Y240000D03*
X97000Y147000D03*
X107000D03*
X117000D03*
X127000D03*
X137000D03*
G54D112*X130295Y131358D03*
Y113642D03*
G54D109*X246000Y227000D03*
X236000D03*
X226000D03*
X246000Y197000D03*
X236000D03*
X226000D03*
X246000Y187000D03*
X236000D03*
X226000D03*
X246000Y207000D03*
X246020Y112760D03*
X236000Y207000D03*
Y217000D03*
X236020Y112760D03*
X226000Y207000D03*
Y217000D03*
X216020Y112760D03*
X226020D03*
X246000Y217000D03*
G54D113*X25000Y253000D03*
Y76500D03*
G54D114*X115480Y90990D03*
X137000Y194000D03*
X145380Y227430D03*
X115500Y211000D03*
X121000D03*
X142500Y199000D03*
X126500Y211000D03*
X72500Y226500D03*
Y216500D03*
X91500D03*
X79000Y200500D03*
X53500Y221500D03*
Y231500D03*
Y241500D03*
X79000Y189000D03*
Y162500D03*
Y151000D03*
G54D113*X250000Y76500D03*
G54D114*X177300Y153800D03*
X147500Y166000D03*
X167300Y153800D03*
X162300D03*
X169000Y179500D03*
X164000D03*
X171000Y219000D03*
X222500Y176000D03*
X232500D03*
X242500D03*
G54D113*X250000Y253000D03*
G54D115*G54D116*G54D115*G54D116*G54D115*G54D117*G54D118*G54D119*G54D120*G54D118*G54D117*G54D118*G54D117*G54D118*G54D117*G54D104*G54D121*G54D104*G54D119*G54D121*G54D119*M02*
