M48
INCH
T156C0.020
T155C0.197
T154C0.046
T153C0.040
T152C0.064
T151C0.038
T150C0.125
T149C0.052
%
T156
X011548Y009099
X013700Y019400
X014538Y022743
X011550Y021100
X012100Y021100
X014250Y019900
X012650Y021100
X007250Y022650
X007250Y021650
X009150Y021650
X007900Y020050
X005350Y022150
X005350Y023150
X005350Y024150
X007900Y018900
X007900Y016250
X007900Y015100
X017730Y015380
X014750Y016600
X016730Y015380
X016230Y015380
X016900Y017950
X016400Y017950
X017100Y021900
X022250Y017600
X023250Y017600
X024250Y017600
T151
X002950Y017600
X002950Y016600
X002950Y014600
X002950Y015600
X002950Y021600
X002950Y020600
X002950Y018600
X002950Y019600
X009700Y022700
X010700Y022700
X011700Y022700
X013700Y022700
X012700Y022700
X015600Y023000
X015600Y024000
X009700Y014700
X010700Y014700
X011700Y014700
X012700Y014700
X013700Y014700
X024600Y022700
X023600Y022700
X022600Y022700
X024600Y019700
X023600Y019700
X022600Y019700
X024600Y018700
X023600Y018700
X022600Y018700
X024600Y020700
X024602Y011276
X023600Y020700
X023600Y021700
X023602Y011276
X022600Y020700
X022600Y021700
X021602Y011276
X022602Y011276
X024600Y021700
T153
X008350Y012700
X008350Y009200
T154
X010470Y013136
X010470Y011364
X013030Y013136
X013030Y011364
T149
X023390Y004510
X022310Y004510
X022850Y003390
X021770Y003390
X021230Y004510
X020150Y004510
X019070Y004510
X020690Y003390
X019610Y003390
X008430Y004510
X007350Y004510
X006270Y004510
X005190Y004510
X004110Y004510
X007890Y003390
X006810Y003390
X005730Y003390
X004650Y003390
T152
X004423Y009828
X003223Y011728
X005623Y011728
T150
X026150Y003950
X016310Y003950
X001350Y003950
X011190Y003950
T155
X002500Y025300
X002500Y007650
X025000Y007650
X025000Y025300
M30
