G04 start of page 7 for group -4079 idx -4079 *
G04 Title: (unknown), topsilk *
G04 Creator: pcb 20110918 *
G04 CreationDate: Mon 01 Apr 2013 04:29:37 PM GMT UTC *
G04 For: telmo *
G04 Format: Gerber/RS-274X *
G04 PCB-Dimensions: 275000 278000 *
G04 PCB-Coordinate-Origin: lower left *
%MOIN*%
%FSLAX25Y25*%
%LNTOPSILK*%
%ADD182C,0.0060*%
%ADD181C,0.0080*%
%ADD180C,0.0200*%
%ADD179C,0.0178*%
%ADD178C,0.0100*%
G54D178*X3422Y153757D02*X4969D01*
X2589Y154590D02*X3422Y153757D01*
X2589Y157684D02*Y154590D01*
Y157684D02*X3422Y158517D01*
X4969D01*
X6397Y157327D02*Y153757D01*
Y157327D02*X7230Y158517D01*
X8539D01*
X9372Y157327D01*
Y153757D01*
X6397Y156137D02*X9372D01*
X11395Y158517D02*Y153757D01*
X10800Y158517D02*X13180D01*
X13775Y157922D01*
Y156732D01*
X13180Y156137D02*X13775Y156732D01*
X11395Y156137D02*X13180D01*
X15203Y157922D02*X15798Y158517D01*
X17583D01*
X18178Y157922D01*
Y156732D01*
X15203Y153757D02*X18178Y156732D01*
X15203Y153757D02*X18178D01*
X19606Y157922D02*X20201Y158517D01*
X21986D01*
X22581Y157922D01*
Y156732D01*
X19606Y153757D02*X22581Y156732D01*
X19606Y153757D02*X22581D01*
X15776Y148430D02*X18256D01*
X15776D02*Y145950D01*
X16396Y146570D01*
X17636D01*
X18256Y145950D01*
Y144090D01*
X17636Y143470D02*X18256Y144090D01*
X16396Y143470D02*X17636D01*
X15776Y144090D02*X16396Y143470D01*
X19744Y148430D02*X20984Y143470D01*
X22224Y148430D01*
X12514Y168418D02*X13134Y167798D01*
X10654Y168418D02*X12514D01*
X10034Y167798D02*X10654Y168418D01*
X10034Y167798D02*Y164078D01*
X10654Y163458D01*
X12514D01*
X13134Y164078D01*
Y165318D02*Y164078D01*
X12514Y165938D02*X13134Y165318D01*
X11274Y165938D02*X12514D01*
X14622Y168418D02*Y163458D01*
Y168418D02*X17722Y163458D01*
Y168418D02*Y163458D01*
X19830Y168418D02*Y163458D01*
X21442Y168418D02*X22310Y167550D01*
Y164326D01*
X21442Y163458D02*X22310Y164326D01*
X19210Y163458D02*X21442D01*
X19210Y168418D02*X21442D01*
X4133Y173454D02*X5680D01*
X3300Y174287D02*X4133Y173454D01*
X3300Y177381D02*Y174287D01*
Y177381D02*X4133Y178214D01*
X5680D01*
X7108Y177024D02*Y173454D01*
Y177024D02*X7941Y178214D01*
X9250D01*
X10083Y177024D01*
Y173454D01*
X7108Y175834D02*X10083D01*
X12106Y178214D02*Y173454D01*
X11511Y178214D02*X13891D01*
X14486Y177619D01*
Y176429D01*
X13891Y175834D02*X14486Y176429D01*
X12106Y175834D02*X13891D01*
X15914Y177619D02*X16509Y178214D01*
X18294D01*
X18889Y177619D01*
Y176429D01*
X15914Y173454D02*X18889Y176429D01*
X15914Y173454D02*X18889D01*
X20317Y177262D02*X21269Y178214D01*
Y173454D01*
X20317D02*X22102D01*
X3642Y193543D02*X5189D01*
X2809Y194376D02*X3642Y193543D01*
X2809Y197470D02*Y194376D01*
Y197470D02*X3642Y198303D01*
X5189D01*
X6617Y197113D02*Y193543D01*
Y197113D02*X7450Y198303D01*
X8759D01*
X9592Y197113D01*
Y193543D01*
X6617Y195923D02*X9592D01*
X11615Y198303D02*Y193543D01*
X11020Y198303D02*X13400D01*
X13995Y197708D01*
Y196518D01*
X13400Y195923D02*X13995Y196518D01*
X11615Y195923D02*X13400D01*
X15423Y197708D02*X16018Y198303D01*
X17803D01*
X18398Y197708D01*
Y196518D01*
X15423Y193543D02*X18398Y196518D01*
X15423Y193543D02*X18398D01*
X19826Y194138D02*X20421Y193543D01*
X19826Y197708D02*Y194138D01*
Y197708D02*X20421Y198303D01*
X21611D01*
X22206Y197708D01*
Y194138D01*
X21611Y193543D02*X22206Y194138D01*
X20421Y193543D02*X21611D01*
X19826Y194733D02*X22206Y197113D01*
X4976Y215992D02*X6761D01*
X4976Y213374D02*X7356D01*
X4976Y218134D02*Y213374D01*
Y218134D02*X7356D01*
X8784D02*X9974D01*
X9379D02*Y213374D01*
X8784D02*X9974D01*
X11402Y218134D02*Y213374D01*
Y218134D02*X14377Y213374D01*
Y218134D02*Y213374D01*
X15805Y218134D02*X18185D01*
X16995D02*Y213374D01*
X19613Y213969D02*X20208Y213374D01*
X19613Y217539D02*Y213969D01*
Y217539D02*X20208Y218134D01*
X21398D01*
X21993Y217539D01*
Y213969D01*
X21398Y213374D02*X21993Y213969D01*
X20208Y213374D02*X21398D01*
X19613Y214564D02*X21993Y216944D01*
X15900Y188592D02*X18380D01*
X15900D02*Y186112D01*
X16520Y186732D01*
X17760D01*
X18380Y186112D01*
Y184252D01*
X17760Y183632D02*X18380Y184252D01*
X16520Y183632D02*X17760D01*
X15900Y184252D02*X16520Y183632D01*
X19868Y188592D02*X21108Y183632D01*
X22348Y188592D01*
X12448Y208447D02*X13068Y207827D01*
X10588Y208447D02*X12448D01*
X9968Y207827D02*X10588Y208447D01*
X9968Y207827D02*Y204107D01*
X10588Y203487D01*
X12448D01*
X13068Y204107D01*
Y205347D02*Y204107D01*
X12448Y205967D02*X13068Y205347D01*
X11208Y205967D02*X12448D01*
X14556Y208447D02*Y203487D01*
Y208447D02*X17656Y203487D01*
Y208447D02*Y203487D01*
X19764Y208447D02*Y203487D01*
X21376Y208447D02*X22244Y207579D01*
Y204355D01*
X21376Y203487D02*X22244Y204355D01*
X19144Y203487D02*X21376D01*
X19144Y208447D02*X21376D01*
X225108Y234452D02*X228828D01*
X225108D02*X223868Y235320D01*
Y236684D02*Y235320D01*
Y236684D02*X225108Y237552D01*
X228828D01*
X226348D02*Y234452D01*
X223868Y239660D02*X228828D01*
X223868Y241272D02*X224736Y242140D01*
X227960D01*
X228828Y241272D02*X227960Y242140D01*
X228828Y241272D02*Y239040D01*
X223868Y241272D02*Y239040D01*
G54D179*X70000Y256300D02*X78880D01*
X81100Y258520D01*
Y263848D02*Y258520D01*
X78880Y266068D02*X81100Y263848D01*
X72220Y266068D02*X78880D01*
X72220Y274060D02*Y256300D01*
X70000Y274060D02*X78880D01*
X81100Y271840D01*
Y268288D01*
X78880Y266068D02*X81100Y268288D01*
X88648Y256300D02*X95308D01*
X86428Y258520D02*X88648Y256300D01*
X86428Y262960D02*Y258520D01*
Y262960D02*X88648Y265180D01*
X93088D01*
X95308Y262960D01*
X86428Y260740D02*X95308D01*
Y262960D02*Y260740D01*
X100636Y274060D02*Y258520D01*
X102856Y256300D01*
X107296Y274060D02*Y258520D01*
X109516Y256300D01*
X120616Y265180D02*X122836Y262960D01*
X116176Y265180D02*X120616D01*
X113956Y262960D02*X116176Y265180D01*
X113956Y262960D02*Y258520D01*
X116176Y256300D01*
X122836Y265180D02*Y258520D01*
X125056Y256300D01*
X116176D02*X120616D01*
X122836Y258520D01*
X132604Y274060D02*Y258520D01*
X134824Y256300D01*
X130384Y267400D02*X134824D01*
X139264Y262960D02*Y258520D01*
Y262960D02*X141484Y265180D01*
X145924D01*
X148144Y262960D01*
Y258520D01*
X145924Y256300D02*X148144Y258520D01*
X141484Y256300D02*X145924D01*
X139264Y258520D02*X141484Y256300D01*
X155692Y262960D02*Y256300D01*
Y262960D02*X157912Y265180D01*
X162352D01*
X153472D02*X155692Y262960D01*
X175672Y271840D02*X177892Y274060D01*
X184552D01*
X186772Y271840D01*
Y267400D01*
X175672Y256300D02*X186772Y267400D01*
X175672Y256300D02*X186772D01*
X192100D02*X194320D01*
X199648Y270508D02*X203200Y274060D01*
Y256300D01*
X199648D02*X206308D01*
G54D178*X243559Y237335D02*Y234855D01*
X246039D01*
X245419Y235475D01*
Y236715D02*Y235475D01*
Y236715D02*X246039Y237335D01*
X247899D01*
X248519Y236715D02*X247899Y237335D01*
X248519Y236715D02*Y235475D01*
X247899Y234855D02*X248519Y235475D01*
X243559Y238823D02*X248519Y240063D01*
X243559Y241303D01*
X243530Y93750D02*X248690D01*
X243530D02*X246110Y95685D01*
X243530Y97620D01*
X248690D01*
X248045Y99168D02*X248690Y99813D01*
X244175Y99168D02*X248045D01*
X244175D02*X243530Y99813D01*
Y101103D02*Y99813D01*
Y101103D02*X244175Y101748D01*
X248045D01*
X248690Y101103D02*X248045Y101748D01*
X248690Y101103D02*Y99813D01*
X247400Y99168D02*X244820Y101748D01*
X248045Y103296D02*X248690Y103941D01*
X244175Y103296D02*X248045D01*
X244175D02*X243530Y103941D01*
Y105231D02*Y103941D01*
Y105231D02*X244175Y105876D01*
X248045D01*
X248690Y105231D02*X248045Y105876D01*
X248690Y105231D02*Y103941D01*
X247400Y103296D02*X244820Y105876D01*
X233760Y236896D02*X234380Y237516D01*
X233760Y236896D02*Y235036D01*
X234380Y234416D02*X233760Y235036D01*
X234380Y234416D02*X238100D01*
X238720Y235036D01*
Y236896D02*Y235036D01*
Y236896D02*X238100Y237516D01*
X236860D02*X238100D01*
X236240Y236896D02*X236860Y237516D01*
X236240Y236896D02*Y235656D01*
X233760Y239004D02*X238720D01*
X233760D02*X238720Y242104D01*
X233760D02*X238720D01*
X233760Y244212D02*X238720D01*
X233760Y245824D02*X234628Y246692D01*
X237852D01*
X238720Y245824D02*X237852Y246692D01*
X238720Y245824D02*Y243592D01*
X233760Y245824D02*Y243592D01*
X223400Y94320D02*X228560D01*
X223400D02*X225980Y96255D01*
X223400Y98190D01*
X228560D01*
X224432Y99738D02*X223400Y100770D01*
X228560D01*
Y101673D02*Y99738D01*
X227915Y103221D02*X228560Y103866D01*
X224045Y103221D02*X227915D01*
X224045D02*X223400Y103866D01*
Y105156D02*Y103866D01*
Y105156D02*X224045Y105801D01*
X227915D01*
X228560Y105156D02*X227915Y105801D01*
X228560Y105156D02*Y103866D01*
X227270Y103221D02*X224690Y105801D01*
X213420Y95050D02*X218580D01*
X213420D02*X216000Y96985D01*
X213420Y98920D01*
X218580D01*
X214452Y100468D02*X213420Y101500D01*
X218580D01*
Y102403D02*Y100468D01*
X214452Y103951D02*X213420Y104983D01*
X218580D01*
Y105886D02*Y103951D01*
X233370Y94480D02*X238530D01*
X233370D02*X235950Y96415D01*
X233370Y98350D01*
X238530D01*
X237885Y99898D02*X238530Y100543D01*
X234015Y99898D02*X237885D01*
X234015D02*X233370Y100543D01*
Y101833D02*Y100543D01*
Y101833D02*X234015Y102478D01*
X237885D01*
X238530Y101833D02*X237885Y102478D01*
X238530Y101833D02*Y100543D01*
X237240Y99898D02*X234660Y102478D01*
X234402Y104026D02*X233370Y105058D01*
X238530D01*
Y105961D02*Y104026D01*
G54D180*X233900Y26900D02*Y12050D01*
X228500Y26900D02*Y12050D01*
X223100Y26900D02*Y12050D01*
X217700Y26900D02*Y12050D01*
X212300Y26900D02*Y12050D01*
X206900Y26900D02*Y12050D01*
X201500Y26900D02*Y12050D01*
X196100Y26900D02*Y12050D01*
X190700Y26900D02*Y12050D01*
G54D178*X267750Y7050D02*Y2050D01*
X255250Y7050D02*Y2050D01*
X169350Y7050D02*Y2050D01*
X156850Y7050D02*Y2050D01*
G54D180*X243900Y12050D02*Y7550D01*
X180700Y12050D02*X243900D01*
X180700D02*Y7550D01*
G54D178*X272950Y51750D02*Y2050D01*
X151650D02*X272950D01*
X151650Y51750D02*Y2050D01*
Y51750D02*X272950D01*
X151650Y7050D02*X272950D01*
X193650Y91980D02*X235050D01*
X193650D02*Y63480D01*
X235050D01*
Y91980D02*Y63480D01*
X144500Y91700D02*X185900D01*
X144500D02*Y63200D01*
X185900D01*
Y91700D02*Y63200D01*
X41295Y184517D02*Y193421D01*
X56893D01*
Y184517D01*
X41295D01*
Y196017D02*Y204921D01*
X56893D01*
Y196017D01*
X41295D01*
X41669Y146517D02*Y155421D01*
X57267D01*
Y146517D01*
X41669D01*
Y158018D02*Y166922D01*
X57267D01*
Y158018D01*
X41669D01*
X75705Y193483D02*Y184579D01*
X60107D02*X75705D01*
X60107Y193483D02*Y184579D01*
Y193483D02*X75705D01*
Y204983D02*Y196079D01*
X60107D02*X75705D01*
X60107Y204983D02*Y196079D01*
Y204983D02*X75705D01*
G54D180*X24500Y181000D02*X34500D01*
Y221000D01*
X24500D01*
G54D178*Y211000D02*X34500D01*
G54D180*X24500Y221000D02*Y181000D01*
Y141000D02*X34500D01*
Y181000D01*
X24500D01*
G54D178*Y171000D02*X34500D01*
G54D180*X24500Y181000D02*Y141000D01*
G54D178*X60295Y166922D02*Y158018D01*
Y166922D02*X75893D01*
Y158018D01*
X60295D02*X75893D01*
X120915Y104939D02*Y96035D01*
Y104939D02*X136513D01*
Y96035D01*
X120915D02*X136513D01*
X147394Y116721D02*Y107817D01*
Y116721D02*X162992D01*
Y107817D01*
X147394D02*X162992D01*
X147295Y119517D02*Y128421D01*
X162893D01*
Y119517D01*
X147295D01*
X163005Y104983D02*Y96079D01*
X147407D02*X163005D01*
X147407Y104983D02*Y96079D01*
Y104983D02*X163005D01*
G54D181*X137521Y209379D02*X161379D01*
Y182621D01*
X134621D01*
Y206479D01*
X137521Y209379D01*
X136521Y206479D02*G75*G03X136521Y206479I1000J0D01*G01*
G54D178*X92000Y232000D02*Y142000D01*
X142000D01*
Y232000D02*X92000D01*
Y152000D02*X102000D01*
Y142000D02*Y152000D01*
X142000Y142000D02*Y232000D01*
X106017Y202205D02*X114921D01*
Y186607D01*
X106017D02*X114921D01*
X106017Y202205D02*Y186607D01*
G54D180*X151000Y225000D02*X161000D01*
G54D178*X151000Y235000D02*X161000D01*
G54D180*Y245000D02*Y225000D01*
X151000Y245000D02*Y225000D01*
Y245000D02*X161000D01*
G54D178*X69400Y240200D02*Y228700D01*
Y240200D02*X73000Y243800D01*
X75600D01*
Y228700D01*
X69400Y224300D02*Y209200D01*
X75600D01*
Y224300D02*Y209200D01*
X85500Y203500D02*X103500D01*
X85500Y159500D02*X103500D01*
X85500Y203500D02*Y159500D01*
X103500Y203500D02*Y159500D01*
X106078Y169795D02*X114982D01*
X106078Y185393D02*Y169795D01*
Y185393D02*X114982D01*
Y169795D01*
X105689Y126437D02*Y118563D01*
X129311Y126437D02*Y118563D01*
X109626Y134311D02*X125374D01*
X109626Y110689D02*X125374D01*
X117500Y129586D02*G75*G03X117500Y129586I0J-7086D01*G01*
X165361Y242626D02*X174265D01*
Y227028D01*
X165361D02*X174265D01*
X165361Y242626D02*Y227028D01*
G54D182*X189197Y203850D02*X190378Y202669D01*
X189000Y199716D02*Y197551D01*
X186441Y199716D02*Y197551D01*
X183882Y199716D02*Y197551D01*
Y206016D02*Y203850D01*
X186441Y206016D02*Y203850D01*
X189000Y206016D02*Y203850D01*
X182504Y199716D02*X190378D01*
X182504Y203850D02*Y199716D01*
X190378Y202669D02*Y199716D01*
X182504Y203850D02*X189197D01*
X189211Y229051D02*X190392Y227870D01*
X189014Y224917D02*Y222752D01*
X186455Y224917D02*Y222752D01*
X183896Y224917D02*Y222752D01*
Y231217D02*Y229051D01*
X186455Y231217D02*Y229051D01*
X189014Y231217D02*Y229051D01*
X182518Y224917D02*X190392D01*
X182518Y229051D02*Y224917D01*
X190392Y227870D02*Y224917D01*
X182518Y229051D02*X189211D01*
G54D178*X60169Y155421D02*Y146517D01*
Y155421D02*X75767D01*
Y146517D01*
X60169D02*X75767D01*
X78646Y119255D02*X88354D01*
X83500Y122250D02*Y119255D01*
X88354D02*Y99745D01*
X78646D02*X88354D01*
X83500D02*Y96750D01*
X78646Y119255D02*Y99745D01*
Y116255D02*X88354D01*
X78646Y115755D02*X88354D01*
X78646Y115255D02*X88354D01*
X102638Y104843D02*Y95939D01*
Y104843D02*X118236D01*
Y95939D01*
X102638D02*X118236D01*
X40228Y119281D02*X42228Y117281D01*
X40228Y119281D02*X44228D01*
X42228Y117281D02*X44228Y119281D01*
X42228Y123281D02*Y117281D01*
X16228Y123281D02*X42228D01*
X40228Y99281D02*X16228Y123281D01*
X48228Y118281D02*X51228Y115281D01*
X45228D02*X48228Y118281D01*
X36228Y115281D02*X45228D01*
X49228Y125281D02*X56228Y118281D01*
X49228Y129281D02*Y125281D01*
X31228Y129281D02*X49228D01*
X31228Y125281D02*X49228D01*
X59228Y136281D02*Y98281D01*
X12228Y136281D02*Y98281D01*
X2228D02*X59228D01*
X2228Y136281D02*X59228D01*
X2228D02*Y98281D01*
X29228Y127281D02*G75*G03X31228Y125281I2000J0D01*G01*
Y129281D02*G75*G03X29228Y127281I0J-2000D01*G01*
X95000Y91700D02*X136400D01*
X95000D02*Y63200D01*
X136400D01*
Y91700D02*Y63200D01*
G54D180*X84300Y26900D02*Y12050D01*
X78900Y26900D02*Y12050D01*
X73500Y26900D02*Y12050D01*
X68100Y26900D02*Y12050D01*
X62700Y26900D02*Y12050D01*
X57300Y26900D02*Y12050D01*
X51900Y26900D02*Y12050D01*
X46500Y26900D02*Y12050D01*
X41100Y26900D02*Y12050D01*
G54D178*X118150Y7050D02*Y2050D01*
X105650Y7050D02*Y2050D01*
X19750Y7050D02*Y2050D01*
X7250Y7050D02*Y2050D01*
G54D180*X94300Y12050D02*Y7550D01*
X31100Y12050D02*X94300D01*
X31100D02*Y7550D01*
G54D178*X123350Y51750D02*Y2050D01*
X2050D02*X123350D01*
X2050Y51750D02*Y2050D01*
Y51750D02*X123350D01*
X2050Y7050D02*X123350D01*
X64795Y70421D02*Y61517D01*
Y70421D02*X80393D01*
Y61517D01*
X64795D02*X80393D01*
X82579Y64169D02*X91483D01*
X82579Y79767D02*Y64169D01*
Y79767D02*X91483D01*
Y64169D01*
X80331Y81983D02*Y73079D01*
X64733D02*X80331D01*
X64733Y81983D02*Y73079D01*
Y81983D02*X80331D01*
G54D182*X189197Y183850D02*X190378Y182669D01*
X189000Y179716D02*Y177551D01*
X186441Y179716D02*Y177551D01*
X183882Y179716D02*Y177551D01*
Y186016D02*Y183850D01*
X186441Y186016D02*Y183850D01*
X189000Y186016D02*Y183850D01*
X182504Y179716D02*X190378D01*
X182504Y183850D02*Y179716D01*
X190378Y182669D02*Y179716D01*
X182504Y183850D02*X189197D01*
G54D180*X251000Y202000D02*Y192000D01*
G54D178*X241000Y202000D02*Y192000D01*
G54D180*X221000Y202000D02*X251000D01*
X221000D02*Y192000D01*
X251000D01*
Y182000D01*
G54D178*X241000Y192000D02*Y182000D01*
G54D180*X221000Y192000D02*X251000D01*
X221000D02*Y182000D01*
X251000D01*
Y212000D02*Y202000D01*
G54D178*X241000Y212000D02*Y202000D01*
G54D180*X221000Y212000D02*X251000D01*
X221000D02*Y202000D01*
X251000D01*
Y222000D02*Y212000D01*
G54D178*X241000Y222000D02*Y212000D01*
G54D180*X221000Y222000D02*X251000D01*
X221000D02*Y212000D01*
X251000D01*
G54D178*X201169Y201421D02*Y192517D01*
Y201421D02*X216767D01*
Y192517D01*
X201169D02*X216767D01*
X201200Y221500D02*Y212596D01*
Y221500D02*X216798D01*
Y212596D01*
X201200D02*X216798D01*
X201295Y211421D02*Y202517D01*
Y211421D02*X216893D01*
Y202517D01*
X201295D02*X216893D01*
X201200Y191500D02*Y182596D01*
Y191500D02*X216798D01*
Y182596D01*
X201200D02*X216798D01*
G54D180*X251000Y232000D02*Y222000D01*
G54D178*X241000Y232000D02*Y222000D01*
G54D180*X221000Y232000D02*X251000D01*
X221000D02*Y222000D01*
X251000D01*
G54D178*X201090Y231453D02*Y222549D01*
Y231453D02*X216688D01*
Y222549D01*
X201090D02*X216688D01*
X166338Y119539D02*Y128443D01*
X181936D01*
Y119539D01*
X166338D01*
X166095Y116822D02*Y107918D01*
Y116822D02*X181693D01*
Y107918D01*
X166095D02*X181693D01*
X197018Y94679D02*X205922D01*
X197018Y110277D02*Y94679D01*
Y110277D02*X205922D01*
Y94679D01*
X227200Y159350D02*X247000D01*
X250600Y155750D01*
Y136650D01*
X227200D02*X250600D01*
X199400Y159350D02*X222800D01*
X199400D02*Y136650D01*
X222800D01*
X153700Y148200D02*X167600D01*
X153700D02*X150100Y151800D01*
Y154400D02*Y151800D01*
Y154400D02*X167600D01*
X172000Y148200D02*X189500D01*
Y154400D02*Y148200D01*
X172000Y154400D02*X189500D01*
G54D180*X211020Y117760D02*Y107760D01*
X251020D01*
Y117760D02*Y107760D01*
G54D178*X241020Y117760D02*Y107760D01*
G54D180*X211020Y117760D02*X251020D01*
G54D178*X28843Y224931D02*Y223056D01*
X31593Y225556D02*Y223056D01*
X26593D02*X31593D01*
X26593Y225556D02*Y223056D01*
Y227056D02*X31593D01*
X26593D02*X31593Y230181D01*
X26593D02*X31593D01*
Y234181D02*Y232556D01*
X30718Y231681D02*X31593Y232556D01*
X27468Y231681D02*X30718D01*
X27468D02*X26593Y232556D01*
Y234181D02*Y232556D01*
Y235681D02*X31593D01*
Y238181D02*Y235681D01*
X134000Y221250D02*Y216250D01*
X136500D01*
X138625Y221250D02*Y216250D01*
X138000Y221250D02*X140500D01*
X141125Y220625D01*
Y219375D01*
X140500Y218750D02*X141125Y219375D01*
X138625Y218750D02*X140500D01*
X143500Y216250D02*X145125D01*
X142625Y217125D02*X143500Y216250D01*
X142625Y220375D02*Y217125D01*
Y220375D02*X143500Y221250D01*
X145125D01*
X146625Y220625D02*X147250Y221250D01*
X149125D01*
X149750Y220625D01*
Y219375D01*
X146625Y216250D02*X149750Y219375D01*
X146625Y216250D02*X149750D01*
X151250Y220250D02*X152250Y221250D01*
Y216250D01*
X151250D02*X153125D01*
X154625Y216875D02*X155250Y216250D01*
X154625Y220625D02*Y216875D01*
Y220625D02*X155250Y221250D01*
X156500D01*
X157125Y220625D01*
Y216875D01*
X156500Y216250D02*X157125Y216875D01*
X155250Y216250D02*X156500D01*
X154625Y217500D02*X157125Y220000D01*
X158625Y220250D02*X159625Y221250D01*
Y216250D01*
X158625D02*X160500D01*
X93493Y238696D02*Y233696D01*
Y238696D02*X95368Y236196D01*
X97243Y238696D01*
Y233696D01*
X99368Y238696D02*Y233696D01*
X98743Y238696D02*X101243D01*
X101868Y238071D01*
Y236821D01*
X101243Y236196D02*X101868Y236821D01*
X99368Y236196D02*X101243D01*
X103368Y238696D02*Y234321D01*
X103993Y233696D01*
X105243D01*
X105868Y234321D01*
Y238696D02*Y234321D01*
X150871Y252220D02*X152071D01*
X151471D02*Y247420D01*
X150871D02*X152071D01*
X155911Y252220D02*X156511Y251620D01*
X154111Y252220D02*X155911D01*
X153511Y251620D02*X154111Y252220D01*
X153511Y251620D02*Y250420D01*
X154111Y249820D01*
X155911D01*
X156511Y249220D01*
Y248020D01*
X155911Y247420D02*X156511Y248020D01*
X154111Y247420D02*X155911D01*
X153511Y248020D02*X154111Y247420D01*
X158551Y252220D02*Y247420D01*
X157951Y252220D02*X160351D01*
X160951Y251620D01*
Y250420D01*
X160351Y249820D02*X160951Y250420D01*
X158551Y249820D02*X160351D01*
X65608Y250412D02*Y246212D01*
X66208Y245612D01*
X67408D01*
X68008Y246212D01*
Y250412D02*Y246212D01*
X69448Y248252D02*X71248D01*
X69448Y245612D02*X71848D01*
X69448Y250412D02*Y245612D01*
Y250412D02*X71848D01*
X73288D02*Y245612D01*
Y250412D02*X76288Y245612D01*
Y250412D02*Y245612D01*
X78568D02*X80128D01*
X77728Y246452D02*X78568Y245612D01*
X77728Y249572D02*Y246452D01*
Y249572D02*X78568Y250412D01*
X80128D01*
X165482Y249438D02*X167982D01*
X168607Y248813D01*
Y247563D01*
X167982Y246938D02*X168607Y247563D01*
X166107Y246938D02*X167982D01*
X166107Y249438D02*Y244438D01*
X167107Y246938D02*X168607Y244438D01*
X170107Y248813D02*X170732Y249438D01*
X172607D01*
X173232Y248813D01*
Y247563D01*
X170107Y244438D02*X173232Y247563D01*
X170107Y244438D02*X173232D01*
X42942Y182790D02*X45442D01*
X46067Y182165D01*
Y180915D01*
X45442Y180290D02*X46067Y180915D01*
X43567Y180290D02*X45442D01*
X43567Y182790D02*Y177790D01*
X44567Y180290D02*X46067Y177790D01*
X48192D02*X50067Y180290D01*
Y182165D02*Y180290D01*
X49442Y182790D02*X50067Y182165D01*
X48192Y182790D02*X49442D01*
X47567Y182165D02*X48192Y182790D01*
X47567Y182165D02*Y180915D01*
X48192Y180290D01*
X50067D01*
X43000Y211347D02*X45500D01*
X46125Y210722D01*
Y209472D01*
X45500Y208847D02*X46125Y209472D01*
X43625Y208847D02*X45500D01*
X43625Y211347D02*Y206347D01*
X44625Y208847D02*X46125Y206347D01*
X47625Y206972D02*X48250Y206347D01*
X47625Y207972D02*Y206972D01*
Y207972D02*X48500Y208847D01*
X49250D01*
X50125Y207972D01*
Y206972D01*
X49500Y206347D02*X50125Y206972D01*
X48250Y206347D02*X49500D01*
X47625Y209722D02*X48500Y208847D01*
X47625Y210722D02*Y209722D01*
Y210722D02*X48250Y211347D01*
X49500D01*
X50125Y210722D01*
Y209722D01*
X49250Y208847D02*X50125Y209722D01*
X43031Y173329D02*X45531D01*
X46156Y172704D01*
Y171454D01*
X45531Y170829D02*X46156Y171454D01*
X43656Y170829D02*X45531D01*
X43656Y173329D02*Y168329D01*
X44656Y170829D02*X46156Y168329D01*
X47656Y172329D02*X48656Y173329D01*
Y168329D01*
X47656D02*X49531D01*
X51031Y172704D02*X51656Y173329D01*
X52906D01*
X53531Y172704D01*
X52906Y168329D02*X53531Y168954D01*
X51656Y168329D02*X52906D01*
X51031Y168954D02*X51656Y168329D01*
Y171079D02*X52906D01*
X53531Y172704D02*Y171704D01*
Y170454D02*Y168954D01*
Y170454D02*X52906Y171079D01*
X53531Y171704D02*X52906Y171079D01*
X29557Y125070D02*Y123195D01*
X32307Y125695D02*Y123195D01*
X27307D02*X32307D01*
X27307Y125695D02*Y123195D01*
Y127195D02*X32307D01*
X27307D02*X32307Y130320D01*
X27307D02*X32307D01*
Y134320D02*Y132695D01*
X31432Y131820D02*X32307Y132695D01*
X28182Y131820D02*X31432D01*
X28182D02*X27307Y132695D01*
Y134320D02*Y132695D01*
Y138320D02*Y135820D01*
Y138320D02*X27932Y138945D01*
X29182D01*
X29807Y138320D02*X29182Y138945D01*
X29807Y138320D02*Y136445D01*
X27307D02*X32307D01*
X29807Y137445D02*X32307Y138945D01*
X2950Y58250D02*Y53700D01*
X3600Y53050D01*
X4900D01*
X5550Y53700D01*
Y58250D02*Y53700D01*
X7110Y56950D02*Y53050D01*
Y56950D02*X8020Y58250D01*
X9450D01*
X10360Y56950D01*
Y53050D01*
X7110Y55650D02*X10360D01*
X11920Y58250D02*X14520D01*
X15170Y57600D01*
Y56300D01*
X14520Y55650D02*X15170Y56300D01*
X12570Y55650D02*X14520D01*
X12570Y58250D02*Y53050D01*
X13610Y55650D02*X15170Y53050D01*
X16730Y58250D02*X19330D01*
X18030D02*Y53050D01*
X20890Y57210D02*X21930Y58250D01*
Y53050D01*
X20890D02*X22840D01*
X2713Y96329D02*Y91329D01*
X2088Y96329D02*X4588D01*
X5213Y95704D01*
Y94454D01*
X4588Y93829D02*X5213Y94454D01*
X2713Y93829D02*X4588D01*
X6713Y96329D02*Y93829D01*
X7338Y91329D01*
X8588Y93829D01*
X9838Y91329D01*
X10463Y93829D01*
Y96329D02*Y93829D01*
X11963Y96329D02*X14463D01*
X15088Y95704D01*
Y94454D01*
X14463Y93829D02*X15088Y94454D01*
X12588Y93829D02*X14463D01*
X12588Y96329D02*Y91329D01*
X13588Y93829D02*X15088Y91329D01*
X43031Y144828D02*X45531D01*
X46156Y144203D01*
Y142953D01*
X45531Y142328D02*X46156Y142953D01*
X43656Y142328D02*X45531D01*
X43656Y144828D02*Y139828D01*
X44656Y142328D02*X46156Y139828D01*
X47656Y143828D02*X48656Y144828D01*
Y139828D01*
X47656D02*X49531D01*
X51031Y141703D02*X53531Y144828D01*
X51031Y141703D02*X54156D01*
X53531Y144828D02*Y139828D01*
X62906D02*X64531D01*
X62031Y140703D02*X62906Y139828D01*
X62031Y143953D02*Y140703D01*
Y143953D02*X62906Y144828D01*
X64531D01*
X66031Y143828D02*X67031Y144828D01*
Y139828D01*
X66031D02*X67906D01*
X71281Y144828D02*X71906Y144203D01*
X70031Y144828D02*X71281D01*
X69406Y144203D02*X70031Y144828D01*
X69406Y144203D02*Y140453D01*
X70031Y139828D01*
X71281Y142578D02*X71906Y141953D01*
X69406Y142578D02*X71281D01*
X70031Y139828D02*X71281D01*
X71906Y140453D01*
Y141953D02*Y140453D01*
X70870Y97604D02*Y92604D01*
X72495Y97604D02*X73370Y96729D01*
Y93479D01*
X72495Y92604D02*X73370Y93479D01*
X70245Y92604D02*X72495D01*
X70245Y97604D02*X72495D01*
X74870Y96979D02*X75495Y97604D01*
X77370D01*
X77995Y96979D01*
Y95729D01*
X74870Y92604D02*X77995Y95729D01*
X74870Y92604D02*X77995D01*
X95651Y97796D02*X97276D01*
X94776Y98671D02*X95651Y97796D01*
X94776Y101921D02*Y98671D01*
Y101921D02*X95651Y102796D01*
X97276D01*
X99401Y97796D02*X101276Y100296D01*
Y102171D02*Y100296D01*
X100651Y102796D02*X101276Y102171D01*
X99401Y102796D02*X100651D01*
X98776Y102171D02*X99401Y102796D01*
X98776Y102171D02*Y100921D01*
X99401Y100296D01*
X101276D01*
X93733Y114466D02*Y111966D01*
Y114466D02*X94358Y115091D01*
X95608D01*
X96233Y114466D02*X95608Y115091D01*
X96233Y114466D02*Y112591D01*
X93733D02*X98733D01*
X96233Y113591D02*X98733Y115091D01*
X95983Y118466D02*Y116591D01*
X98733Y119091D02*Y116591D01*
X93733D02*X98733D01*
X93733Y119091D02*Y116591D01*
Y123091D02*X94358Y123716D01*
X93733Y123091D02*Y121216D01*
X94358Y120591D02*X93733Y121216D01*
X94358Y120591D02*X95608D01*
X96233Y121216D01*
Y123091D02*Y121216D01*
Y123091D02*X96858Y123716D01*
X98108D01*
X98733Y123091D02*X98108Y123716D01*
X98733Y123091D02*Y121216D01*
X98108Y120591D02*X98733Y121216D01*
X95983Y127091D02*Y125216D01*
X98733Y127716D02*Y125216D01*
X93733D02*X98733D01*
X93733Y127716D02*Y125216D01*
Y131716D02*Y129216D01*
Y130466D02*X98733D01*
X82160Y199321D02*Y197696D01*
X81285Y196821D02*X82160Y197696D01*
X78035Y196821D02*X81285D01*
X78035D02*X77160Y197696D01*
Y199321D02*Y197696D01*
X80285Y200821D02*X77160Y203321D01*
X80285Y203946D02*Y200821D01*
X77160Y203321D02*X82160D01*
X62933Y177923D02*X64558D01*
X62058Y178798D02*X62933Y177923D01*
X62058Y182048D02*Y178798D01*
Y182048D02*X62933Y182923D01*
X64558D01*
X66058Y182298D02*X66683Y182923D01*
X67933D01*
X68558Y182298D01*
X67933Y177923D02*X68558Y178548D01*
X66683Y177923D02*X67933D01*
X66058Y178548D02*X66683Y177923D01*
Y180673D02*X67933D01*
X68558Y182298D02*Y181298D01*
Y180048D02*Y178548D01*
Y180048D02*X67933Y180673D01*
X68558Y181298D02*X67933Y180673D01*
X62997Y168579D02*X64557D01*
X62157Y169419D02*X62997Y168579D01*
X62157Y172539D02*Y169419D01*
Y172539D02*X62997Y173379D01*
X64557D01*
X65997Y172419D02*X66957Y173379D01*
Y168579D01*
X65997D02*X67797D01*
X69237Y173379D02*X71637D01*
X69237D02*Y170979D01*
X69837Y171579D01*
X71037D01*
X71637Y170979D01*
Y169179D01*
X71037Y168579D02*X71637Y169179D01*
X69837Y168579D02*X71037D01*
X69237Y169179D02*X69837Y168579D01*
X79038Y160000D02*X83413D01*
X84038Y160625D01*
Y161875D02*Y160625D01*
Y161875D02*X83413Y162500D01*
X79038D02*X83413D01*
X80038Y164000D02*X79038Y165000D01*
X84038D01*
Y165875D02*Y164000D01*
X82163Y167375D02*X79038Y169875D01*
X82163Y170500D02*Y167375D01*
X79038Y169875D02*X84038D01*
X79038Y172000D02*X84038D01*
X79038D02*X81538Y173875D01*
X79038Y175750D01*
X84038D01*
X79038Y177250D02*X84038D01*
X79038Y180375D02*X84038D01*
X81538D02*Y177250D01*
X108294Y204051D02*X109919D01*
X107419Y204926D02*X108294Y204051D01*
X107419Y208176D02*Y204926D01*
Y208176D02*X108294Y209051D01*
X109919D01*
X111419Y208051D02*X112419Y209051D01*
Y204051D01*
X111419D02*X113294D01*
X108303Y162894D02*X109928D01*
X107428Y163769D02*X108303Y162894D01*
X107428Y167019D02*Y163769D01*
Y167019D02*X108303Y167894D01*
X109928D01*
X111428Y167269D02*X112053Y167894D01*
X113928D01*
X114553Y167269D01*
Y166019D01*
X111428Y162894D02*X114553Y166019D01*
X111428Y162894D02*X114553D01*
X108600Y61550D02*Y57175D01*
X109225Y56550D01*
X110475D01*
X111100Y57175D01*
Y61550D02*Y57175D01*
X112600Y60550D02*X113600Y61550D01*
Y56550D01*
X112600D02*X114475D01*
X115975Y61550D02*X117225Y56550D01*
X118475Y61550D01*
X119975Y57175D02*X120600Y56550D01*
X119975Y58175D02*Y57175D01*
Y58175D02*X120850Y59050D01*
X121600D01*
X122475Y58175D01*
Y57175D01*
X121850Y56550D02*X122475Y57175D01*
X120600Y56550D02*X121850D01*
X119975Y59925D02*X120850Y59050D01*
X119975Y60925D02*Y59925D01*
Y60925D02*X120600Y61550D01*
X121850D01*
X122475Y60925D01*
Y59925D01*
X121600Y59050D02*X122475Y59925D01*
X54032Y63328D02*X55657D01*
X53157Y64203D02*X54032Y63328D01*
X53157Y67453D02*Y64203D01*
Y67453D02*X54032Y68328D01*
X55657D01*
X57157Y67328D02*X58157Y68328D01*
Y63328D01*
X57157D02*X59032D01*
X60532Y63953D02*X61157Y63328D01*
X60532Y67703D02*Y63953D01*
Y67703D02*X61157Y68328D01*
X62407D01*
X63032Y67703D01*
Y63953D01*
X62407Y63328D02*X63032Y63953D01*
X61157Y63328D02*X62407D01*
X60532Y64578D02*X63032Y67078D01*
X82282Y62576D02*X84782D01*
X85407Y61951D01*
Y60701D01*
X84782Y60076D02*X85407Y60701D01*
X82907Y60076D02*X84782D01*
X82907Y62576D02*Y57576D01*
X83907Y60076D02*X85407Y57576D01*
X86907Y61576D02*X87907Y62576D01*
Y57576D01*
X86907D02*X88782D01*
X90282Y58201D02*X90907Y57576D01*
X90282Y61951D02*Y58201D01*
Y61951D02*X90907Y62576D01*
X92157D01*
X92782Y61951D01*
Y58201D01*
X92157Y57576D02*X92782Y58201D01*
X90907Y57576D02*X92157D01*
X90282Y58826D02*X92782Y61326D01*
X57156Y79829D02*Y74829D01*
X58781Y79829D02*X59656Y78954D01*
Y75704D01*
X58781Y74829D02*X59656Y75704D01*
X56531Y74829D02*X58781D01*
X56531Y79829D02*X58781D01*
X61156Y78829D02*X62156Y79829D01*
Y74829D01*
X61156D02*X63031D01*
X137820Y103250D02*X140320D01*
X140945Y102625D01*
Y101375D01*
X140320Y100750D02*X140945Y101375D01*
X138445Y100750D02*X140320D01*
X138445Y103250D02*Y98250D01*
X139445Y100750D02*X140945Y98250D01*
X142445Y102250D02*X143445Y103250D01*
Y98250D01*
X142445D02*X144320D01*
X139631Y109628D02*X141256D01*
X138756Y110503D02*X139631Y109628D01*
X138756Y113753D02*Y110503D01*
Y113753D02*X139631Y114628D01*
X141256D01*
X143381Y109628D02*X145881Y114628D01*
X142756D02*X145881D01*
X140032Y121328D02*X141657D01*
X139157Y122203D02*X140032Y121328D01*
X139157Y125453D02*Y122203D01*
Y125453D02*X140032Y126328D01*
X141657D01*
X145032D02*X145657Y125703D01*
X143782Y126328D02*X145032D01*
X143157Y125703D02*X143782Y126328D01*
X143157Y125703D02*Y121953D01*
X143782Y121328D01*
X145032Y124078D02*X145657Y123453D01*
X143157Y124078D02*X145032D01*
X143782Y121328D02*X145032D01*
X145657Y121953D01*
Y123453D02*Y121953D01*
X251550Y58500D02*Y54125D01*
X252175Y53500D01*
X253425D01*
X254050Y54125D01*
Y58500D02*Y54125D01*
X255550Y57250D02*Y53500D01*
Y57250D02*X256425Y58500D01*
X257800D01*
X258675Y57250D01*
Y53500D01*
X255550Y56000D02*X258675D01*
X260175Y58500D02*X262675D01*
X263300Y57875D01*
Y56625D01*
X262675Y56000D02*X263300Y56625D01*
X260800Y56000D02*X262675D01*
X260800Y58500D02*Y53500D01*
X261800Y56000D02*X263300Y53500D01*
X264800Y58500D02*X267300D01*
X266050D02*Y53500D01*
X268800Y57875D02*X269425Y58500D01*
X271300D01*
X271925Y57875D01*
Y56625D01*
X268800Y53500D02*X271925Y56625D01*
X268800Y53500D02*X271925D01*
X209420Y62030D02*Y57655D01*
X210045Y57030D01*
X211295D01*
X211920Y57655D01*
Y62030D02*Y57655D01*
X213420Y62030D02*X215920D01*
X213420D02*Y59530D01*
X214045Y60155D01*
X215295D01*
X215920Y59530D01*
Y57655D01*
X215295Y57030D02*X215920Y57655D01*
X214045Y57030D02*X215295D01*
X213420Y57655D02*X214045Y57030D01*
X217420Y62030D02*X218670Y57030D01*
X219920Y62030D01*
X158600Y61600D02*Y57400D01*
X159200Y56800D01*
X160400D01*
X161000Y57400D01*
Y61600D02*Y57400D01*
X162440Y61000D02*X163040Y61600D01*
X164240D01*
X164840Y61000D01*
X164240Y56800D02*X164840Y57400D01*
X163040Y56800D02*X164240D01*
X162440Y57400D02*X163040Y56800D01*
Y59440D02*X164240D01*
X164840Y61000D02*Y60040D01*
Y58840D02*Y57400D01*
Y58840D02*X164240Y59440D01*
X164840Y60040D02*X164240Y59440D01*
X166280Y61600D02*X167480Y56800D01*
X168680Y61600D01*
X170120Y61000D02*X170720Y61600D01*
X171920D01*
X172520Y61000D01*
X171920Y56800D02*X172520Y57400D01*
X170720Y56800D02*X171920D01*
X170120Y57400D02*X170720Y56800D01*
Y59440D02*X171920D01*
X172520Y61000D02*Y60040D01*
Y58840D02*Y57400D01*
Y58840D02*X171920Y59440D01*
X172520Y60040D02*X171920Y59440D01*
X184075Y121350D02*X185700D01*
X183200Y122225D02*X184075Y121350D01*
X183200Y125475D02*Y122225D01*
Y125475D02*X184075Y126350D01*
X185700D01*
X187200D02*X189700D01*
X187200D02*Y123850D01*
X187825Y124475D01*
X189075D01*
X189700Y123850D01*
Y121975D01*
X189075Y121350D02*X189700Y121975D01*
X187825Y121350D02*X189075D01*
X187200Y121975D02*X187825Y121350D01*
X183915Y109750D02*X185540D01*
X183040Y110625D02*X183915Y109750D01*
X183040Y113875D02*Y110625D01*
Y113875D02*X183915Y114750D01*
X185540D01*
X187040Y110375D02*X187665Y109750D01*
X187040Y111375D02*Y110375D01*
Y111375D02*X187915Y112250D01*
X188665D01*
X189540Y111375D01*
Y110375D01*
X188915Y109750D02*X189540Y110375D01*
X187665Y109750D02*X188915D01*
X187040Y113125D02*X187915Y112250D01*
X187040Y114125D02*Y113125D01*
Y114125D02*X187665Y114750D01*
X188915D01*
X189540Y114125D01*
Y113125D01*
X188665Y112250D02*X189540Y113125D01*
X186746Y95839D02*X188371D01*
X185871Y96714D02*X186746Y95839D01*
X185871Y99964D02*Y96714D01*
Y99964D02*X186746Y100839D01*
X188371D01*
X189871Y99839D02*X190871Y100839D01*
Y95839D01*
X189871D02*X191746D01*
X193246Y100214D02*X193871Y100839D01*
X195121D01*
X195746Y100214D01*
X195121Y95839D02*X195746Y96464D01*
X193871Y95839D02*X195121D01*
X193246Y96464D02*X193871Y95839D01*
Y98589D02*X195121D01*
X195746Y100214D02*Y99214D01*
Y97964D02*Y96464D01*
Y97964D02*X195121Y98589D01*
X195746Y99214D02*X195121Y98589D01*
X165375Y98077D02*X167000D01*
X164500Y98952D02*X165375Y98077D01*
X164500Y102202D02*Y98952D01*
Y102202D02*X165375Y103077D01*
X167000D01*
X168500Y102077D02*X169500Y103077D01*
Y98077D01*
X168500D02*X170375D01*
X171875Y102077D02*X172875Y103077D01*
Y98077D01*
X171875D02*X173750D01*
X217040Y124670D02*Y119670D01*
X220165Y124670D02*Y119670D01*
X217040Y122170D02*X220165D01*
X221665Y119670D02*X224165D01*
X224790Y120295D01*
Y121795D02*Y120295D01*
X224165Y122420D02*X224790Y121795D01*
X222290Y122420D02*X224165D01*
X222290Y124670D02*Y119670D01*
X221665Y124670D02*X224165D01*
X224790Y124045D01*
Y123045D01*
X224165Y122420D02*X224790Y123045D01*
X226290Y124670D02*X228790D01*
X229415Y124045D01*
Y122795D01*
X228790Y122170D02*X229415Y122795D01*
X226915Y122170D02*X228790D01*
X226915Y124670D02*Y119670D01*
X227915Y122170D02*X229415Y119670D01*
X230915Y124670D02*X232165D01*
X231540D02*Y119670D01*
X230915D02*X232165D01*
X234290Y124670D02*Y119670D01*
X235915Y124670D02*X236790Y123795D01*
Y120545D01*
X235915Y119670D02*X236790Y120545D01*
X233665Y119670D02*X235915D01*
X233665Y124670D02*X235915D01*
X240790D02*X241415Y124045D01*
X238915Y124670D02*X240790D01*
X238290Y124045D02*X238915Y124670D01*
X238290Y124045D02*Y120295D01*
X238915Y119670D01*
X240790D01*
X241415Y120295D01*
Y121545D02*Y120295D01*
X240790Y122170D02*X241415Y121545D01*
X239540Y122170D02*X240790D01*
X242915Y122420D02*X244790D01*
X242915Y119670D02*X245415D01*
X242915Y124670D02*Y119670D01*
Y124670D02*X245415D01*
X201781Y177202D02*Y172827D01*
X202406Y172202D01*
X203656D01*
X204281Y172827D01*
Y177202D02*Y172827D01*
X206406Y177202D02*Y172202D01*
X205781Y177202D02*X208281D01*
X208906Y176577D01*
Y175327D01*
X208281Y174702D02*X208906Y175327D01*
X206406Y174702D02*X208281D01*
X210406Y177202D02*Y174702D01*
X211031Y172202D01*
X212281Y174702D01*
X213531Y172202D01*
X214156Y174702D01*
Y177202D02*Y174702D01*
X215656Y177202D02*Y172202D01*
Y177202D02*X217531Y174702D01*
X219406Y177202D01*
Y172202D01*
X176210Y181535D02*Y178410D01*
X181210D02*X176210Y181535D01*
X181210D02*Y178410D01*
X176210Y185535D02*Y183035D01*
X178710D01*
X178085Y183660D01*
Y184910D02*Y183660D01*
Y184910D02*X178710Y185535D01*
X180585D01*
X181210Y184910D02*X180585Y185535D01*
X181210Y184910D02*Y183660D01*
X180585Y183035D02*X181210Y183660D01*
X176229Y199066D02*Y195941D01*
X181229D02*X176229Y199066D01*
X181229D02*Y195941D01*
X176854Y200566D02*X176229Y201191D01*
Y202441D02*Y201191D01*
Y202441D02*X176854Y203066D01*
X181229Y202441D02*X180604Y203066D01*
X181229Y202441D02*Y201191D01*
X180604Y200566D02*X181229Y201191D01*
X178479Y202441D02*Y201191D01*
X176854Y203066D02*X177854D01*
X179104D02*X180604D01*
X179104D02*X178479Y202441D01*
X177854Y203066D02*X178479Y202441D01*
X179354Y204566D02*X176229Y207066D01*
X179354Y207691D02*Y204566D01*
X176229Y207066D02*X181229D01*
X192531Y199328D02*X195031D01*
X195656Y198703D01*
Y197453D01*
X195031Y196828D02*X195656Y197453D01*
X193156Y196828D02*X195031D01*
X193156Y199328D02*Y194328D01*
X194156Y196828D02*X195656Y194328D01*
X199031Y199328D02*X199656Y198703D01*
X197781Y199328D02*X199031D01*
X197156Y198703D02*X197781Y199328D01*
X197156Y198703D02*Y194953D01*
X197781Y194328D01*
X199031Y197078D02*X199656Y196453D01*
X197156Y197078D02*X199031D01*
X197781Y194328D02*X199031D01*
X199656Y194953D01*
Y196453D02*Y194953D01*
X192062Y189407D02*X194562D01*
X195187Y188782D01*
Y187532D01*
X194562Y186907D02*X195187Y187532D01*
X192687Y186907D02*X194562D01*
X192687Y189407D02*Y184407D01*
X193687Y186907D02*X195187Y184407D01*
X197312D02*X199812Y189407D01*
X196687D02*X199812D01*
X151882Y171790D02*Y166790D01*
Y171790D02*X153757Y169290D01*
X155632Y171790D01*
Y166790D01*
X157132Y170540D02*Y166790D01*
Y170540D02*X158007Y171790D01*
X159382D01*
X160257Y170540D01*
Y166790D01*
X157132Y169290D02*X160257D01*
X161757Y166790D02*X164882Y171790D01*
X161757D02*X164882Y166790D01*
X166382Y171165D02*X167007Y171790D01*
X168257D01*
X168882Y171165D01*
X168257Y166790D02*X168882Y167415D01*
X167007Y166790D02*X168257D01*
X166382Y167415D02*X167007Y166790D01*
Y169540D02*X168257D01*
X168882Y171165D02*Y170165D01*
Y168915D02*Y167415D01*
Y168915D02*X168257Y169540D01*
X168882Y170165D02*X168257Y169540D01*
X170382Y171165D02*X171007Y171790D01*
X172882D01*
X173507Y171165D01*
Y169915D01*
X170382Y166790D02*X173507Y169915D01*
X170382Y166790D02*X173507D01*
X175007Y171165D02*X175632Y171790D01*
X176882D01*
X177507Y171165D01*
X176882Y166790D02*X177507Y167415D01*
X175632Y166790D02*X176882D01*
X175007Y167415D02*X175632Y166790D01*
Y169540D02*X176882D01*
X177507Y171165D02*Y170165D01*
Y168915D02*Y167415D01*
Y168915D02*X176882Y169540D01*
X177507Y170165D02*X176882Y169540D01*
X179007Y171165D02*X179632Y171790D01*
X181507D01*
X182132Y171165D01*
Y169915D01*
X179007Y166790D02*X182132Y169915D01*
X179007Y166790D02*X182132D01*
X254600Y199550D02*X255850D01*
X255225D02*Y194550D01*
X254600D02*X255850D01*
X257350Y199550D02*X259850D01*
X260475Y198925D01*
Y197675D01*
X259850Y197050D02*X260475Y197675D01*
X257975Y197050D02*X259850D01*
X257975Y199550D02*Y194550D01*
X258975Y197050D02*X260475Y194550D01*
X261975Y199550D02*Y194550D01*
Y199550D02*X263850Y197050D01*
X265725Y199550D01*
Y194550D01*
X267225Y199550D02*Y194550D01*
X269725D01*
X254100Y229550D02*X255350D01*
X254725D02*Y224550D01*
X254100D02*X255350D01*
X256850Y229550D02*X259350D01*
X259975Y228925D01*
Y227675D01*
X259350Y227050D02*X259975Y227675D01*
X257475Y227050D02*X259350D01*
X257475Y229550D02*Y224550D01*
X258475Y227050D02*X259975Y224550D01*
X261475Y229550D02*X263975D01*
X264600Y228925D01*
Y227675D01*
X263975Y227050D02*X264600Y227675D01*
X262100Y227050D02*X263975D01*
X262100Y229550D02*Y224550D01*
X263100Y227050D02*X264600Y224550D01*
X254600Y189550D02*X255850D01*
X255225D02*Y184550D01*
X254600D02*X255850D01*
X257350Y189550D02*X259850D01*
X260475Y188925D01*
Y187675D01*
X259850Y187050D02*X260475Y187675D01*
X257975Y187050D02*X259850D01*
X257975Y189550D02*Y184550D01*
X258975Y187050D02*X260475Y184550D01*
X261975Y189550D02*Y184550D01*
X264475D01*
X254100Y209550D02*X255350D01*
X254725D02*Y204550D01*
X254100D02*X255350D01*
X256850Y209550D02*X259350D01*
X259975Y208925D01*
Y207675D01*
X259350Y207050D02*X259975Y207675D01*
X257475Y207050D02*X259350D01*
X257475Y209550D02*Y204550D01*
X258475Y207050D02*X259975Y204550D01*
X261475Y209550D02*Y204550D01*
Y209550D02*X263350Y207050D01*
X265225Y209550D01*
Y204550D01*
X254100Y219550D02*X255350D01*
X254725D02*Y214550D01*
X254100D02*X255350D01*
X256850Y219550D02*X259350D01*
X259975Y218925D01*
Y217675D01*
X259350Y217050D02*X259975Y217675D01*
X257475Y217050D02*X259350D01*
X257475Y219550D02*Y214550D01*
X258475Y217050D02*X259975Y214550D01*
X261475Y219550D02*Y214550D01*
Y219550D02*X263350Y217050D01*
X265225Y219550D01*
Y214550D01*
X266725Y219550D02*X269225D01*
X269850Y218925D01*
Y217675D01*
X269225Y217050D02*X269850Y217675D01*
X267350Y217050D02*X269225D01*
X267350Y219550D02*Y214550D01*
X268350Y217050D02*X269850Y214550D01*
X192452Y229360D02*X194952D01*
X195577Y228735D01*
Y227485D01*
X194952Y226860D02*X195577Y227485D01*
X193077Y226860D02*X194952D01*
X193077Y229360D02*Y224360D01*
X194077Y226860D02*X195577Y224360D01*
X197077Y228735D02*X197702Y229360D01*
X198952D01*
X199577Y228735D01*
X198952Y224360D02*X199577Y224985D01*
X197702Y224360D02*X198952D01*
X197077Y224985D02*X197702Y224360D01*
Y227110D02*X198952D01*
X199577Y228735D02*Y227735D01*
Y226485D02*Y224985D01*
Y226485D02*X198952Y227110D01*
X199577Y227735D02*X198952Y227110D01*
X176264Y223846D02*Y220721D01*
X181264D02*X176264Y223846D01*
X181264D02*Y220721D01*
X177264Y225346D02*X176264Y226346D01*
X181264D01*
Y227221D02*Y225346D01*
X176889Y228721D02*X176264Y229346D01*
Y231221D02*Y229346D01*
Y231221D02*X176889Y231846D01*
X178139D01*
X181264Y228721D02*X178139Y231846D01*
X181264D02*Y228721D01*
X192062Y219407D02*X194562D01*
X195187Y218782D01*
Y217532D01*
X194562Y216907D02*X195187Y217532D01*
X192687Y216907D02*X194562D01*
X192687Y219407D02*Y214407D01*
X193687Y216907D02*X195187Y214407D01*
X196687Y216282D02*X199187Y219407D01*
X196687Y216282D02*X199812D01*
X199187Y219407D02*Y214407D01*
X192657Y209328D02*X195157D01*
X195782Y208703D01*
Y207453D01*
X195157Y206828D02*X195782Y207453D01*
X193282Y206828D02*X195157D01*
X193282Y209328D02*Y204328D01*
X194282Y206828D02*X195782Y204328D01*
X197282Y209328D02*X199782D01*
X197282D02*Y206828D01*
X197907Y207453D01*
X199157D01*
X199782Y206828D01*
Y204953D01*
X199157Y204328D02*X199782Y204953D01*
X197907Y204328D02*X199157D01*
X197282Y204953D02*X197907Y204328D01*
M02*
