G04 start of page 11 for group -3984 idx -3984 *
G04 Title: (unknown), fab *
G04 Creator: pcb 20110918 *
G04 CreationDate: Mon 01 Apr 2013 04:29:38 PM GMT UTC *
G04 For: telmo *
G04 Format: Gerber/RS-274X *
G04 PCB-Dimensions: 275000 278000 *
G04 PCB-Coordinate-Origin: lower left *
%MOIN*%
%FSLAX25Y25*%
%LNFAB*%
%ADD194C,0.0100*%
%ADD193C,0.0075*%
%ADD192C,0.0060*%
%ADD191R,0.0080X0.0080*%
%ADD190C,0.0001*%
G54D190*G36*
X22600Y255966D02*X27966Y250600D01*
X27400Y250034D01*
X22034Y255400D01*
X22600Y255966D01*
G37*
G36*
X22034Y250600D02*X27400Y255966D01*
X27966Y255400D01*
X22600Y250034D01*
X22034Y250600D01*
G37*
G54D191*X23400Y254600D02*X26600D01*
X23400D02*Y251400D01*
X26600D01*
Y254600D02*Y251400D01*
G54D190*G36*
X247600Y79466D02*X252966Y74100D01*
X252400Y73534D01*
X247034Y78900D01*
X247600Y79466D01*
G37*
G36*
X247034Y74100D02*X252400Y79466D01*
X252966Y78900D01*
X247600Y73534D01*
X247034Y74100D01*
G37*
G54D191*X248400Y78100D02*X251600D01*
X248400D02*Y74900D01*
X251600D01*
Y78100D02*Y74900D01*
G54D190*G36*
X22600Y79466D02*X27966Y74100D01*
X27400Y73534D01*
X22034Y78900D01*
X22600Y79466D01*
G37*
G36*
X22034Y74100D02*X27400Y79466D01*
X27966Y78900D01*
X22600Y73534D01*
X22034Y74100D01*
G37*
G54D191*X23400Y78100D02*X26600D01*
X23400D02*Y74900D01*
X26600D01*
Y78100D02*Y74900D01*
G54D190*G36*
X247600Y255966D02*X252966Y250600D01*
X252400Y250034D01*
X247034Y255400D01*
X247600Y255966D01*
G37*
G36*
X247034Y250600D02*X252400Y255966D01*
X252966Y255400D01*
X247600Y250034D01*
X247034Y250600D01*
G37*
G54D191*X248400Y254600D02*X251600D01*
X248400D02*Y251400D01*
X251600D01*
Y254600D02*Y251400D01*
G54D190*G36*
X12600Y292216D02*X17966Y286850D01*
X17400Y286284D01*
X12034Y291650D01*
X12600Y292216D01*
G37*
G36*
X12034Y286850D02*X17400Y292216D01*
X17966Y291650D01*
X12600Y286284D01*
X12034Y286850D01*
G37*
G54D191*X13400Y290850D02*X16600D01*
X13400D02*Y287650D01*
X16600D01*
Y290850D02*Y287650D01*
G54D192*X135000Y291500D02*X136500Y288500D01*
X138000Y291500D01*
X136500Y288500D02*Y285500D01*
X139800Y288800D02*X142050D01*
X139800Y285500D02*X142800D01*
X139800Y291500D02*Y285500D01*
Y291500D02*X142800D01*
X147600D02*X148350Y290750D01*
X145350Y291500D02*X147600D01*
X144600Y290750D02*X145350Y291500D01*
X144600Y290750D02*Y289250D01*
X145350Y288500D01*
X147600D01*
X148350Y287750D01*
Y286250D01*
X147600Y285500D02*X148350Y286250D01*
X145350Y285500D02*X147600D01*
X144600Y286250D02*X145350Y285500D01*
X98000Y287750D02*X101000Y291500D01*
X98000Y287750D02*X101750D01*
X101000Y291500D02*Y285500D01*
X45000Y286250D02*X45750Y285500D01*
X45000Y290750D02*Y286250D01*
Y290750D02*X45750Y291500D01*
X47250D01*
X48000Y290750D01*
Y286250D01*
X47250Y285500D02*X48000Y286250D01*
X45750Y285500D02*X47250D01*
X45000Y287000D02*X48000Y290000D01*
X49800Y285500D02*X50550D01*
X52350Y290300D02*X53550Y291500D01*
Y285500D01*
X52350D02*X54600D01*
X57150D02*X59400Y288500D01*
Y290750D02*Y288500D01*
X58650Y291500D02*X59400Y290750D01*
X57150Y291500D02*X58650D01*
X56400Y290750D02*X57150Y291500D01*
X56400Y290750D02*Y289250D01*
X57150Y288500D01*
X59400D01*
X61950Y285500D02*X64950Y291500D01*
X61200D02*X64950D01*
X261500Y42700D02*Y36300D01*
X258300Y39500D02*X264700D01*
X259900Y41100D02*X263100D01*
X259900D02*Y37900D01*
X263100D01*
Y41100D02*Y37900D01*
X163100Y42700D02*Y36300D01*
X159900Y39500D02*X166300D01*
X161500Y41100D02*X164700D01*
X161500D02*Y37900D01*
X164700D01*
Y41100D02*Y37900D01*
X111900Y42700D02*Y36300D01*
X108700Y39500D02*X115100D01*
X110300Y41100D02*X113500D01*
X110300D02*Y37900D01*
X113500D01*
Y41100D02*Y37900D01*
X13500Y42700D02*Y36300D01*
X10300Y39500D02*X16700D01*
X11900Y41100D02*X15100D01*
X11900D02*Y37900D01*
X15100D01*
Y41100D02*Y37900D01*
X15000Y307450D02*Y301050D01*
X11800Y304250D02*X18200D01*
X13400Y305850D02*X16600D01*
X13400D02*Y302650D01*
X16600D01*
Y305850D02*Y302650D01*
X135000Y306500D02*X136500Y303500D01*
X138000Y306500D01*
X136500Y303500D02*Y300500D01*
X139800Y303800D02*X142050D01*
X139800Y300500D02*X142800D01*
X139800Y306500D02*Y300500D01*
Y306500D02*X142800D01*
X147600D02*X148350Y305750D01*
X145350Y306500D02*X147600D01*
X144600Y305750D02*X145350Y306500D01*
X144600Y305750D02*Y304250D01*
X145350Y303500D01*
X147600D01*
X148350Y302750D01*
Y301250D01*
X147600Y300500D02*X148350Y301250D01*
X145350Y300500D02*X147600D01*
X144600Y301250D02*X145350Y300500D01*
X98000Y302750D02*X101000Y306500D01*
X98000Y302750D02*X101750D01*
X101000Y306500D02*Y300500D01*
X45000Y301250D02*X45750Y300500D01*
X45000Y305750D02*Y301250D01*
Y305750D02*X45750Y306500D01*
X47250D01*
X48000Y305750D01*
Y301250D01*
X47250Y300500D02*X48000Y301250D01*
X45750Y300500D02*X47250D01*
X45000Y302000D02*X48000Y305000D01*
X49800Y300500D02*X50550D01*
X52350Y305300D02*X53550Y306500D01*
Y300500D01*
X52350D02*X54600D01*
X56400Y305750D02*X57150Y306500D01*
X59400D01*
X60150Y305750D01*
Y304250D01*
X56400Y300500D02*X60150Y304250D01*
X56400Y300500D02*X60150D01*
X61950Y306500D02*X64950D01*
X61950D02*Y303500D01*
X62700Y304250D01*
X64200D01*
X64950Y303500D01*
Y301250D01*
X64200Y300500D02*X64950Y301250D01*
X62700Y300500D02*X64200D01*
X61950Y301250D02*X62700Y300500D01*
X44228Y98281D02*Y95081D01*
Y98281D02*X47001Y99881D01*
X44228Y98281D02*X41455Y99881D01*
X42628Y98281D02*G75*G03X45828Y98281I1600J0D01*G01*
G75*G03X42628Y98281I-1600J0D01*G01*
X32228Y117281D02*Y114081D01*
Y117281D02*X35001Y118881D01*
X32228Y117281D02*X29455Y118881D01*
X30628Y117281D02*G75*G03X33828Y117281I1600J0D01*G01*
G75*G03X30628Y117281I-1600J0D01*G01*
X56228D02*Y114081D01*
Y117281D02*X59001Y118881D01*
X56228Y117281D02*X53455Y118881D01*
X54628Y117281D02*G75*G03X57828Y117281I1600J0D01*G01*
G75*G03X54628Y117281I-1600J0D01*G01*
X15000Y319250D02*Y316050D01*
Y319250D02*X17773Y320850D01*
X15000Y319250D02*X12227Y320850D01*
X13400Y319250D02*G75*G03X16600Y319250I1600J0D01*G01*
G75*G03X13400Y319250I-1600J0D01*G01*
X135000Y321500D02*X136500Y318500D01*
X138000Y321500D01*
X136500Y318500D02*Y315500D01*
X139800Y318800D02*X142050D01*
X139800Y315500D02*X142800D01*
X139800Y321500D02*Y315500D01*
Y321500D02*X142800D01*
X147600D02*X148350Y320750D01*
X145350Y321500D02*X147600D01*
X144600Y320750D02*X145350Y321500D01*
X144600Y320750D02*Y319250D01*
X145350Y318500D01*
X147600D01*
X148350Y317750D01*
Y316250D01*
X147600Y315500D02*X148350Y316250D01*
X145350Y315500D02*X147600D01*
X144600Y316250D02*X145350Y315500D01*
X98000Y320750D02*X98750Y321500D01*
X100250D01*
X101000Y320750D01*
X100250Y315500D02*X101000Y316250D01*
X98750Y315500D02*X100250D01*
X98000Y316250D02*X98750Y315500D01*
Y318800D02*X100250D01*
X101000Y320750D02*Y319550D01*
Y318050D02*Y316250D01*
Y318050D02*X100250Y318800D01*
X101000Y319550D02*X100250Y318800D01*
X45000Y316250D02*X45750Y315500D01*
X45000Y320750D02*Y316250D01*
Y320750D02*X45750Y321500D01*
X47250D01*
X48000Y320750D01*
Y316250D01*
X47250Y315500D02*X48000Y316250D01*
X45750Y315500D02*X47250D01*
X45000Y317000D02*X48000Y320000D01*
X49800Y315500D02*X50550D01*
X52350Y316250D02*X53100Y315500D01*
X52350Y320750D02*Y316250D01*
Y320750D02*X53100Y321500D01*
X54600D01*
X55350Y320750D01*
Y316250D01*
X54600Y315500D02*X55350Y316250D01*
X53100Y315500D02*X54600D01*
X52350Y317000D02*X55350Y320000D01*
X59400Y321500D02*X60150Y320750D01*
X57900Y321500D02*X59400D01*
X57150Y320750D02*X57900Y321500D01*
X57150Y320750D02*Y316250D01*
X57900Y315500D01*
X59400Y318800D02*X60150Y318050D01*
X57150Y318800D02*X59400D01*
X57900Y315500D02*X59400D01*
X60150Y316250D01*
Y318050D02*Y316250D01*
X61950Y317750D02*X64950Y321500D01*
X61950Y317750D02*X65700D01*
X64950Y321500D02*Y315500D01*
X232300Y46700D02*X235500D01*
X232300D02*Y43500D01*
X235500D01*
Y46700D02*Y43500D01*
X221500Y46700D02*X224700D01*
X221500D02*Y43500D01*
X224700D01*
Y46700D02*Y43500D01*
X210700Y46700D02*X213900D01*
X210700D02*Y43500D01*
X213900D01*
Y46700D02*Y43500D01*
X199900Y46700D02*X203100D01*
X199900D02*Y43500D01*
X203100D01*
Y46700D02*Y43500D01*
X189100Y46700D02*X192300D01*
X189100D02*Y43500D01*
X192300D01*
Y46700D02*Y43500D01*
X226900Y35500D02*X230100D01*
X226900D02*Y32300D01*
X230100D01*
Y35500D02*Y32300D01*
X216100Y35500D02*X219300D01*
X216100D02*Y32300D01*
X219300D01*
Y35500D02*Y32300D01*
X205300Y35500D02*X208500D01*
X205300D02*Y32300D01*
X208500D01*
Y35500D02*Y32300D01*
X194500Y35500D02*X197700D01*
X194500D02*Y32300D01*
X197700D01*
Y35500D02*Y32300D01*
X82700Y46700D02*X85900D01*
X82700D02*Y43500D01*
X85900D01*
Y46700D02*Y43500D01*
X71900Y46700D02*X75100D01*
X71900D02*Y43500D01*
X75100D01*
Y46700D02*Y43500D01*
X61100Y46700D02*X64300D01*
X61100D02*Y43500D01*
X64300D01*
Y46700D02*Y43500D01*
X50300Y46700D02*X53500D01*
X50300D02*Y43500D01*
X53500D01*
Y46700D02*Y43500D01*
X39500Y46700D02*X42700D01*
X39500D02*Y43500D01*
X42700D01*
Y46700D02*Y43500D01*
X77300Y35500D02*X80500D01*
X77300D02*Y32300D01*
X80500D01*
Y35500D02*Y32300D01*
X66500Y35500D02*X69700D01*
X66500D02*Y32300D01*
X69700D01*
Y35500D02*Y32300D01*
X55700Y35500D02*X58900D01*
X55700D02*Y32300D01*
X58900D01*
Y35500D02*Y32300D01*
X44900Y35500D02*X48100D01*
X44900D02*Y32300D01*
X48100D01*
Y35500D02*Y32300D01*
X13400Y335850D02*X16600D01*
X13400D02*Y332650D01*
X16600D01*
Y335850D02*Y332650D01*
X135000Y336500D02*X136500Y333500D01*
X138000Y336500D01*
X136500Y333500D02*Y330500D01*
X139800Y333800D02*X142050D01*
X139800Y330500D02*X142800D01*
X139800Y336500D02*Y330500D01*
Y336500D02*X142800D01*
X147600D02*X148350Y335750D01*
X145350Y336500D02*X147600D01*
X144600Y335750D02*X145350Y336500D01*
X144600Y335750D02*Y334250D01*
X145350Y333500D01*
X147600D01*
X148350Y332750D01*
Y331250D01*
X147600Y330500D02*X148350Y331250D01*
X145350Y330500D02*X147600D01*
X144600Y331250D02*X145350Y330500D01*
X98000Y335300D02*X99200Y336500D01*
Y330500D01*
X98000D02*X100250D01*
X102050Y331250D02*X102800Y330500D01*
X102050Y332450D02*Y331250D01*
Y332450D02*X103100Y333500D01*
X104000D01*
X105050Y332450D01*
Y331250D01*
X104300Y330500D02*X105050Y331250D01*
X102800Y330500D02*X104300D01*
X102050Y334550D02*X103100Y333500D01*
X102050Y335750D02*Y334550D01*
Y335750D02*X102800Y336500D01*
X104300D01*
X105050Y335750D01*
Y334550D01*
X104000Y333500D02*X105050Y334550D01*
X45000Y331250D02*X45750Y330500D01*
X45000Y335750D02*Y331250D01*
Y335750D02*X45750Y336500D01*
X47250D01*
X48000Y335750D01*
Y331250D01*
X47250Y330500D02*X48000Y331250D01*
X45750Y330500D02*X47250D01*
X45000Y332000D02*X48000Y335000D01*
X49800Y330500D02*X50550D01*
X52350Y331250D02*X53100Y330500D01*
X52350Y335750D02*Y331250D01*
Y335750D02*X53100Y336500D01*
X54600D01*
X55350Y335750D01*
Y331250D01*
X54600Y330500D02*X55350Y331250D01*
X53100Y330500D02*X54600D01*
X52350Y332000D02*X55350Y335000D01*
X57150Y336500D02*X60150D01*
X57150D02*Y333500D01*
X57900Y334250D01*
X59400D01*
X60150Y333500D01*
Y331250D01*
X59400Y330500D02*X60150Y331250D01*
X57900Y330500D02*X59400D01*
X57150Y331250D02*X57900Y330500D01*
X61950Y335750D02*X62700Y336500D01*
X64950D01*
X65700Y335750D01*
Y334250D01*
X61950Y330500D02*X65700Y334250D01*
X61950Y330500D02*X65700D01*
X103905Y131358D02*G75*G03X105505Y131358I800J0D01*G01*
G75*G03X103905Y131358I-800J0D01*G01*
X129495D02*G75*G03X131095Y131358I800J0D01*G01*
G75*G03X129495Y131358I-800J0D01*G01*
Y113642D02*G75*G03X131095Y113642I800J0D01*G01*
G75*G03X129495Y113642I-800J0D01*G01*
X103905D02*G75*G03X105505Y113642I800J0D01*G01*
G75*G03X103905Y113642I-800J0D01*G01*
X14200Y349250D02*G75*G03X15800Y349250I800J0D01*G01*
G75*G03X14200Y349250I-800J0D01*G01*
X135000Y351500D02*X136500Y348500D01*
X138000Y351500D01*
X136500Y348500D02*Y345500D01*
X139800Y348800D02*X142050D01*
X139800Y345500D02*X142800D01*
X139800Y351500D02*Y345500D01*
Y351500D02*X142800D01*
X147600D02*X148350Y350750D01*
X145350Y351500D02*X147600D01*
X144600Y350750D02*X145350Y351500D01*
X144600Y350750D02*Y349250D01*
X145350Y348500D01*
X147600D01*
X148350Y347750D01*
Y346250D01*
X147600Y345500D02*X148350Y346250D01*
X145350Y345500D02*X147600D01*
X144600Y346250D02*X145350Y345500D01*
X98000Y347750D02*X101000Y351500D01*
X98000Y347750D02*X101750D01*
X101000Y351500D02*Y345500D01*
X45000Y346250D02*X45750Y345500D01*
X45000Y350750D02*Y346250D01*
Y350750D02*X45750Y351500D01*
X47250D01*
X48000Y350750D01*
Y346250D01*
X47250Y345500D02*X48000Y346250D01*
X45750Y345500D02*X47250D01*
X45000Y347000D02*X48000Y350000D01*
X49800Y345500D02*X50550D01*
X52350Y346250D02*X53100Y345500D01*
X52350Y350750D02*Y346250D01*
Y350750D02*X53100Y351500D01*
X54600D01*
X55350Y350750D01*
Y346250D01*
X54600Y345500D02*X55350Y346250D01*
X53100Y345500D02*X54600D01*
X52350Y347000D02*X55350Y350000D01*
X57150Y347750D02*X60150Y351500D01*
X57150Y347750D02*X60900D01*
X60150Y351500D02*Y345500D01*
X64950Y351500D02*X65700Y350750D01*
X63450Y351500D02*X64950D01*
X62700Y350750D02*X63450Y351500D01*
X62700Y350750D02*Y346250D01*
X63450Y345500D01*
X64950Y348800D02*X65700Y348050D01*
X62700Y348800D02*X64950D01*
X63450Y345500D02*X64950D01*
X65700Y346250D01*
Y348050D02*Y346250D01*
X82300Y128200D02*X84700Y125800D01*
X82300D02*X84700Y128200D01*
X82300Y93200D02*X84700Y90800D01*
X82300D02*X84700Y93200D01*
X13800Y365450D02*X16200Y363050D01*
X13800D02*X16200Y365450D01*
X135000Y366500D02*X136500Y363500D01*
X138000Y366500D01*
X136500Y363500D02*Y360500D01*
X139800Y363800D02*X142050D01*
X139800Y360500D02*X142800D01*
X139800Y366500D02*Y360500D01*
Y366500D02*X142800D01*
X147600D02*X148350Y365750D01*
X145350Y366500D02*X147600D01*
X144600Y365750D02*X145350Y366500D01*
X144600Y365750D02*Y364250D01*
X145350Y363500D01*
X147600D01*
X148350Y362750D01*
Y361250D01*
X147600Y360500D02*X148350Y361250D01*
X145350Y360500D02*X147600D01*
X144600Y361250D02*X145350Y360500D01*
X98000Y365750D02*X98750Y366500D01*
X101000D01*
X101750Y365750D01*
Y364250D01*
X98000Y360500D02*X101750Y364250D01*
X98000Y360500D02*X101750D01*
X45000Y361250D02*X45750Y360500D01*
X45000Y365750D02*Y361250D01*
Y365750D02*X45750Y366500D01*
X47250D01*
X48000Y365750D01*
Y361250D01*
X47250Y360500D02*X48000Y361250D01*
X45750Y360500D02*X47250D01*
X45000Y362000D02*X48000Y365000D01*
X49800Y360500D02*X50550D01*
X52350Y361250D02*X53100Y360500D01*
X52350Y365750D02*Y361250D01*
Y365750D02*X53100Y366500D01*
X54600D01*
X55350Y365750D01*
Y361250D01*
X54600Y360500D02*X55350Y361250D01*
X53100Y360500D02*X54600D01*
X52350Y362000D02*X55350Y365000D01*
X57150Y362750D02*X60150Y366500D01*
X57150Y362750D02*X60900D01*
X60150Y366500D02*Y360500D01*
X62700Y361250D02*X63450Y360500D01*
X62700Y365750D02*Y361250D01*
Y365750D02*X63450Y366500D01*
X64950D01*
X65700Y365750D01*
Y361250D01*
X64950Y360500D02*X65700Y361250D01*
X63450Y360500D02*X64950D01*
X62700Y362000D02*X65700Y365000D01*
X29500Y217600D02*Y214400D01*
X27900Y216000D02*X31100D01*
X29500Y207600D02*Y204400D01*
X27900Y206000D02*X31100D01*
X29500Y187600D02*Y184400D01*
X27900Y186000D02*X31100D01*
X29500Y197600D02*Y194400D01*
X27900Y196000D02*X31100D01*
X29500Y177600D02*Y174400D01*
X27900Y176000D02*X31100D01*
X29500Y167600D02*Y164400D01*
X27900Y166000D02*X31100D01*
X29500Y147600D02*Y144400D01*
X27900Y146000D02*X31100D01*
X29500Y157600D02*Y154400D01*
X27900Y156000D02*X31100D01*
X97000Y228600D02*Y225400D01*
X95400Y227000D02*X98600D01*
X137000Y228600D02*Y225400D01*
X135400Y227000D02*X138600D01*
X97000Y148600D02*Y145400D01*
X95400Y147000D02*X98600D01*
X107000Y148600D02*Y145400D01*
X105400Y147000D02*X108600D01*
X127000Y228600D02*Y225400D01*
X125400Y227000D02*X128600D01*
X107000Y228600D02*Y225400D01*
X105400Y227000D02*X108600D01*
X117000Y148600D02*Y145400D01*
X115400Y147000D02*X118600D01*
X127000Y148600D02*Y145400D01*
X125400Y147000D02*X128600D01*
X137000Y148600D02*Y145400D01*
X135400Y147000D02*X138600D01*
X117000Y228600D02*Y225400D01*
X115400Y227000D02*X118600D01*
X156000Y231600D02*Y228400D01*
X154400Y230000D02*X157600D01*
X156000Y241600D02*Y238400D01*
X154400Y240000D02*X157600D01*
X246000Y198600D02*Y195400D01*
X244400Y197000D02*X247600D01*
X236000Y198600D02*Y195400D01*
X234400Y197000D02*X237600D01*
X226000Y198600D02*Y195400D01*
X224400Y197000D02*X227600D01*
X246000Y228600D02*Y225400D01*
X244400Y227000D02*X247600D01*
X236000Y228600D02*Y225400D01*
X234400Y227000D02*X237600D01*
X226000Y228600D02*Y225400D01*
X224400Y227000D02*X227600D01*
X246000Y188600D02*Y185400D01*
X244400Y187000D02*X247600D01*
X236000Y188600D02*Y185400D01*
X234400Y187000D02*X237600D01*
X226000Y188600D02*Y185400D01*
X224400Y187000D02*X227600D01*
X246000Y208600D02*Y205400D01*
X244400Y207000D02*X247600D01*
X236000Y208600D02*Y205400D01*
X234400Y207000D02*X237600D01*
X226000Y208600D02*Y205400D01*
X224400Y207000D02*X227600D01*
X246000Y218600D02*Y215400D01*
X244400Y217000D02*X247600D01*
X236000Y218600D02*Y215400D01*
X234400Y217000D02*X237600D01*
X226000Y218600D02*Y215400D01*
X224400Y217000D02*X227600D01*
X246020Y114360D02*Y111160D01*
X244420Y112760D02*X247620D01*
X236020Y114360D02*Y111160D01*
X234420Y112760D02*X237620D01*
X216020Y114360D02*Y111160D01*
X214420Y112760D02*X217620D01*
X226020Y114360D02*Y111160D01*
X224420Y112760D02*X227620D01*
X15000Y380850D02*Y377650D01*
X13400Y379250D02*X16600D01*
X135000Y381500D02*X136500Y378500D01*
X138000Y381500D01*
X136500Y378500D02*Y375500D01*
X139800Y378800D02*X142050D01*
X139800Y375500D02*X142800D01*
X139800Y381500D02*Y375500D01*
Y381500D02*X142800D01*
X147600D02*X148350Y380750D01*
X145350Y381500D02*X147600D01*
X144600Y380750D02*X145350Y381500D01*
X144600Y380750D02*Y379250D01*
X145350Y378500D01*
X147600D01*
X148350Y377750D01*
Y376250D01*
X147600Y375500D02*X148350Y376250D01*
X145350Y375500D02*X147600D01*
X144600Y376250D02*X145350Y375500D01*
X98000Y380750D02*X98750Y381500D01*
X100250D01*
X101000Y380750D01*
X100250Y375500D02*X101000Y376250D01*
X98750Y375500D02*X100250D01*
X98000Y376250D02*X98750Y375500D01*
Y378800D02*X100250D01*
X101000Y380750D02*Y379550D01*
Y378050D02*Y376250D01*
Y378050D02*X100250Y378800D01*
X101000Y379550D02*X100250Y378800D01*
X103550Y375500D02*X105800Y378500D01*
Y380750D02*Y378500D01*
X105050Y381500D02*X105800Y380750D01*
X103550Y381500D02*X105050D01*
X102800Y380750D02*X103550Y381500D01*
X102800Y380750D02*Y379250D01*
X103550Y378500D01*
X105800D01*
X45000Y376250D02*X45750Y375500D01*
X45000Y380750D02*Y376250D01*
Y380750D02*X45750Y381500D01*
X47250D01*
X48000Y380750D01*
Y376250D01*
X47250Y375500D02*X48000Y376250D01*
X45750Y375500D02*X47250D01*
X45000Y377000D02*X48000Y380000D01*
X49800Y375500D02*X50550D01*
X52350Y376250D02*X53100Y375500D01*
X52350Y380750D02*Y376250D01*
Y380750D02*X53100Y381500D01*
X54600D01*
X55350Y380750D01*
Y376250D01*
X54600Y375500D02*X55350Y376250D01*
X53100Y375500D02*X54600D01*
X52350Y377000D02*X55350Y380000D01*
X57150Y380750D02*X57900Y381500D01*
X59400D01*
X60150Y380750D01*
X59400Y375500D02*X60150Y376250D01*
X57900Y375500D02*X59400D01*
X57150Y376250D02*X57900Y375500D01*
Y378800D02*X59400D01*
X60150Y380750D02*Y379550D01*
Y378050D02*Y376250D01*
Y378050D02*X59400Y378800D01*
X60150Y379550D02*X59400Y378800D01*
X61950Y376250D02*X62700Y375500D01*
X61950Y377450D02*Y376250D01*
Y377450D02*X63000Y378500D01*
X63900D01*
X64950Y377450D01*
Y376250D01*
X64200Y375500D02*X64950Y376250D01*
X62700Y375500D02*X64200D01*
X61950Y379550D02*X63000Y378500D01*
X61950Y380750D02*Y379550D01*
Y380750D02*X62700Y381500D01*
X64200D01*
X64950Y380750D01*
Y379550D01*
X63900Y378500D02*X64950Y379550D01*
X137000Y194000D02*Y192400D01*
Y194000D02*X138387Y194800D01*
X137000Y194000D02*X135613Y194800D01*
X177300Y153800D02*Y152200D01*
Y153800D02*X178687Y154600D01*
X177300Y153800D02*X175913Y154600D01*
X147500Y166000D02*Y164400D01*
Y166000D02*X148887Y166800D01*
X147500Y166000D02*X146113Y166800D01*
X145380Y227430D02*Y225830D01*
Y227430D02*X146767Y228230D01*
X145380Y227430D02*X143993Y228230D01*
X167300Y153800D02*Y152200D01*
Y153800D02*X168687Y154600D01*
X167300Y153800D02*X165913Y154600D01*
X162300Y153800D02*Y152200D01*
Y153800D02*X163687Y154600D01*
X162300Y153800D02*X160913Y154600D01*
X115500Y211000D02*Y209400D01*
Y211000D02*X116887Y211800D01*
X115500Y211000D02*X114113Y211800D01*
X121000Y211000D02*Y209400D01*
Y211000D02*X122387Y211800D01*
X121000Y211000D02*X119613Y211800D01*
X72500Y226500D02*Y224900D01*
Y226500D02*X73887Y227300D01*
X72500Y226500D02*X71113Y227300D01*
X72500Y216500D02*Y214900D01*
Y216500D02*X73887Y217300D01*
X72500Y216500D02*X71113Y217300D01*
X91500Y216500D02*Y214900D01*
Y216500D02*X92887Y217300D01*
X91500Y216500D02*X90113Y217300D01*
X53500Y221500D02*Y219900D01*
Y221500D02*X54887Y222300D01*
X53500Y221500D02*X52113Y222300D01*
X53500Y231500D02*Y229900D01*
Y231500D02*X54887Y232300D01*
X53500Y231500D02*X52113Y232300D01*
X53500Y241500D02*Y239900D01*
Y241500D02*X54887Y242300D01*
X53500Y241500D02*X52113Y242300D01*
X79000Y200500D02*Y198900D01*
Y200500D02*X80387Y201300D01*
X79000Y200500D02*X77613Y201300D01*
X79000Y189000D02*Y187400D01*
Y189000D02*X80387Y189800D01*
X79000Y189000D02*X77613Y189800D01*
X79000Y162500D02*Y160900D01*
Y162500D02*X80387Y163300D01*
X79000Y162500D02*X77613Y163300D01*
X79000Y151000D02*Y149400D01*
Y151000D02*X80387Y151800D01*
X79000Y151000D02*X77613Y151800D01*
X169000Y179500D02*Y177900D01*
Y179500D02*X170387Y180300D01*
X169000Y179500D02*X167613Y180300D01*
X164000Y179500D02*Y177900D01*
Y179500D02*X165387Y180300D01*
X164000Y179500D02*X162613Y180300D01*
X142500Y199000D02*Y197400D01*
Y199000D02*X143887Y199800D01*
X142500Y199000D02*X141113Y199800D01*
X126500Y211000D02*Y209400D01*
Y211000D02*X127887Y211800D01*
X126500Y211000D02*X125113Y211800D01*
X171000Y219000D02*Y217400D01*
Y219000D02*X172387Y219800D01*
X171000Y219000D02*X169613Y219800D01*
X222500Y176000D02*Y174400D01*
Y176000D02*X223887Y176800D01*
X222500Y176000D02*X221113Y176800D01*
X232500Y176000D02*Y174400D01*
Y176000D02*X233887Y176800D01*
X232500Y176000D02*X231113Y176800D01*
X242500Y176000D02*Y174400D01*
Y176000D02*X243887Y176800D01*
X242500Y176000D02*X241113Y176800D01*
X115480Y90990D02*Y89390D01*
Y90990D02*X116867Y91790D01*
X115480Y90990D02*X114093Y91790D01*
X15000Y394250D02*Y392650D01*
Y394250D02*X16387Y395050D01*
X15000Y394250D02*X13613Y395050D01*
X135000Y396500D02*X136500Y393500D01*
X138000Y396500D01*
X136500Y393500D02*Y390500D01*
X139800Y393800D02*X142050D01*
X139800Y390500D02*X142800D01*
X139800Y396500D02*Y390500D01*
Y396500D02*X142800D01*
X147600D02*X148350Y395750D01*
X145350Y396500D02*X147600D01*
X144600Y395750D02*X145350Y396500D01*
X144600Y395750D02*Y394250D01*
X145350Y393500D01*
X147600D01*
X148350Y392750D01*
Y391250D01*
X147600Y390500D02*X148350Y391250D01*
X145350Y390500D02*X147600D01*
X144600Y391250D02*X145350Y390500D01*
X98000Y395750D02*X98750Y396500D01*
X101000D01*
X101750Y395750D01*
Y394250D01*
X98000Y390500D02*X101750Y394250D01*
X98000Y390500D02*X101750D01*
X104300D02*X107300Y396500D01*
X103550D02*X107300D01*
X45000Y391250D02*X45750Y390500D01*
X45000Y395750D02*Y391250D01*
Y395750D02*X45750Y396500D01*
X47250D01*
X48000Y395750D01*
Y391250D01*
X47250Y390500D02*X48000Y391250D01*
X45750Y390500D02*X47250D01*
X45000Y392000D02*X48000Y395000D01*
X49800Y390500D02*X50550D01*
X52350Y391250D02*X53100Y390500D01*
X52350Y395750D02*Y391250D01*
Y395750D02*X53100Y396500D01*
X54600D01*
X55350Y395750D01*
Y391250D01*
X54600Y390500D02*X55350Y391250D01*
X53100Y390500D02*X54600D01*
X52350Y392000D02*X55350Y395000D01*
X57150Y395750D02*X57900Y396500D01*
X60150D01*
X60900Y395750D01*
Y394250D01*
X57150Y390500D02*X60900Y394250D01*
X57150Y390500D02*X60900D01*
X62700Y391250D02*X63450Y390500D01*
X62700Y395750D02*Y391250D01*
Y395750D02*X63450Y396500D01*
X64950D01*
X65700Y395750D01*
Y391250D01*
X64950Y390500D02*X65700Y391250D01*
X63450Y390500D02*X64950D01*
X62700Y392000D02*X65700Y395000D01*
X3000Y411500D02*X3750Y410750D01*
X750Y411500D02*X3000D01*
X0Y410750D02*X750Y411500D01*
X0Y410750D02*Y409250D01*
X750Y408500D01*
X3000D01*
X3750Y407750D01*
Y406250D01*
X3000Y405500D02*X3750Y406250D01*
X750Y405500D02*X3000D01*
X0Y406250D02*X750Y405500D01*
X5550Y408500D02*Y406250D01*
X6300Y405500D01*
X8550Y408500D02*Y404000D01*
X7800Y403250D02*X8550Y404000D01*
X6300Y403250D02*X7800D01*
X5550Y404000D02*X6300Y403250D01*
Y405500D02*X7800D01*
X8550Y406250D01*
X11100Y407750D02*Y405500D01*
Y407750D02*X11850Y408500D01*
X12600D01*
X13350Y407750D01*
Y405500D01*
Y407750D02*X14100Y408500D01*
X14850D01*
X15600Y407750D01*
Y405500D01*
X10350Y408500D02*X11100Y407750D01*
X17400Y411500D02*Y405500D01*
Y406250D02*X18150Y405500D01*
X19650D01*
X20400Y406250D01*
Y407750D02*Y406250D01*
X19650Y408500D02*X20400Y407750D01*
X18150Y408500D02*X19650D01*
X17400Y407750D02*X18150Y408500D01*
X22200Y407750D02*Y406250D01*
Y407750D02*X22950Y408500D01*
X24450D01*
X25200Y407750D01*
Y406250D01*
X24450Y405500D02*X25200Y406250D01*
X22950Y405500D02*X24450D01*
X22200Y406250D02*X22950Y405500D01*
X27000Y411500D02*Y406250D01*
X27750Y405500D01*
X0Y402250D02*X29250D01*
X41750Y411500D02*Y405500D01*
X43700Y411500D02*X44750Y410450D01*
Y406550D01*
X43700Y405500D02*X44750Y406550D01*
X41000Y405500D02*X43700D01*
X41000Y411500D02*X43700D01*
G54D193*X46550Y410000D02*Y409850D01*
G54D192*Y407750D02*Y405500D01*
X50300Y408500D02*X51050Y407750D01*
X48800Y408500D02*X50300D01*
X48050Y407750D02*X48800Y408500D01*
X48050Y407750D02*Y406250D01*
X48800Y405500D01*
X51050Y408500D02*Y406250D01*
X51800Y405500D01*
X48800D02*X50300D01*
X51050Y406250D01*
X54350Y407750D02*Y405500D01*
Y407750D02*X55100Y408500D01*
X55850D01*
X56600Y407750D01*
Y405500D01*
Y407750D02*X57350Y408500D01*
X58100D01*
X58850Y407750D01*
Y405500D01*
X53600Y408500D02*X54350Y407750D01*
X60650Y405500D02*X61400D01*
X65900Y406250D02*X66650Y405500D01*
X65900Y410750D02*X66650Y411500D01*
X65900Y410750D02*Y406250D01*
X68450Y411500D02*X69950D01*
X69200D02*Y405500D01*
X68450D02*X69950D01*
X72500Y407750D02*Y405500D01*
Y407750D02*X73250Y408500D01*
X74000D01*
X74750Y407750D01*
Y405500D01*
X71750Y408500D02*X72500Y407750D01*
X77300Y408500D02*X79550D01*
X76550Y407750D02*X77300Y408500D01*
X76550Y407750D02*Y406250D01*
X77300Y405500D01*
X79550D01*
X81350Y411500D02*Y405500D01*
Y407750D02*X82100Y408500D01*
X83600D01*
X84350Y407750D01*
Y405500D01*
X86150Y411500D02*X86900Y410750D01*
Y406250D01*
X86150Y405500D02*X86900Y406250D01*
X41000Y402250D02*X88700D01*
X96050Y405500D02*X98000D01*
X95000Y406550D02*X96050Y405500D01*
X95000Y410450D02*Y406550D01*
Y410450D02*X96050Y411500D01*
X98000D01*
X99800Y407750D02*Y406250D01*
Y407750D02*X100550Y408500D01*
X102050D01*
X102800Y407750D01*
Y406250D01*
X102050Y405500D02*X102800Y406250D01*
X100550Y405500D02*X102050D01*
X99800Y406250D02*X100550Y405500D01*
X104600Y408500D02*Y406250D01*
X105350Y405500D01*
X106850D01*
X107600Y406250D01*
Y408500D02*Y406250D01*
X110150Y407750D02*Y405500D01*
Y407750D02*X110900Y408500D01*
X111650D01*
X112400Y407750D01*
Y405500D01*
X109400Y408500D02*X110150Y407750D01*
X114950Y411500D02*Y406250D01*
X115700Y405500D01*
X114200Y409250D02*X115700D01*
X95000Y402250D02*X117200D01*
X130750Y411500D02*Y405500D01*
X130000Y411500D02*X133000D01*
X133750Y410750D01*
Y409250D01*
X133000Y408500D02*X133750Y409250D01*
X130750Y408500D02*X133000D01*
X135550Y411500D02*Y406250D01*
X136300Y405500D01*
X140050Y408500D02*X140800Y407750D01*
X138550Y408500D02*X140050D01*
X137800Y407750D02*X138550Y408500D01*
X137800Y407750D02*Y406250D01*
X138550Y405500D01*
X140800Y408500D02*Y406250D01*
X141550Y405500D01*
X138550D02*X140050D01*
X140800Y406250D01*
X144100Y411500D02*Y406250D01*
X144850Y405500D01*
X143350Y409250D02*X144850D01*
X147100Y405500D02*X149350D01*
X146350Y406250D02*X147100Y405500D01*
X146350Y407750D02*Y406250D01*
Y407750D02*X147100Y408500D01*
X148600D01*
X149350Y407750D01*
X146350Y407000D02*X149350D01*
Y407750D02*Y407000D01*
X154150Y411500D02*Y405500D01*
X153400D02*X154150Y406250D01*
X151900Y405500D02*X153400D01*
X151150Y406250D02*X151900Y405500D01*
X151150Y407750D02*Y406250D01*
Y407750D02*X151900Y408500D01*
X153400D01*
X154150Y407750D01*
X157450Y408500D02*Y407750D01*
Y406250D02*Y405500D01*
X155950Y410750D02*Y410000D01*
Y410750D02*X156700Y411500D01*
X158200D01*
X158950Y410750D01*
Y410000D01*
X157450Y408500D02*X158950Y410000D01*
X130000Y402250D02*X160750D01*
X0Y426500D02*X3000D01*
X1500D02*Y420500D01*
X4800Y426500D02*Y420500D01*
Y422750D02*X5550Y423500D01*
X7050D01*
X7800Y422750D01*
Y420500D01*
X10350D02*X12600D01*
X9600Y421250D02*X10350Y420500D01*
X9600Y422750D02*Y421250D01*
Y422750D02*X10350Y423500D01*
X11850D01*
X12600Y422750D01*
X9600Y422000D02*X12600D01*
Y422750D02*Y422000D01*
X15150Y422750D02*Y420500D01*
Y422750D02*X15900Y423500D01*
X17400D01*
X14400D02*X15150Y422750D01*
X19950Y420500D02*X22200D01*
X19200Y421250D02*X19950Y420500D01*
X19200Y422750D02*Y421250D01*
Y422750D02*X19950Y423500D01*
X21450D01*
X22200Y422750D01*
X19200Y422000D02*X22200D01*
Y422750D02*Y422000D01*
X28950Y423500D02*X29700Y422750D01*
X27450Y423500D02*X28950D01*
X26700Y422750D02*X27450Y423500D01*
X26700Y422750D02*Y421250D01*
X27450Y420500D01*
X29700Y423500D02*Y421250D01*
X30450Y420500D01*
X27450D02*X28950D01*
X29700Y421250D01*
X33000Y422750D02*Y420500D01*
Y422750D02*X33750Y423500D01*
X35250D01*
X32250D02*X33000Y422750D01*
X37800Y420500D02*X40050D01*
X37050Y421250D02*X37800Y420500D01*
X37050Y422750D02*Y421250D01*
Y422750D02*X37800Y423500D01*
X39300D01*
X40050Y422750D01*
X37050Y422000D02*X40050D01*
Y422750D02*Y422000D01*
X44550Y421250D02*X45300Y420500D01*
X44550Y422450D02*Y421250D01*
Y422450D02*X45600Y423500D01*
X46500D01*
X47550Y422450D01*
Y421250D01*
X46800Y420500D02*X47550Y421250D01*
X45300Y420500D02*X46800D01*
X44550Y424550D02*X45600Y423500D01*
X44550Y425750D02*Y424550D01*
Y425750D02*X45300Y426500D01*
X46800D01*
X47550Y425750D01*
Y424550D01*
X46500Y423500D02*X47550Y424550D01*
X55050Y426500D02*Y420500D01*
X54300D02*X55050Y421250D01*
X52800Y420500D02*X54300D01*
X52050Y421250D02*X52800Y420500D01*
X52050Y422750D02*Y421250D01*
Y422750D02*X52800Y423500D01*
X54300D01*
X55050Y422750D01*
G54D193*X56850Y425000D02*Y424850D01*
G54D192*Y422750D02*Y420500D01*
X59100Y425750D02*Y420500D01*
Y425750D02*X59850Y426500D01*
X60600D01*
X58350Y423500D02*X59850D01*
X62850Y425750D02*Y420500D01*
Y425750D02*X63600Y426500D01*
X64350D01*
X62100Y423500D02*X63600D01*
X66600Y420500D02*X68850D01*
X65850Y421250D02*X66600Y420500D01*
X65850Y422750D02*Y421250D01*
Y422750D02*X66600Y423500D01*
X68100D01*
X68850Y422750D01*
X65850Y422000D02*X68850D01*
Y422750D02*Y422000D01*
X71400Y422750D02*Y420500D01*
Y422750D02*X72150Y423500D01*
X73650D01*
X70650D02*X71400Y422750D01*
X76200Y420500D02*X78450D01*
X75450Y421250D02*X76200Y420500D01*
X75450Y422750D02*Y421250D01*
Y422750D02*X76200Y423500D01*
X77700D01*
X78450Y422750D01*
X75450Y422000D02*X78450D01*
Y422750D02*Y422000D01*
X81000Y422750D02*Y420500D01*
Y422750D02*X81750Y423500D01*
X82500D01*
X83250Y422750D01*
Y420500D01*
X80250Y423500D02*X81000Y422750D01*
X85800Y426500D02*Y421250D01*
X86550Y420500D01*
X85050Y424250D02*X86550D01*
X93750Y426500D02*Y420500D01*
X93000D02*X93750Y421250D01*
X91500Y420500D02*X93000D01*
X90750Y421250D02*X91500Y420500D01*
X90750Y422750D02*Y421250D01*
Y422750D02*X91500Y423500D01*
X93000D01*
X93750Y422750D01*
X96300D02*Y420500D01*
Y422750D02*X97050Y423500D01*
X98550D01*
X95550D02*X96300Y422750D01*
G54D193*X100350Y425000D02*Y424850D01*
G54D192*Y422750D02*Y420500D01*
X101850Y426500D02*Y421250D01*
X102600Y420500D01*
X104100Y426500D02*Y421250D01*
X104850Y420500D01*
X109800D02*X112050D01*
X112800Y421250D01*
X112050Y422000D02*X112800Y421250D01*
X109800Y422000D02*X112050D01*
X109050Y422750D02*X109800Y422000D01*
X109050Y422750D02*X109800Y423500D01*
X112050D01*
X112800Y422750D01*
X109050Y421250D02*X109800Y420500D01*
G54D193*X114600Y425000D02*Y424850D01*
G54D192*Y422750D02*Y420500D01*
X116100Y423500D02*X119100D01*
X116100Y420500D02*X119100Y423500D01*
X116100Y420500D02*X119100D01*
X121650D02*X123900D01*
X120900Y421250D02*X121650Y420500D01*
X120900Y422750D02*Y421250D01*
Y422750D02*X121650Y423500D01*
X123150D01*
X123900Y422750D01*
X120900Y422000D02*X123900D01*
Y422750D02*Y422000D01*
X126450Y420500D02*X128700D01*
X129450Y421250D01*
X128700Y422000D02*X129450Y421250D01*
X126450Y422000D02*X128700D01*
X125700Y422750D02*X126450Y422000D01*
X125700Y422750D02*X126450Y423500D01*
X128700D01*
X129450Y422750D01*
X125700Y421250D02*X126450Y420500D01*
X133950Y423500D02*Y421250D01*
X134700Y420500D01*
X136200D01*
X136950Y421250D01*
Y423500D02*Y421250D01*
X139500Y420500D02*X141750D01*
X142500Y421250D01*
X141750Y422000D02*X142500Y421250D01*
X139500Y422000D02*X141750D01*
X138750Y422750D02*X139500Y422000D01*
X138750Y422750D02*X139500Y423500D01*
X141750D01*
X142500Y422750D01*
X138750Y421250D02*X139500Y420500D01*
X145050D02*X147300D01*
X144300Y421250D02*X145050Y420500D01*
X144300Y422750D02*Y421250D01*
Y422750D02*X145050Y423500D01*
X146550D01*
X147300Y422750D01*
X144300Y422000D02*X147300D01*
Y422750D02*Y422000D01*
X152100Y426500D02*Y420500D01*
X151350D02*X152100Y421250D01*
X149850Y420500D02*X151350D01*
X149100Y421250D02*X149850Y420500D01*
X149100Y422750D02*Y421250D01*
Y422750D02*X149850Y423500D01*
X151350D01*
X152100Y422750D01*
G54D193*X156600Y425000D02*Y424850D01*
G54D192*Y422750D02*Y420500D01*
X158850Y422750D02*Y420500D01*
Y422750D02*X159600Y423500D01*
X160350D01*
X161100Y422750D01*
Y420500D01*
X158100Y423500D02*X158850Y422750D01*
X166350Y426500D02*Y421250D01*
X167100Y420500D01*
X165600Y424250D02*X167100D01*
X168600Y426500D02*Y420500D01*
Y422750D02*X169350Y423500D01*
X170850D01*
X171600Y422750D01*
Y420500D01*
G54D193*X173400Y425000D02*Y424850D01*
G54D192*Y422750D02*Y420500D01*
X175650D02*X177900D01*
X178650Y421250D01*
X177900Y422000D02*X178650Y421250D01*
X175650Y422000D02*X177900D01*
X174900Y422750D02*X175650Y422000D01*
X174900Y422750D02*X175650Y423500D01*
X177900D01*
X178650Y422750D01*
X174900Y421250D02*X175650Y420500D01*
X183150Y426500D02*Y421250D01*
X183900Y420500D01*
X187650Y423500D02*X188400Y422750D01*
X186150Y423500D02*X187650D01*
X185400Y422750D02*X186150Y423500D01*
X185400Y422750D02*Y421250D01*
X186150Y420500D01*
X188400Y423500D02*Y421250D01*
X189150Y420500D01*
X186150D02*X187650D01*
X188400Y421250D01*
X190950Y423500D02*Y421250D01*
X191700Y420500D01*
X193950Y423500D02*Y419000D01*
X193200Y418250D02*X193950Y419000D01*
X191700Y418250D02*X193200D01*
X190950Y419000D02*X191700Y418250D01*
Y420500D02*X193200D01*
X193950Y421250D01*
X195750Y422750D02*Y421250D01*
Y422750D02*X196500Y423500D01*
X198000D01*
X198750Y422750D01*
Y421250D01*
X198000Y420500D02*X198750Y421250D01*
X196500Y420500D02*X198000D01*
X195750Y421250D02*X196500Y420500D01*
X200550Y423500D02*Y421250D01*
X201300Y420500D01*
X202800D01*
X203550Y421250D01*
Y423500D02*Y421250D01*
X206100Y426500D02*Y421250D01*
X206850Y420500D01*
X205350Y424250D02*X206850D01*
X208350Y419000D02*X209850Y420500D01*
X214350Y425300D02*X215550Y426500D01*
Y420500D01*
X214350D02*X216600D01*
X218400Y421250D02*X219150Y420500D01*
X218400Y425750D02*Y421250D01*
Y425750D02*X219150Y426500D01*
X220650D01*
X221400Y425750D01*
Y421250D01*
X220650Y420500D02*X221400Y421250D01*
X219150Y420500D02*X220650D01*
X218400Y422000D02*X221400Y425000D01*
X223200Y425300D02*X224400Y426500D01*
Y420500D01*
X223200D02*X225450D01*
X229950Y426500D02*Y420500D01*
Y422750D02*X230700Y423500D01*
X232200D01*
X232950Y422750D01*
Y420500D01*
X234750Y422750D02*Y421250D01*
Y422750D02*X235500Y423500D01*
X237000D01*
X237750Y422750D01*
Y421250D01*
X237000Y420500D02*X237750Y421250D01*
X235500Y420500D02*X237000D01*
X234750Y421250D02*X235500Y420500D01*
X239550Y426500D02*Y421250D01*
X240300Y420500D01*
X242550D02*X244800D01*
X241800Y421250D02*X242550Y420500D01*
X241800Y422750D02*Y421250D01*
Y422750D02*X242550Y423500D01*
X244050D01*
X244800Y422750D01*
X241800Y422000D02*X244800D01*
Y422750D02*Y422000D01*
X247350Y420500D02*X249600D01*
X250350Y421250D01*
X249600Y422000D02*X250350Y421250D01*
X247350Y422000D02*X249600D01*
X246600Y422750D02*X247350Y422000D01*
X246600Y422750D02*X247350Y423500D01*
X249600D01*
X250350Y422750D01*
X246600Y421250D02*X247350Y420500D01*
X255600Y426500D02*Y421250D01*
X256350Y420500D01*
X254850Y424250D02*X256350D01*
X257850Y422750D02*Y421250D01*
Y422750D02*X258600Y423500D01*
X260100D01*
X260850Y422750D01*
Y421250D01*
X260100Y420500D02*X260850Y421250D01*
X258600Y420500D02*X260100D01*
X257850Y421250D02*X258600Y420500D01*
X263400Y426500D02*Y421250D01*
X264150Y420500D01*
X262650Y424250D02*X264150D01*
X267900Y423500D02*X268650Y422750D01*
X266400Y423500D02*X267900D01*
X265650Y422750D02*X266400Y423500D01*
X265650Y422750D02*Y421250D01*
X266400Y420500D01*
X268650Y423500D02*Y421250D01*
X269400Y420500D01*
X266400D02*X267900D01*
X268650Y421250D01*
X271200Y426500D02*Y421250D01*
X271950Y420500D01*
G54D194*X0Y278000D02*X275000D01*
X0D02*Y0D01*
X275000Y278000D02*Y0D01*
X0D02*X275000D01*
G54D192*X200000Y291500D02*Y285500D01*
Y291500D02*X202250Y288500D01*
X204500Y291500D01*
Y285500D01*
X208550Y288500D02*X209300Y287750D01*
X207050Y288500D02*X208550D01*
X206300Y287750D02*X207050Y288500D01*
X206300Y287750D02*Y286250D01*
X207050Y285500D01*
X209300Y288500D02*Y286250D01*
X210050Y285500D01*
X207050D02*X208550D01*
X209300Y286250D01*
X211850Y288500D02*X214850Y285500D01*
X211850D02*X214850Y288500D01*
G54D193*X216650Y290000D02*Y289850D01*
G54D192*Y287750D02*Y285500D01*
X218900Y287750D02*Y285500D01*
Y287750D02*X219650Y288500D01*
X220400D01*
X221150Y287750D01*
Y285500D01*
Y287750D02*X221900Y288500D01*
X222650D01*
X223400Y287750D01*
Y285500D01*
X218150Y288500D02*X218900Y287750D01*
X225200Y288500D02*Y286250D01*
X225950Y285500D01*
X227450D01*
X228200Y286250D01*
Y288500D02*Y286250D01*
X230750Y287750D02*Y285500D01*
Y287750D02*X231500Y288500D01*
X232250D01*
X233000Y287750D01*
Y285500D01*
Y287750D02*X233750Y288500D01*
X234500D01*
X235250Y287750D01*
Y285500D01*
X230000Y288500D02*X230750Y287750D01*
X240500Y291500D02*Y285500D01*
X242450Y291500D02*X243500Y290450D01*
Y286550D01*
X242450Y285500D02*X243500Y286550D01*
X239750Y285500D02*X242450D01*
X239750Y291500D02*X242450D01*
G54D193*X245300Y290000D02*Y289850D01*
G54D192*Y287750D02*Y285500D01*
X247550Y287750D02*Y285500D01*
Y287750D02*X248300Y288500D01*
X249050D01*
X249800Y287750D01*
Y285500D01*
Y287750D02*X250550Y288500D01*
X251300D01*
X252050Y287750D01*
Y285500D01*
X246800Y288500D02*X247550Y287750D01*
X254600Y285500D02*X256850D01*
X253850Y286250D02*X254600Y285500D01*
X253850Y287750D02*Y286250D01*
Y287750D02*X254600Y288500D01*
X256100D01*
X256850Y287750D01*
X253850Y287000D02*X256850D01*
Y287750D02*Y287000D01*
X259400Y287750D02*Y285500D01*
Y287750D02*X260150Y288500D01*
X260900D01*
X261650Y287750D01*
Y285500D01*
X258650Y288500D02*X259400Y287750D01*
X264200Y285500D02*X266450D01*
X267200Y286250D01*
X266450Y287000D02*X267200Y286250D01*
X264200Y287000D02*X266450D01*
X263450Y287750D02*X264200Y287000D01*
X263450Y287750D02*X264200Y288500D01*
X266450D01*
X267200Y287750D01*
X263450Y286250D02*X264200Y285500D01*
G54D193*X269000Y290000D02*Y289850D01*
G54D192*Y287750D02*Y285500D01*
X270500Y287750D02*Y286250D01*
Y287750D02*X271250Y288500D01*
X272750D01*
X273500Y287750D01*
Y286250D01*
X272750Y285500D02*X273500Y286250D01*
X271250Y285500D02*X272750D01*
X270500Y286250D02*X271250Y285500D01*
X276050Y287750D02*Y285500D01*
Y287750D02*X276800Y288500D01*
X277550D01*
X278300Y287750D01*
Y285500D01*
X275300Y288500D02*X276050Y287750D01*
X280850Y285500D02*X283100D01*
X283850Y286250D01*
X283100Y287000D02*X283850Y286250D01*
X280850Y287000D02*X283100D01*
X280100Y287750D02*X280850Y287000D01*
X280100Y287750D02*X280850Y288500D01*
X283100D01*
X283850Y287750D01*
X280100Y286250D02*X280850Y285500D01*
X285650Y289250D02*X286400D01*
X285650Y287750D02*X286400D01*
X290900Y290750D02*X291650Y291500D01*
X293900D01*
X294650Y290750D01*
Y289250D01*
X290900Y285500D02*X294650Y289250D01*
X290900Y285500D02*X294650D01*
X297200D02*X300200Y291500D01*
X296450D02*X300200D01*
X302000D02*X305000D01*
X302000D02*Y288500D01*
X302750Y289250D01*
X304250D01*
X305000Y288500D01*
Y286250D01*
X304250Y285500D02*X305000Y286250D01*
X302750Y285500D02*X304250D01*
X302000Y286250D02*X302750Y285500D01*
X306800Y286250D02*X307550Y285500D01*
X306800Y290750D02*Y286250D01*
Y290750D02*X307550Y291500D01*
X309050D01*
X309800Y290750D01*
Y286250D01*
X309050Y285500D02*X309800Y286250D01*
X307550Y285500D02*X309050D01*
X306800Y287000D02*X309800Y290000D01*
X311600Y285500D02*X312350D01*
X314150Y286250D02*X314900Y285500D01*
X314150Y290750D02*Y286250D01*
Y290750D02*X314900Y291500D01*
X316400D01*
X317150Y290750D01*
Y286250D01*
X316400Y285500D02*X317150Y286250D01*
X314900Y285500D02*X316400D01*
X314150Y287000D02*X317150Y290000D01*
X318950Y286250D02*X319700Y285500D01*
X318950Y290750D02*Y286250D01*
Y290750D02*X319700Y291500D01*
X321200D01*
X321950Y290750D01*
Y286250D01*
X321200Y285500D02*X321950Y286250D01*
X319700Y285500D02*X321200D01*
X318950Y287000D02*X321950Y290000D01*
X323750Y286250D02*X324500Y285500D01*
X323750Y290750D02*Y286250D01*
Y290750D02*X324500Y291500D01*
X326000D01*
X326750Y290750D01*
Y286250D01*
X326000Y285500D02*X326750Y286250D01*
X324500Y285500D02*X326000D01*
X323750Y287000D02*X326750Y290000D01*
X328550Y286250D02*X329300Y285500D01*
X328550Y290750D02*Y286250D01*
Y290750D02*X329300Y291500D01*
X330800D01*
X331550Y290750D01*
Y286250D01*
X330800Y285500D02*X331550Y286250D01*
X329300Y285500D02*X330800D01*
X328550Y287000D02*X331550Y290000D01*
X333350Y286250D02*X334100Y285500D01*
X333350Y290750D02*Y286250D01*
Y290750D02*X334100Y291500D01*
X335600D01*
X336350Y290750D01*
Y286250D01*
X335600Y285500D02*X336350Y286250D01*
X334100Y285500D02*X335600D01*
X333350Y287000D02*X336350Y290000D01*
X338150Y286250D02*X338900Y285500D01*
X338150Y290750D02*Y286250D01*
Y290750D02*X338900Y291500D01*
X340400D01*
X341150Y290750D01*
Y286250D01*
X340400Y285500D02*X341150Y286250D01*
X338900Y285500D02*X340400D01*
X338150Y287000D02*X341150Y290000D01*
X346400Y287750D02*Y285500D01*
Y287750D02*X347150Y288500D01*
X347900D01*
X348650Y287750D01*
Y285500D01*
Y287750D02*X349400Y288500D01*
X350150D01*
X350900Y287750D01*
Y285500D01*
X345650Y288500D02*X346400Y287750D01*
G54D193*X352700Y290000D02*Y289850D01*
G54D192*Y287750D02*Y285500D01*
X354200Y291500D02*Y286250D01*
X354950Y285500D01*
X357200D02*X359450D01*
X360200Y286250D01*
X359450Y287000D02*X360200Y286250D01*
X357200Y287000D02*X359450D01*
X356450Y287750D02*X357200Y287000D01*
X356450Y287750D02*X357200Y288500D01*
X359450D01*
X360200Y287750D01*
X356450Y286250D02*X357200Y285500D01*
X364700Y288500D02*Y286250D01*
X365450Y285500D01*
X366200D01*
X366950Y286250D01*
Y288500D02*Y286250D01*
X367700Y285500D01*
X368450D01*
X369200Y286250D01*
Y288500D02*Y286250D01*
G54D193*X371000Y290000D02*Y289850D01*
G54D192*Y287750D02*Y285500D01*
X375500Y291500D02*Y285500D01*
X374750D02*X375500Y286250D01*
X373250Y285500D02*X374750D01*
X372500Y286250D02*X373250Y285500D01*
X372500Y287750D02*Y286250D01*
Y287750D02*X373250Y288500D01*
X374750D01*
X375500Y287750D01*
X378050Y285500D02*X380300D01*
X377300Y286250D02*X378050Y285500D01*
X377300Y287750D02*Y286250D01*
Y287750D02*X378050Y288500D01*
X379550D01*
X380300Y287750D01*
X377300Y287000D02*X380300D01*
Y287750D02*Y287000D01*
X382100Y284000D02*X383600Y285500D01*
X388100Y290750D02*X388850Y291500D01*
X391100D01*
X391850Y290750D01*
Y289250D01*
X388100Y285500D02*X391850Y289250D01*
X388100Y285500D02*X391850D01*
X394400D02*X397400Y291500D01*
X393650D02*X397400D01*
X399200Y286250D02*X399950Y285500D01*
X399200Y287450D02*Y286250D01*
Y287450D02*X400250Y288500D01*
X401150D01*
X402200Y287450D01*
Y286250D01*
X401450Y285500D02*X402200Y286250D01*
X399950Y285500D02*X401450D01*
X399200Y289550D02*X400250Y288500D01*
X399200Y290750D02*Y289550D01*
Y290750D02*X399950Y291500D01*
X401450D01*
X402200Y290750D01*
Y289550D01*
X401150Y288500D02*X402200Y289550D01*
X404000Y286250D02*X404750Y285500D01*
X404000Y290750D02*Y286250D01*
Y290750D02*X404750Y291500D01*
X406250D01*
X407000Y290750D01*
Y286250D01*
X406250Y285500D02*X407000Y286250D01*
X404750Y285500D02*X406250D01*
X404000Y287000D02*X407000Y290000D01*
X408800Y285500D02*X409550D01*
X411350Y286250D02*X412100Y285500D01*
X411350Y290750D02*Y286250D01*
Y290750D02*X412100Y291500D01*
X413600D01*
X414350Y290750D01*
Y286250D01*
X413600Y285500D02*X414350Y286250D01*
X412100Y285500D02*X413600D01*
X411350Y287000D02*X414350Y290000D01*
X416150Y286250D02*X416900Y285500D01*
X416150Y290750D02*Y286250D01*
Y290750D02*X416900Y291500D01*
X418400D01*
X419150Y290750D01*
Y286250D01*
X418400Y285500D02*X419150Y286250D01*
X416900Y285500D02*X418400D01*
X416150Y287000D02*X419150Y290000D01*
X420950Y286250D02*X421700Y285500D01*
X420950Y290750D02*Y286250D01*
Y290750D02*X421700Y291500D01*
X423200D01*
X423950Y290750D01*
Y286250D01*
X423200Y285500D02*X423950Y286250D01*
X421700Y285500D02*X423200D01*
X420950Y287000D02*X423950Y290000D01*
X425750Y286250D02*X426500Y285500D01*
X425750Y290750D02*Y286250D01*
Y290750D02*X426500Y291500D01*
X428000D01*
X428750Y290750D01*
Y286250D01*
X428000Y285500D02*X428750Y286250D01*
X426500Y285500D02*X428000D01*
X425750Y287000D02*X428750Y290000D01*
X430550Y286250D02*X431300Y285500D01*
X430550Y290750D02*Y286250D01*
Y290750D02*X431300Y291500D01*
X432800D01*
X433550Y290750D01*
Y286250D01*
X432800Y285500D02*X433550Y286250D01*
X431300Y285500D02*X432800D01*
X430550Y287000D02*X433550Y290000D01*
X435350Y286250D02*X436100Y285500D01*
X435350Y290750D02*Y286250D01*
Y290750D02*X436100Y291500D01*
X437600D01*
X438350Y290750D01*
Y286250D01*
X437600Y285500D02*X438350Y286250D01*
X436100Y285500D02*X437600D01*
X435350Y287000D02*X438350Y290000D01*
X443600Y287750D02*Y285500D01*
Y287750D02*X444350Y288500D01*
X445100D01*
X445850Y287750D01*
Y285500D01*
Y287750D02*X446600Y288500D01*
X447350D01*
X448100Y287750D01*
Y285500D01*
X442850Y288500D02*X443600Y287750D01*
G54D193*X449900Y290000D02*Y289850D01*
G54D192*Y287750D02*Y285500D01*
X451400Y291500D02*Y286250D01*
X452150Y285500D01*
X454400D02*X456650D01*
X457400Y286250D01*
X456650Y287000D02*X457400Y286250D01*
X454400Y287000D02*X456650D01*
X453650Y287750D02*X454400Y287000D01*
X453650Y287750D02*X454400Y288500D01*
X456650D01*
X457400Y287750D01*
X453650Y286250D02*X454400Y285500D01*
X461900Y291500D02*Y285500D01*
Y287750D02*X462650Y288500D01*
X464150D01*
X464900Y287750D01*
Y285500D01*
G54D193*X466700Y290000D02*Y289850D01*
G54D192*Y287750D02*Y285500D01*
X470450Y288500D02*X471200Y287750D01*
X468950Y288500D02*X470450D01*
X468200Y287750D02*X468950Y288500D01*
X468200Y287750D02*Y286250D01*
X468950Y285500D01*
X470450D01*
X471200Y286250D01*
X468200Y284000D02*X468950Y283250D01*
X470450D01*
X471200Y284000D01*
Y288500D02*Y284000D01*
X473000Y291500D02*Y285500D01*
Y287750D02*X473750Y288500D01*
X475250D01*
X476000Y287750D01*
Y285500D01*
X0Y-9500D02*X3000D01*
X3750Y-8750D01*
Y-6950D02*Y-8750D01*
X3000Y-6200D02*X3750Y-6950D01*
X750Y-6200D02*X3000D01*
X750Y-3500D02*Y-9500D01*
X0Y-3500D02*X3000D01*
X3750Y-4250D01*
Y-5450D01*
X3000Y-6200D02*X3750Y-5450D01*
X5550Y-7250D02*Y-8750D01*
Y-7250D02*X6300Y-6500D01*
X7800D01*
X8550Y-7250D01*
Y-8750D01*
X7800Y-9500D02*X8550Y-8750D01*
X6300Y-9500D02*X7800D01*
X5550Y-8750D02*X6300Y-9500D01*
X12600Y-6500D02*X13350Y-7250D01*
X11100Y-6500D02*X12600D01*
X10350Y-7250D02*X11100Y-6500D01*
X10350Y-7250D02*Y-8750D01*
X11100Y-9500D01*
X13350Y-6500D02*Y-8750D01*
X14100Y-9500D01*
X11100D02*X12600D01*
X13350Y-8750D01*
X16650Y-7250D02*Y-9500D01*
Y-7250D02*X17400Y-6500D01*
X18900D01*
X15900D02*X16650Y-7250D01*
X23700Y-3500D02*Y-9500D01*
X22950D02*X23700Y-8750D01*
X21450Y-9500D02*X22950D01*
X20700Y-8750D02*X21450Y-9500D01*
X20700Y-7250D02*Y-8750D01*
Y-7250D02*X21450Y-6500D01*
X22950D01*
X23700Y-7250D01*
X28200D02*Y-8750D01*
Y-7250D02*X28950Y-6500D01*
X30450D01*
X31200Y-7250D01*
Y-8750D01*
X30450Y-9500D02*X31200Y-8750D01*
X28950Y-9500D02*X30450D01*
X28200Y-8750D02*X28950Y-9500D01*
X33000Y-6500D02*Y-8750D01*
X33750Y-9500D01*
X35250D01*
X36000Y-8750D01*
Y-6500D02*Y-8750D01*
X38550Y-3500D02*Y-8750D01*
X39300Y-9500D01*
X37800Y-5750D02*X39300D01*
X40800Y-3500D02*Y-8750D01*
X41550Y-9500D01*
G54D193*X43050Y-5000D02*Y-5150D01*
G54D192*Y-7250D02*Y-9500D01*
X45300Y-7250D02*Y-9500D01*
Y-7250D02*X46050Y-6500D01*
X46800D01*
X47550Y-7250D01*
Y-9500D01*
X44550Y-6500D02*X45300Y-7250D01*
X50100Y-9500D02*X52350D01*
X49350Y-8750D02*X50100Y-9500D01*
X49350Y-7250D02*Y-8750D01*
Y-7250D02*X50100Y-6500D01*
X51600D01*
X52350Y-7250D01*
X49350Y-8000D02*X52350D01*
Y-7250D02*Y-8000D01*
G54D193*X56850Y-5000D02*Y-5150D01*
G54D192*Y-7250D02*Y-9500D01*
X59100D02*X61350D01*
X62100Y-8750D01*
X61350Y-8000D02*X62100Y-8750D01*
X59100Y-8000D02*X61350D01*
X58350Y-7250D02*X59100Y-8000D01*
X58350Y-7250D02*X59100Y-6500D01*
X61350D01*
X62100Y-7250D01*
X58350Y-8750D02*X59100Y-9500D01*
X67350Y-3500D02*Y-8750D01*
X68100Y-9500D01*
X66600Y-5750D02*X68100D01*
X69600Y-3500D02*Y-9500D01*
Y-7250D02*X70350Y-6500D01*
X71850D01*
X72600Y-7250D01*
Y-9500D01*
X75150D02*X77400D01*
X74400Y-8750D02*X75150Y-9500D01*
X74400Y-7250D02*Y-8750D01*
Y-7250D02*X75150Y-6500D01*
X76650D01*
X77400Y-7250D01*
X74400Y-8000D02*X77400D01*
Y-7250D02*Y-8000D01*
X82650Y-6500D02*X84900D01*
X81900Y-7250D02*X82650Y-6500D01*
X81900Y-7250D02*Y-8750D01*
X82650Y-9500D01*
X84900D01*
X87450D02*X89700D01*
X86700Y-8750D02*X87450Y-9500D01*
X86700Y-7250D02*Y-8750D01*
Y-7250D02*X87450Y-6500D01*
X88950D01*
X89700Y-7250D01*
X86700Y-8000D02*X89700D01*
Y-7250D02*Y-8000D01*
X92250Y-7250D02*Y-9500D01*
Y-7250D02*X93000Y-6500D01*
X93750D01*
X94500Y-7250D01*
Y-9500D01*
X91500Y-6500D02*X92250Y-7250D01*
X97050Y-3500D02*Y-8750D01*
X97800Y-9500D01*
X96300Y-5750D02*X97800D01*
X100050Y-9500D02*X102300D01*
X99300Y-8750D02*X100050Y-9500D01*
X99300Y-7250D02*Y-8750D01*
Y-7250D02*X100050Y-6500D01*
X101550D01*
X102300Y-7250D01*
X99300Y-8000D02*X102300D01*
Y-7250D02*Y-8000D01*
X104850Y-7250D02*Y-9500D01*
Y-7250D02*X105600Y-6500D01*
X107100D01*
X104100D02*X104850Y-7250D01*
X108900Y-3500D02*Y-8750D01*
X109650Y-9500D01*
G54D193*X111150Y-5000D02*Y-5150D01*
G54D192*Y-7250D02*Y-9500D01*
X113400Y-7250D02*Y-9500D01*
Y-7250D02*X114150Y-6500D01*
X114900D01*
X115650Y-7250D01*
Y-9500D01*
X112650Y-6500D02*X113400Y-7250D01*
X118200Y-9500D02*X120450D01*
X117450Y-8750D02*X118200Y-9500D01*
X117450Y-7250D02*Y-8750D01*
Y-7250D02*X118200Y-6500D01*
X119700D01*
X120450Y-7250D01*
X117450Y-8000D02*X120450D01*
Y-7250D02*Y-8000D01*
X124950Y-7250D02*Y-8750D01*
Y-7250D02*X125700Y-6500D01*
X127200D01*
X127950Y-7250D01*
Y-8750D01*
X127200Y-9500D02*X127950Y-8750D01*
X125700Y-9500D02*X127200D01*
X124950Y-8750D02*X125700Y-9500D01*
X130500Y-4250D02*Y-9500D01*
Y-4250D02*X131250Y-3500D01*
X132000D01*
X129750Y-6500D02*X131250D01*
X136950Y-3500D02*Y-8750D01*
X137700Y-9500D01*
X136200Y-5750D02*X137700D01*
X139200Y-3500D02*Y-9500D01*
Y-7250D02*X139950Y-6500D01*
X141450D01*
X142200Y-7250D01*
Y-9500D01*
G54D193*X144000Y-5000D02*Y-5150D01*
G54D192*Y-7250D02*Y-9500D01*
X146250D02*X148500D01*
X149250Y-8750D01*
X148500Y-8000D02*X149250Y-8750D01*
X146250Y-8000D02*X148500D01*
X145500Y-7250D02*X146250Y-8000D01*
X145500Y-7250D02*X146250Y-6500D01*
X148500D01*
X149250Y-7250D01*
X145500Y-8750D02*X146250Y-9500D01*
X153750Y-8750D02*X154500Y-9500D01*
X153750Y-7550D02*Y-8750D01*
Y-7550D02*X154800Y-6500D01*
X155700D01*
X156750Y-7550D01*
Y-8750D01*
X156000Y-9500D02*X156750Y-8750D01*
X154500Y-9500D02*X156000D01*
X153750Y-5450D02*X154800Y-6500D01*
X153750Y-4250D02*Y-5450D01*
Y-4250D02*X154500Y-3500D01*
X156000D01*
X156750Y-4250D01*
Y-5450D01*
X155700Y-6500D02*X156750Y-5450D01*
X158550Y-9500D02*X159300D01*
X161100Y-8750D02*X161850Y-9500D01*
X161100Y-4250D02*Y-8750D01*
Y-4250D02*X161850Y-3500D01*
X163350D01*
X164100Y-4250D01*
Y-8750D01*
X163350Y-9500D02*X164100Y-8750D01*
X161850Y-9500D02*X163350D01*
X161100Y-8000D02*X164100Y-5000D01*
X165900Y-8750D02*X166650Y-9500D01*
X165900Y-4250D02*Y-8750D01*
Y-4250D02*X166650Y-3500D01*
X168150D01*
X168900Y-4250D01*
Y-8750D01*
X168150Y-9500D02*X168900Y-8750D01*
X166650Y-9500D02*X168150D01*
X165900Y-8000D02*X168900Y-5000D01*
X170700Y-8750D02*X171450Y-9500D01*
X170700Y-4250D02*Y-8750D01*
Y-4250D02*X171450Y-3500D01*
X172950D01*
X173700Y-4250D01*
Y-8750D01*
X172950Y-9500D02*X173700Y-8750D01*
X171450Y-9500D02*X172950D01*
X170700Y-8000D02*X173700Y-5000D01*
X175500Y-8750D02*X176250Y-9500D01*
X175500Y-4250D02*Y-8750D01*
Y-4250D02*X176250Y-3500D01*
X177750D01*
X178500Y-4250D01*
Y-8750D01*
X177750Y-9500D02*X178500Y-8750D01*
X176250Y-9500D02*X177750D01*
X175500Y-8000D02*X178500Y-5000D01*
X180300Y-8750D02*X181050Y-9500D01*
X180300Y-4250D02*Y-8750D01*
Y-4250D02*X181050Y-3500D01*
X182550D01*
X183300Y-4250D01*
Y-8750D01*
X182550Y-9500D02*X183300Y-8750D01*
X181050Y-9500D02*X182550D01*
X180300Y-8000D02*X183300Y-5000D01*
X185100Y-8750D02*X185850Y-9500D01*
X185100Y-4250D02*Y-8750D01*
Y-4250D02*X185850Y-3500D01*
X187350D01*
X188100Y-4250D01*
Y-8750D01*
X187350Y-9500D02*X188100Y-8750D01*
X185850Y-9500D02*X187350D01*
X185100Y-8000D02*X188100Y-5000D01*
X193350Y-7250D02*Y-9500D01*
Y-7250D02*X194100Y-6500D01*
X194850D01*
X195600Y-7250D01*
Y-9500D01*
Y-7250D02*X196350Y-6500D01*
X197100D01*
X197850Y-7250D01*
Y-9500D01*
X192600Y-6500D02*X193350Y-7250D01*
G54D193*X199650Y-5000D02*Y-5150D01*
G54D192*Y-7250D02*Y-9500D01*
X201150Y-3500D02*Y-8750D01*
X201900Y-9500D01*
X206850Y-7250D02*Y-9500D01*
Y-7250D02*X207600Y-6500D01*
X209100D01*
X206100D02*X206850Y-7250D01*
X211650Y-9500D02*X213900D01*
X210900Y-8750D02*X211650Y-9500D01*
X210900Y-7250D02*Y-8750D01*
Y-7250D02*X211650Y-6500D01*
X213150D01*
X213900Y-7250D01*
X210900Y-8000D02*X213900D01*
Y-7250D02*Y-8000D01*
X216450Y-6500D02*X218700D01*
X215700Y-7250D02*X216450Y-6500D01*
X215700Y-7250D02*Y-8750D01*
X216450Y-9500D01*
X218700D01*
X221250Y-3500D02*Y-8750D01*
X222000Y-9500D01*
X220500Y-5750D02*X222000D01*
X225750Y-6500D02*X226500Y-7250D01*
X224250Y-6500D02*X225750D01*
X223500Y-7250D02*X224250Y-6500D01*
X223500Y-7250D02*Y-8750D01*
X224250Y-9500D01*
X226500Y-6500D02*Y-8750D01*
X227250Y-9500D01*
X224250D02*X225750D01*
X226500Y-8750D01*
X229800Y-7250D02*Y-9500D01*
Y-7250D02*X230550Y-6500D01*
X231300D01*
X232050Y-7250D01*
Y-9500D01*
X229050Y-6500D02*X229800Y-7250D01*
X236100Y-6500D02*X236850Y-7250D01*
X234600Y-6500D02*X236100D01*
X233850Y-7250D02*X234600Y-6500D01*
X233850Y-7250D02*Y-8750D01*
X234600Y-9500D01*
X236100D01*
X236850Y-8750D01*
X233850Y-11000D02*X234600Y-11750D01*
X236100D01*
X236850Y-11000D01*
Y-6500D02*Y-11000D01*
X238650Y-3500D02*Y-8750D01*
X239400Y-9500D01*
X241650D02*X243900D01*
X240900Y-8750D02*X241650Y-9500D01*
X240900Y-7250D02*Y-8750D01*
Y-7250D02*X241650Y-6500D01*
X243150D01*
X243900Y-7250D01*
X240900Y-8000D02*X243900D01*
Y-7250D02*Y-8000D01*
X248400Y-6500D02*X251400D01*
X255900Y-8750D02*X256650Y-9500D01*
X255900Y-4250D02*Y-8750D01*
Y-4250D02*X256650Y-3500D01*
X258150D01*
X258900Y-4250D01*
Y-8750D01*
X258150Y-9500D02*X258900Y-8750D01*
X256650Y-9500D02*X258150D01*
X255900Y-8000D02*X258900Y-5000D01*
X260700Y-11000D02*X262200Y-9500D01*
X264000Y-8750D02*X264750Y-9500D01*
X264000Y-4250D02*Y-8750D01*
Y-4250D02*X264750Y-3500D01*
X266250D01*
X267000Y-4250D01*
Y-8750D01*
X266250Y-9500D02*X267000Y-8750D01*
X264750Y-9500D02*X266250D01*
X264000Y-8000D02*X267000Y-5000D01*
X272250Y-3500D02*Y-8750D01*
X273000Y-9500D01*
X271500Y-5750D02*X273000D01*
X274500Y-7250D02*Y-8750D01*
Y-7250D02*X275250Y-6500D01*
X276750D01*
X277500Y-7250D01*
Y-8750D01*
X276750Y-9500D02*X277500Y-8750D01*
X275250Y-9500D02*X276750D01*
X274500Y-8750D02*X275250Y-9500D01*
X282000Y-4250D02*X282750Y-3500D01*
X285000D01*
X285750Y-4250D01*
Y-5750D01*
X282000Y-9500D02*X285750Y-5750D01*
X282000Y-9500D02*X285750D01*
X288300D02*X291300Y-3500D01*
X287550D02*X291300D01*
X293100D02*X296100D01*
X293100D02*Y-6500D01*
X293850Y-5750D01*
X295350D01*
X296100Y-6500D01*
Y-8750D01*
X295350Y-9500D02*X296100Y-8750D01*
X293850Y-9500D02*X295350D01*
X293100Y-8750D02*X293850Y-9500D01*
X297900Y-8750D02*X298650Y-9500D01*
X297900Y-4250D02*Y-8750D01*
Y-4250D02*X298650Y-3500D01*
X300150D01*
X300900Y-4250D01*
Y-8750D01*
X300150Y-9500D02*X300900Y-8750D01*
X298650Y-9500D02*X300150D01*
X297900Y-8000D02*X300900Y-5000D01*
X302700Y-9500D02*X303450D01*
X305250Y-8750D02*X306000Y-9500D01*
X305250Y-4250D02*Y-8750D01*
Y-4250D02*X306000Y-3500D01*
X307500D01*
X308250Y-4250D01*
Y-8750D01*
X307500Y-9500D02*X308250Y-8750D01*
X306000Y-9500D02*X307500D01*
X305250Y-8000D02*X308250Y-5000D01*
X310050Y-8750D02*X310800Y-9500D01*
X310050Y-4250D02*Y-8750D01*
Y-4250D02*X310800Y-3500D01*
X312300D01*
X313050Y-4250D01*
Y-8750D01*
X312300Y-9500D02*X313050Y-8750D01*
X310800Y-9500D02*X312300D01*
X310050Y-8000D02*X313050Y-5000D01*
X314850Y-8750D02*X315600Y-9500D01*
X314850Y-4250D02*Y-8750D01*
Y-4250D02*X315600Y-3500D01*
X317100D01*
X317850Y-4250D01*
Y-8750D01*
X317100Y-9500D02*X317850Y-8750D01*
X315600Y-9500D02*X317100D01*
X314850Y-8000D02*X317850Y-5000D01*
X319650Y-8750D02*X320400Y-9500D01*
X319650Y-4250D02*Y-8750D01*
Y-4250D02*X320400Y-3500D01*
X321900D01*
X322650Y-4250D01*
Y-8750D01*
X321900Y-9500D02*X322650Y-8750D01*
X320400Y-9500D02*X321900D01*
X319650Y-8000D02*X322650Y-5000D01*
X324450Y-8750D02*X325200Y-9500D01*
X324450Y-4250D02*Y-8750D01*
Y-4250D02*X325200Y-3500D01*
X326700D01*
X327450Y-4250D01*
Y-8750D01*
X326700Y-9500D02*X327450Y-8750D01*
X325200Y-9500D02*X326700D01*
X324450Y-8000D02*X327450Y-5000D01*
X329250Y-8750D02*X330000Y-9500D01*
X329250Y-4250D02*Y-8750D01*
Y-4250D02*X330000Y-3500D01*
X331500D01*
X332250Y-4250D01*
Y-8750D01*
X331500Y-9500D02*X332250Y-8750D01*
X330000Y-9500D02*X331500D01*
X329250Y-8000D02*X332250Y-5000D01*
X334050Y-11000D02*X335550Y-9500D01*
X337350Y-4250D02*X338100Y-3500D01*
X340350D01*
X341100Y-4250D01*
Y-5750D01*
X337350Y-9500D02*X341100Y-5750D01*
X337350Y-9500D02*X341100D01*
X343650D02*X346650Y-3500D01*
X342900D02*X346650D01*
X348450Y-8750D02*X349200Y-9500D01*
X348450Y-7550D02*Y-8750D01*
Y-7550D02*X349500Y-6500D01*
X350400D01*
X351450Y-7550D01*
Y-8750D01*
X350700Y-9500D02*X351450Y-8750D01*
X349200Y-9500D02*X350700D01*
X348450Y-5450D02*X349500Y-6500D01*
X348450Y-4250D02*Y-5450D01*
Y-4250D02*X349200Y-3500D01*
X350700D01*
X351450Y-4250D01*
Y-5450D01*
X350400Y-6500D02*X351450Y-5450D01*
X353250Y-8750D02*X354000Y-9500D01*
X353250Y-4250D02*Y-8750D01*
Y-4250D02*X354000Y-3500D01*
X355500D01*
X356250Y-4250D01*
Y-8750D01*
X355500Y-9500D02*X356250Y-8750D01*
X354000Y-9500D02*X355500D01*
X353250Y-8000D02*X356250Y-5000D01*
X358050Y-9500D02*X358800D01*
X360600Y-8750D02*X361350Y-9500D01*
X360600Y-4250D02*Y-8750D01*
Y-4250D02*X361350Y-3500D01*
X362850D01*
X363600Y-4250D01*
Y-8750D01*
X362850Y-9500D02*X363600Y-8750D01*
X361350Y-9500D02*X362850D01*
X360600Y-8000D02*X363600Y-5000D01*
X365400Y-8750D02*X366150Y-9500D01*
X365400Y-4250D02*Y-8750D01*
Y-4250D02*X366150Y-3500D01*
X367650D01*
X368400Y-4250D01*
Y-8750D01*
X367650Y-9500D02*X368400Y-8750D01*
X366150Y-9500D02*X367650D01*
X365400Y-8000D02*X368400Y-5000D01*
X370200Y-8750D02*X370950Y-9500D01*
X370200Y-4250D02*Y-8750D01*
Y-4250D02*X370950Y-3500D01*
X372450D01*
X373200Y-4250D01*
Y-8750D01*
X372450Y-9500D02*X373200Y-8750D01*
X370950Y-9500D02*X372450D01*
X370200Y-8000D02*X373200Y-5000D01*
X375000Y-8750D02*X375750Y-9500D01*
X375000Y-4250D02*Y-8750D01*
Y-4250D02*X375750Y-3500D01*
X377250D01*
X378000Y-4250D01*
Y-8750D01*
X377250Y-9500D02*X378000Y-8750D01*
X375750Y-9500D02*X377250D01*
X375000Y-8000D02*X378000Y-5000D01*
X379800Y-8750D02*X380550Y-9500D01*
X379800Y-4250D02*Y-8750D01*
Y-4250D02*X380550Y-3500D01*
X382050D01*
X382800Y-4250D01*
Y-8750D01*
X382050Y-9500D02*X382800Y-8750D01*
X380550Y-9500D02*X382050D01*
X379800Y-8000D02*X382800Y-5000D01*
X384600Y-8750D02*X385350Y-9500D01*
X384600Y-4250D02*Y-8750D01*
Y-4250D02*X385350Y-3500D01*
X386850D01*
X387600Y-4250D01*
Y-8750D01*
X386850Y-9500D02*X387600Y-8750D01*
X385350Y-9500D02*X386850D01*
X384600Y-8000D02*X387600Y-5000D01*
X392850Y-7250D02*Y-9500D01*
Y-7250D02*X393600Y-6500D01*
X394350D01*
X395100Y-7250D01*
Y-9500D01*
Y-7250D02*X395850Y-6500D01*
X396600D01*
X397350Y-7250D01*
Y-9500D01*
X392100Y-6500D02*X392850Y-7250D01*
G54D193*X399150Y-5000D02*Y-5150D01*
G54D192*Y-7250D02*Y-9500D01*
X400650Y-3500D02*Y-8750D01*
X401400Y-9500D01*
X403650D02*X405900D01*
X406650Y-8750D01*
X405900Y-8000D02*X406650Y-8750D01*
X403650Y-8000D02*X405900D01*
X402900Y-7250D02*X403650Y-8000D01*
X402900Y-7250D02*X403650Y-6500D01*
X405900D01*
X406650Y-7250D01*
X402900Y-8750D02*X403650Y-9500D01*
X200750Y306500D02*Y300500D01*
X202700Y306500D02*X203750Y305450D01*
Y301550D01*
X202700Y300500D02*X203750Y301550D01*
X200000Y300500D02*X202700D01*
X200000Y306500D02*X202700D01*
X207800Y303500D02*X208550Y302750D01*
X206300Y303500D02*X207800D01*
X205550Y302750D02*X206300Y303500D01*
X205550Y302750D02*Y301250D01*
X206300Y300500D01*
X208550Y303500D02*Y301250D01*
X209300Y300500D01*
X206300D02*X207800D01*
X208550Y301250D01*
X211850Y306500D02*Y301250D01*
X212600Y300500D01*
X211100Y304250D02*X212600D01*
X214850Y300500D02*X217100D01*
X214100Y301250D02*X214850Y300500D01*
X214100Y302750D02*Y301250D01*
Y302750D02*X214850Y303500D01*
X216350D01*
X217100Y302750D01*
X214100Y302000D02*X217100D01*
Y302750D02*Y302000D01*
X218900Y304250D02*X219650D01*
X218900Y302750D02*X219650D01*
X224150Y306500D02*Y300500D01*
Y306500D02*X226400Y303500D01*
X228650Y306500D01*
Y300500D01*
X230450Y302750D02*Y301250D01*
Y302750D02*X231200Y303500D01*
X232700D01*
X233450Y302750D01*
Y301250D01*
X232700Y300500D02*X233450Y301250D01*
X231200Y300500D02*X232700D01*
X230450Y301250D02*X231200Y300500D01*
X236000Y302750D02*Y300500D01*
Y302750D02*X236750Y303500D01*
X237500D01*
X238250Y302750D01*
Y300500D01*
X235250Y303500D02*X236000Y302750D01*
X242750Y301250D02*X243500Y300500D01*
X242750Y305750D02*Y301250D01*
Y305750D02*X243500Y306500D01*
X245000D01*
X245750Y305750D01*
Y301250D01*
X245000Y300500D02*X245750Y301250D01*
X243500Y300500D02*X245000D01*
X242750Y302000D02*X245750Y305000D01*
X247550Y305300D02*X248750Y306500D01*
Y300500D01*
X247550D02*X249800D01*
X254300Y305000D02*Y300500D01*
Y305000D02*X255350Y306500D01*
X257000D01*
X258050Y305000D01*
Y300500D01*
X254300Y303500D02*X258050D01*
X260600Y302750D02*Y298250D01*
X259850Y303500D02*X260600Y302750D01*
X261350Y303500D01*
X262850D01*
X263600Y302750D01*
Y301250D01*
X262850Y300500D02*X263600Y301250D01*
X261350Y300500D02*X262850D01*
X260600Y301250D02*X261350Y300500D01*
X266150Y302750D02*Y300500D01*
Y302750D02*X266900Y303500D01*
X268400D01*
X265400D02*X266150Y302750D01*
X272900Y305750D02*X273650Y306500D01*
X275900D01*
X276650Y305750D01*
Y304250D01*
X272900Y300500D02*X276650Y304250D01*
X272900Y300500D02*X276650D01*
X278450Y301250D02*X279200Y300500D01*
X278450Y305750D02*Y301250D01*
Y305750D02*X279200Y306500D01*
X280700D01*
X281450Y305750D01*
Y301250D01*
X280700Y300500D02*X281450Y301250D01*
X279200Y300500D02*X280700D01*
X278450Y302000D02*X281450Y305000D01*
X283250Y305300D02*X284450Y306500D01*
Y300500D01*
X283250D02*X285500D01*
X287300Y305750D02*X288050Y306500D01*
X289550D01*
X290300Y305750D01*
X289550Y300500D02*X290300Y301250D01*
X288050Y300500D02*X289550D01*
X287300Y301250D02*X288050Y300500D01*
Y303800D02*X289550D01*
X290300Y305750D02*Y304550D01*
Y303050D02*Y301250D01*
Y303050D02*X289550Y303800D01*
X290300Y304550D02*X289550Y303800D01*
X294800Y301250D02*X295550Y300500D01*
X294800Y305750D02*Y301250D01*
Y305750D02*X295550Y306500D01*
X297050D01*
X297800Y305750D01*
Y301250D01*
X297050Y300500D02*X297800Y301250D01*
X295550Y300500D02*X297050D01*
X294800Y302000D02*X297800Y305000D01*
X299600Y302750D02*X302600Y306500D01*
X299600Y302750D02*X303350D01*
X302600Y306500D02*Y300500D01*
X305150Y304250D02*X305900D01*
X305150Y302750D02*X305900D01*
X307700Y305750D02*X308450Y306500D01*
X310700D01*
X311450Y305750D01*
Y304250D01*
X307700Y300500D02*X311450Y304250D01*
X307700Y300500D02*X311450D01*
X314000D02*X316250Y303500D01*
Y305750D02*Y303500D01*
X315500Y306500D02*X316250Y305750D01*
X314000Y306500D02*X315500D01*
X313250Y305750D02*X314000Y306500D01*
X313250Y305750D02*Y304250D01*
X314000Y303500D01*
X316250D01*
X318050Y304250D02*X318800D01*
X318050Y302750D02*X318800D01*
X320600Y305750D02*X321350Y306500D01*
X322850D01*
X323600Y305750D01*
X322850Y300500D02*X323600Y301250D01*
X321350Y300500D02*X322850D01*
X320600Y301250D02*X321350Y300500D01*
Y303800D02*X322850D01*
X323600Y305750D02*Y304550D01*
Y303050D02*Y301250D01*
Y303050D02*X322850Y303800D01*
X323600Y304550D02*X322850Y303800D01*
X325400Y301250D02*X326150Y300500D01*
X325400Y302450D02*Y301250D01*
Y302450D02*X326450Y303500D01*
X327350D01*
X328400Y302450D01*
Y301250D01*
X327650Y300500D02*X328400Y301250D01*
X326150Y300500D02*X327650D01*
X325400Y304550D02*X326450Y303500D01*
X325400Y305750D02*Y304550D01*
Y305750D02*X326150Y306500D01*
X327650D01*
X328400Y305750D01*
Y304550D01*
X327350Y303500D02*X328400Y304550D01*
X333650Y306500D02*Y300500D01*
X332900Y306500D02*X335900D01*
X336650Y305750D01*
Y304250D01*
X335900Y303500D02*X336650Y304250D01*
X333650Y303500D02*X335900D01*
X338450Y306500D02*Y300500D01*
Y306500D02*X340700Y303500D01*
X342950Y306500D01*
Y300500D01*
X350450Y306500D02*X351200Y305750D01*
X348200Y306500D02*X350450D01*
X347450Y305750D02*X348200Y306500D01*
X347450Y305750D02*Y301250D01*
X348200Y300500D01*
X350450D01*
X351200Y301250D01*
Y302750D02*Y301250D01*
X350450Y303500D02*X351200Y302750D01*
X348950Y303500D02*X350450D01*
X353000Y306500D02*Y300500D01*
Y306500D02*X355250Y303500D01*
X357500Y306500D01*
Y300500D01*
X359300Y306500D02*X362300D01*
X360800D02*Y300500D01*
X366800Y306500D02*Y301250D01*
X367550Y300500D01*
X369050D01*
X369800Y301250D01*
Y306500D02*Y301250D01*
X371600Y306500D02*X374600D01*
X373100D02*Y300500D01*
X377450D02*X379400D01*
X376400Y301550D02*X377450Y300500D01*
X376400Y305450D02*Y301550D01*
Y305450D02*X377450Y306500D01*
X379400D01*
X200000Y320000D02*Y315500D01*
Y320000D02*X201050Y321500D01*
X202700D01*
X203750Y320000D01*
Y315500D01*
X200000Y318500D02*X203750D01*
X205550D02*Y316250D01*
X206300Y315500D01*
X207800D01*
X208550Y316250D01*
Y318500D02*Y316250D01*
X211100Y321500D02*Y316250D01*
X211850Y315500D01*
X210350Y319250D02*X211850D01*
X213350Y321500D02*Y315500D01*
Y317750D02*X214100Y318500D01*
X215600D01*
X216350Y317750D01*
Y315500D01*
X218150Y317750D02*Y316250D01*
Y317750D02*X218900Y318500D01*
X220400D01*
X221150Y317750D01*
Y316250D01*
X220400Y315500D02*X221150Y316250D01*
X218900Y315500D02*X220400D01*
X218150Y316250D02*X218900Y315500D01*
X223700Y317750D02*Y315500D01*
Y317750D02*X224450Y318500D01*
X225950D01*
X222950D02*X223700Y317750D01*
X227750Y319250D02*X228500D01*
X227750Y317750D02*X228500D01*
X233750Y321500D02*Y316250D01*
X234500Y315500D01*
X233000Y319250D02*X234500D01*
X236750Y315500D02*X239000D01*
X236000Y316250D02*X236750Y315500D01*
X236000Y317750D02*Y316250D01*
Y317750D02*X236750Y318500D01*
X238250D01*
X239000Y317750D01*
X236000Y317000D02*X239000D01*
Y317750D02*Y317000D01*
X240800Y321500D02*Y316250D01*
X241550Y315500D01*
X243800Y317750D02*Y315500D01*
Y317750D02*X244550Y318500D01*
X245300D01*
X246050Y317750D01*
Y315500D01*
Y317750D02*X246800Y318500D01*
X247550D01*
X248300Y317750D01*
Y315500D01*
X243050Y318500D02*X243800Y317750D01*
X250100D02*Y316250D01*
Y317750D02*X250850Y318500D01*
X252350D01*
X253100Y317750D01*
Y316250D01*
X252350Y315500D02*X253100Y316250D01*
X250850Y315500D02*X252350D01*
X250100Y316250D02*X250850Y315500D01*
X200000Y336500D02*X203000D01*
X201500D02*Y330500D01*
G54D193*X204800Y335000D02*Y334850D01*
G54D192*Y332750D02*Y330500D01*
X207050Y336500D02*Y331250D01*
X207800Y330500D01*
X206300Y334250D02*X207800D01*
X209300Y336500D02*Y331250D01*
X210050Y330500D01*
X212300D02*X214550D01*
X211550Y331250D02*X212300Y330500D01*
X211550Y332750D02*Y331250D01*
Y332750D02*X212300Y333500D01*
X213800D01*
X214550Y332750D01*
X211550Y332000D02*X214550D01*
Y332750D02*Y332000D01*
X216350Y334250D02*X217100D01*
X216350Y332750D02*X217100D01*
X221600Y331250D02*X222350Y330500D01*
X221600Y335750D02*X222350Y336500D01*
X221600Y335750D02*Y331250D01*
X224150Y333500D02*Y331250D01*
X224900Y330500D01*
X226400D01*
X227150Y331250D01*
Y333500D02*Y331250D01*
X229700Y332750D02*Y330500D01*
Y332750D02*X230450Y333500D01*
X231200D01*
X231950Y332750D01*
Y330500D01*
X228950Y333500D02*X229700Y332750D01*
X233750Y336500D02*Y330500D01*
Y332750D02*X236000Y330500D01*
X233750Y332750D02*X235250Y334250D01*
X238550Y332750D02*Y330500D01*
Y332750D02*X239300Y333500D01*
X240050D01*
X240800Y332750D01*
Y330500D01*
X237800Y333500D02*X238550Y332750D01*
X242600D02*Y331250D01*
Y332750D02*X243350Y333500D01*
X244850D01*
X245600Y332750D01*
Y331250D01*
X244850Y330500D02*X245600Y331250D01*
X243350Y330500D02*X244850D01*
X242600Y331250D02*X243350Y330500D01*
X247400Y333500D02*Y331250D01*
X248150Y330500D01*
X248900D01*
X249650Y331250D01*
Y333500D02*Y331250D01*
X250400Y330500D01*
X251150D01*
X251900Y331250D01*
Y333500D02*Y331250D01*
X254450Y332750D02*Y330500D01*
Y332750D02*X255200Y333500D01*
X255950D01*
X256700Y332750D01*
Y330500D01*
X253700Y333500D02*X254450Y332750D01*
X258500Y336500D02*X259250Y335750D01*
Y331250D01*
X258500Y330500D02*X259250Y331250D01*
X263750Y333500D02*X266750D01*
X271250Y336500D02*Y330500D01*
Y336500D02*X274250D01*
X271250Y333800D02*X273500D01*
X278300Y333500D02*X279050Y332750D01*
X276800Y333500D02*X278300D01*
X276050Y332750D02*X276800Y333500D01*
X276050Y332750D02*Y331250D01*
X276800Y330500D01*
X279050Y333500D02*Y331250D01*
X279800Y330500D01*
X276800D02*X278300D01*
X279050Y331250D01*
X281600Y336500D02*Y330500D01*
Y331250D02*X282350Y330500D01*
X283850D01*
X284600Y331250D01*
Y332750D02*Y331250D01*
X283850Y333500D02*X284600Y332750D01*
X282350Y333500D02*X283850D01*
X281600Y332750D02*X282350Y333500D01*
X287150Y332750D02*Y330500D01*
Y332750D02*X287900Y333500D01*
X289400D01*
X286400D02*X287150Y332750D01*
G54D193*X291200Y335000D02*Y334850D01*
G54D192*Y332750D02*Y330500D01*
X293450Y333500D02*X295700D01*
X292700Y332750D02*X293450Y333500D01*
X292700Y332750D02*Y331250D01*
X293450Y330500D01*
X295700D01*
X299750Y333500D02*X300500Y332750D01*
X298250Y333500D02*X299750D01*
X297500Y332750D02*X298250Y333500D01*
X297500Y332750D02*Y331250D01*
X298250Y330500D01*
X300500Y333500D02*Y331250D01*
X301250Y330500D01*
X298250D02*X299750D01*
X300500Y331250D01*
X303800Y336500D02*Y331250D01*
X304550Y330500D01*
X303050Y334250D02*X304550D01*
G54D193*X306050Y335000D02*Y334850D01*
G54D192*Y332750D02*Y330500D01*
X307550Y332750D02*Y331250D01*
Y332750D02*X308300Y333500D01*
X309800D01*
X310550Y332750D01*
Y331250D01*
X309800Y330500D02*X310550Y331250D01*
X308300Y330500D02*X309800D01*
X307550Y331250D02*X308300Y330500D01*
X313100Y332750D02*Y330500D01*
Y332750D02*X313850Y333500D01*
X314600D01*
X315350Y332750D01*
Y330500D01*
X312350Y333500D02*X313100Y332750D01*
X320600Y336500D02*Y330500D01*
X322550Y336500D02*X323600Y335450D01*
Y331550D01*
X322550Y330500D02*X323600Y331550D01*
X319850Y330500D02*X322550D01*
X319850Y336500D02*X322550D01*
X326150Y332750D02*Y330500D01*
Y332750D02*X326900Y333500D01*
X328400D01*
X325400D02*X326150Y332750D01*
X332450Y333500D02*X333200Y332750D01*
X330950Y333500D02*X332450D01*
X330200Y332750D02*X330950Y333500D01*
X330200Y332750D02*Y331250D01*
X330950Y330500D01*
X333200Y333500D02*Y331250D01*
X333950Y330500D01*
X330950D02*X332450D01*
X333200Y331250D01*
X335750Y333500D02*Y331250D01*
X336500Y330500D01*
X337250D01*
X338000Y331250D01*
Y333500D02*Y331250D01*
X338750Y330500D01*
X339500D01*
X340250Y331250D01*
Y333500D02*Y331250D01*
G54D193*X342050Y335000D02*Y334850D01*
G54D192*Y332750D02*Y330500D01*
X344300Y332750D02*Y330500D01*
Y332750D02*X345050Y333500D01*
X345800D01*
X346550Y332750D01*
Y330500D01*
X343550Y333500D02*X344300Y332750D01*
X350600Y333500D02*X351350Y332750D01*
X349100Y333500D02*X350600D01*
X348350Y332750D02*X349100Y333500D01*
X348350Y332750D02*Y331250D01*
X349100Y330500D01*
X350600D01*
X351350Y331250D01*
X348350Y329000D02*X349100Y328250D01*
X350600D01*
X351350Y329000D01*
Y333500D02*Y329000D01*
M02*
