G04 start of page 3 for group 1 idx 6 *
G04 Title: (unknown), component-12V *
G04 Creator: pcb 20110918 *
G04 CreationDate: Mon 01 Apr 2013 04:29:37 PM GMT UTC *
G04 For: telmo *
G04 Format: Gerber/RS-274X *
G04 PCB-Dimensions: 275000 278000 *
G04 PCB-Coordinate-Origin: lower left *
%MOIN*%
%FSLAX25Y25*%
%LNTOP*%
%ADD148C,0.0460*%
%ADD147C,0.0635*%
%ADD146C,0.0380*%
%ADD145C,0.1250*%
%ADD144C,0.0520*%
%ADD143C,0.0200*%
%ADD142C,0.1968*%
%ADD141C,0.0360*%
%ADD140C,0.3150*%
%ADD139R,0.0158X0.0158*%
%ADD138R,0.1220X0.1220*%
%ADD137R,0.0560X0.0560*%
%ADD136R,0.0240X0.0240*%
%ADD135R,0.0840X0.0840*%
%ADD134R,0.0110X0.0110*%
%ADD133R,0.0472X0.0472*%
%ADD132C,0.0750*%
%ADD131C,0.0650*%
%ADD130C,0.0935*%
%ADD129C,0.0600*%
%ADD128C,0.1950*%
%ADD127C,0.0720*%
%ADD126C,0.0001*%
%ADD125C,0.0400*%
%ADD124C,0.0150*%
%ADD123C,0.0100*%
%ADD122C,0.0250*%
G54D122*X202150Y77780D02*X195380D01*
X193350Y79810D01*
Y104480D01*
X195320Y106450D01*
X194545Y105675D02*X197130Y108260D01*
X195320Y106450D02*X202012D01*
X197130Y114790D02*Y106450D01*
X200727D01*
X197130Y108260D02*Y109920D01*
Y108330D01*
X199010Y106450D01*
X247500Y133500D02*Y130100D01*
Y128960D02*Y137280D01*
X245750Y139030D02*X199500D01*
X197130Y136660D01*
Y110694D01*
X247500Y131940D02*Y139020D01*
X246000Y187000D02*X252000Y181000D01*
X249975Y183025D02*X247750Y185250D01*
X249725Y183275D02*X247740Y185260D01*
Y187000D01*
X247500Y139020D02*X252000Y143520D01*
X247510Y139030D02*X249820Y141340D01*
X252000Y143520D02*Y181000D01*
X242810Y139030D02*X247510D01*
X247750Y185250D02*X245990D01*
G54D123*X134321Y200921D02*X136250Y202850D01*
X133200Y200921D02*X134321D01*
X131471D02*X134321D01*
X132579D02*X133921D01*
X134321D02*X136700Y203300D01*
G54D124*X126500Y217500D02*X136500Y207500D01*
X116499Y217500D02*X126500D01*
G54D123*X135500Y208500D02*X134500Y209500D01*
G54D122*X92500Y241500D02*X107250Y226750D01*
X103385Y230615D02*X105240Y228760D01*
Y226970D01*
X102630Y231370D02*X105250Y228750D01*
X107050D01*
X81950Y241500D02*X92500D01*
G54D124*X106999Y227000D02*X116499Y217500D01*
X110849Y223150D02*X109239Y224760D01*
X112754Y221245D02*X109250Y224749D01*
X109239Y224760D02*X106910D01*
X109250Y224749D02*Y227160D01*
G54D122*X143000Y100500D02*X151500D01*
X132500D02*X143500D01*
X141900D02*X139700D01*
X140800D01*
X145200D02*X146040D01*
X144000Y152450D02*Y100500D01*
X143000D02*Y91000D01*
X145500Y77500D02*X153000D01*
X143000Y80000D02*X145500Y77500D01*
X143000Y92200D02*Y80000D01*
Y98300D02*X145200Y100500D01*
X145970D02*Y100630D01*
X144000Y102600D01*
X141900Y100500D01*
X140800D02*X143000Y98300D01*
G54D124*X141760Y161240D02*X145830D01*
X139500Y163500D02*X141760Y161240D01*
X144000Y159000D02*X141500Y161500D01*
X142250Y160750D02*X134500Y168500D01*
X144000Y156000D02*Y159000D01*
G54D122*Y151000D02*Y160750D01*
Y155910D02*Y157760D01*
X149150Y160750D02*X152200Y157700D01*
Y163800D01*
X149150Y160750D01*
X144000D02*X152000D01*
G54D124*X152300D02*X142250D01*
G54D122*X147000D02*X149150D01*
X145370D01*
X144000Y157760D02*X146990Y160750D01*
G54D124*X145100Y184000D02*X151000Y189900D01*
X142600Y184000D02*X145100D01*
G54D123*X145048Y179471D02*Y184000D01*
Y182370D02*Y183082D01*
X143346Y183750D02*X141320D01*
G54D124*X136000Y184000D02*X143000D01*
X134500Y182500D02*X136000Y184000D01*
X134500Y168500D02*Y182500D01*
G54D123*X145048Y183082D02*X144130Y184000D01*
G54D124*X151000Y189900D02*Y207400D01*
Y207300D01*
Y203220D02*Y205030D01*
G54D123*X151400Y207400D02*X152921Y208921D01*
X152335Y208335D02*X151640Y207640D01*
X152921Y208921D02*Y216631D01*
Y213630D02*Y215921D01*
X154350Y217350D01*
X148984Y208444D02*X147940Y207400D01*
X149000D02*X151400D01*
X148984Y207416D02*X149000Y207400D01*
X148984Y212529D02*Y207416D01*
Y209080D02*Y208444D01*
Y209190D02*Y208406D01*
X149990Y207400D01*
G54D124*X136600D02*X136000Y208000D01*
G54D123*X136250Y202850D02*Y204740D01*
G54D124*X136500Y207500D02*Y203500D01*
X140340Y207400D02*X138760D01*
X136500Y205140D01*
X151000Y207400D02*X136600D01*
X151000Y205030D02*X148630Y207400D01*
G54D123*X151640Y207640D02*X146810D01*
X152921Y216631D02*X154360Y218070D01*
G54D124*X159525Y222875D02*X153390Y216740D01*
X159525Y222875D02*X166655D01*
X164960D02*X159525D01*
X166655D02*X169820Y226040D01*
Y230922D01*
Y227180D02*Y227510D01*
X168420Y228910D01*
X169820Y227020D02*Y227590D01*
X171530Y229300D01*
G54D122*X115500Y82500D02*X110500Y77500D01*
X115500Y91000D02*Y82500D01*
X103500Y77500D02*X110500D01*
X114343Y100422D02*Y96163D01*
X114320Y96140D01*
X115500Y94960D01*
Y85470D01*
G54D123*X126500Y201000D02*X128000Y199500D01*
X128548Y198952D02*X127500Y200000D01*
X131471Y198952D02*X128548D01*
X126500Y211000D02*Y201000D01*
Y208510D02*Y209170D01*
X125510Y210160D01*
X126500Y207910D02*Y209170D01*
X127500Y210170D01*
X152600Y188000D02*X153500Y188900D01*
X148985Y184385D02*X161585Y196985D01*
X148985Y179471D02*Y184385D01*
G54D124*X201060Y171100D02*Y172940D01*
X201100Y172980D01*
G54D122*X171000Y62000D02*X165000Y68000D01*
X180500Y62000D02*X171000D01*
X166635Y66365D02*X165000Y68000D01*
Y81840D01*
X160340Y86500D01*
X201440Y90240D02*X203810Y87870D01*
X190700Y51800D02*X180500Y62000D01*
X190700Y45100D02*Y51800D01*
Y49810D02*Y48420D01*
X189020Y46740D01*
X190700Y49950D02*Y48430D01*
X192340Y46790D01*
X159099Y112300D02*X169825D01*
X169926Y112400D01*
X159174Y92210D02*Y87666D01*
Y97500D02*Y86500D01*
Y100000D02*Y92674D01*
Y100500D02*Y112300D01*
X160340Y86500D02*X153000D01*
X153464D01*
X159174Y92210D01*
Y87666D02*X161385Y85455D01*
X201440Y98510D02*Y86780D01*
Y91180D02*Y90240D01*
Y93310D02*Y90210D01*
X199590Y88360D01*
X97500Y110000D02*X100626Y106874D01*
X97500Y124153D02*Y110000D01*
X104705Y131358D02*X97500Y124153D01*
X100104Y126756D02*X102220Y128873D01*
Y131390D01*
Y128873D02*X98858Y125512D01*
X102207Y128860D01*
X104790D01*
X106500Y101000D02*X99500Y108000D01*
X106500Y100000D02*Y101000D01*
Y100500D02*Y86000D01*
X94000Y84500D02*X73000D01*
X96000Y86500D02*X94000Y84500D01*
X103500Y86500D02*X96000D01*
X41100Y45100D02*Y46600D01*
Y45100D02*Y51400D01*
Y49600D02*Y48420D01*
X42870Y46650D01*
X41100Y50140D02*Y48410D01*
X39430Y46740D01*
X60374Y65874D02*X68626D01*
Y66000D02*Y80126D01*
X73000Y84500D02*X68626Y80126D01*
X55574Y65874D02*X61730D01*
X41100Y51400D02*X55574Y65874D01*
X87300Y181500D02*X86900Y181900D01*
X85700Y183100D02*X87300Y181500D01*
X85700Y190500D02*Y183100D01*
X81400Y194800D02*X85700Y190500D01*
X62000Y194800D02*X81400D01*
X64000Y200500D02*Y189000D01*
X110500Y181500D02*X87300D01*
X110500Y190500D02*Y181500D01*
X202500Y151800D02*Y165900D01*
X199600Y148900D02*X202500Y151800D01*
X252000Y98500D02*X256500Y103000D01*
X203379Y98500D02*X252000D01*
X201440Y96560D02*X203379Y98500D01*
X256500Y103000D02*Y184000D01*
G54D124*X250000Y192000D02*X255000Y187000D01*
G54D123*X209160Y183000D02*Y182510D01*
X202990Y176340D01*
X209160Y181810D02*X204560Y177210D01*
X209160Y183700D02*Y181810D01*
G54D122*X239465Y183535D02*X237750Y185250D01*
Y187040D01*
X239770Y183230D02*X237750Y185250D01*
X236050D01*
G54D124*X256000Y186000D02*Y182500D01*
X253000Y189000D02*X256000Y186000D01*
X253500Y188500D02*X257000Y185000D01*
Y180500D01*
X241000Y192000D02*X250000D01*
X236000Y197000D02*X241000Y192000D01*
X240090Y192910D02*X238260Y194740D01*
X235980D01*
X239755Y193245D02*X238240Y194760D01*
G54D122*X23500Y126009D02*Y131000D01*
Y128509D02*Y140500D01*
X32228Y117281D02*X23500Y126009D01*
X25780Y123730D02*X28790Y120719D01*
Y117430D01*
Y120719D02*X24994Y124514D01*
X28799Y120710D01*
X32270D01*
X38800Y156700D02*X64000D01*
X59290D02*X62160D01*
X64000Y162374D02*Y151000D01*
X64126Y162500D02*X64000Y162374D01*
X62160Y156700D02*X64000Y158540D01*
Y154130D01*
Y154920D01*
X62220Y156700D01*
X26000Y222500D02*X23500Y220000D01*
X35500Y222500D02*X26000D01*
X46500Y211500D02*X35500Y222500D01*
X63050Y211500D02*X46500D01*
X40700Y194800D02*X64000D01*
X65820D02*X64000Y192980D01*
X62180Y194800D01*
X58150D02*X62240D01*
X64000Y196560D01*
X65760Y194800D01*
X67630D01*
X65820D01*
X62180D02*X60500D01*
X29500Y206000D02*X40700Y194800D01*
X32870Y202630D02*X31270Y204230D01*
Y205900D01*
X33030Y202470D02*X31240Y204260D01*
X23500Y200000D02*Y172000D01*
X29500Y206000D02*X23500D01*
X29500D02*X26240D01*
X25430D02*X27040D01*
X28390Y207350D01*
X25490Y206000D02*X27010D01*
X28200Y204810D01*
X23500Y220000D02*Y196500D01*
X25460Y206000D02*X23500Y207960D01*
Y210200D01*
X31240Y204260D02*X29360D01*
X23500Y202920D02*Y204040D01*
X25460Y206000D01*
X38800Y156700D02*X40800D01*
X29500Y166000D02*X38800Y156700D01*
X32860Y162640D02*X31250Y164250D01*
X33015Y162485D02*X31240Y164260D01*
Y166100D01*
X29500Y166000D02*X23500D01*
Y164180D02*X25320Y166000D01*
X23500Y167820D01*
X25480Y166000D02*X27040D01*
X24940D02*X27050D01*
X23500Y137500D02*Y173500D01*
Y161750D02*Y164180D01*
Y167820D02*Y169010D01*
X27040Y166000D02*X28400Y164640D01*
X27050Y166000D02*X28370Y167320D01*
X31250Y164250D02*X29460D01*
G54D123*X171335Y196985D02*X174340Y193980D01*
G54D124*X181190Y186780D02*X171980Y195990D01*
X186000Y202000D02*X183882Y199882D01*
Y196764D01*
X189000Y206804D02*Y202000D01*
Y203490D02*X187510Y202000D01*
G54D123*X165280Y196985D02*X171335D01*
X163860D02*X170655D01*
X161585D02*X164529D01*
G54D124*X181190Y182090D02*Y186780D01*
X183882Y179398D02*X181190Y182090D01*
X183882Y177130D02*Y179398D01*
X190490Y202000D02*X189000Y203490D01*
X189014Y232005D02*X189000Y231991D01*
X186000Y227000D02*X183896Y224896D01*
Y221966D01*
X189000Y231991D02*Y227000D01*
Y228690D02*X187310Y227000D01*
X186000D02*X194000D01*
X191740D02*X190690D01*
X189000Y228690D01*
X194000Y227000D02*X199000Y222000D01*
G54D123*X147015Y212529D02*Y214365D01*
Y213400D02*Y215545D01*
Y213700D02*Y221245D01*
X149090Y223320D01*
G54D124*X156000Y229890D02*X148810Y222700D01*
X151715Y225605D02*X153760Y227650D01*
Y230070D01*
X152305Y226195D02*X153860Y227750D01*
X156060D01*
G54D123*X147015Y220545D02*X150660Y224190D01*
X170655Y196985D02*X174150Y193490D01*
G54D124*X183882Y176764D02*Y173000D01*
X184882Y172000D01*
G54D122*X159700Y148900D02*X199600D01*
X157300Y151300D02*X159700Y148900D01*
X157300Y160750D02*Y151300D01*
G54D124*X184882Y172000D02*X202500D01*
X194790D02*X199000D01*
X202000Y175000D02*Y169210D01*
X196800Y172000D02*X198980D01*
X202500Y168480D01*
Y169660D01*
X201060Y171100D01*
G54D122*X247500Y175500D02*Y165900D01*
X242000Y181000D02*X244500D01*
X247500Y178000D01*
Y174500D01*
G54D124*X202500Y175500D02*Y165900D01*
G54D122*Y164540D02*Y174460D01*
G54D124*X205035Y178035D02*X203000Y176000D01*
Y172590D01*
X205290Y178290D02*X202000Y175000D01*
X199000Y172000D02*X205340Y178340D01*
G54D122*X236000Y187000D02*X242000Y181000D01*
G54D124*X241000Y192000D02*X244660D01*
X238240Y194760D02*Y197110D01*
X208000Y202000D02*X186000D01*
X192000D02*X191000D01*
X205300D02*X208600D01*
X192230D02*X190490D01*
X207230D02*X208800D01*
G54D123*X208290D02*X209160Y201130D01*
Y199160D01*
G54D124*X236000Y227000D02*X231000Y222000D01*
X232465Y223465D02*X233750Y224750D01*
Y227090D01*
X231995Y222995D02*X233750Y224750D01*
X236090D01*
X231000Y222000D02*X199000D01*
G54D123*X206020D02*X208310D01*
X209160Y221150D01*
X210010Y222000D01*
X211560D01*
X209160Y182160D02*Y222000D01*
Y203190D02*Y202870D01*
X208290Y202000D01*
X137000Y199000D02*X142500D01*
X134984Y196984D02*X137000Y199000D01*
X139590D02*X140660D01*
X138280D02*X140660D01*
X141640Y198020D01*
X122800Y209200D02*X122300Y209700D01*
Y211060D01*
X123100Y208900D02*X122300Y209700D01*
X135985Y195015D02*X137000Y194000D01*
X131471Y195015D02*X135985D01*
X131471Y196984D02*X134984D01*
X131471D02*X131455Y197000D01*
X134750Y195015D02*X134855D01*
X135890Y194030D02*X134910Y195010D01*
X134855Y195015D02*X135890Y193980D01*
Y194030D01*
X140660Y199000D02*X141610Y199950D01*
X164529Y204859D02*X170000D01*
X166141D02*X169509D01*
X171860Y207210D01*
X170209Y204859D02*X171690Y206340D01*
X167050Y204859D02*X170209D01*
X164529Y206827D02*X167827D01*
X168500Y207500D01*
X165827Y206827D02*X167477D01*
X165640D02*X168187D01*
Y206837D01*
X169580Y208230D01*
X170000Y204859D02*X171500Y206359D01*
G54D124*X177118Y206118D02*X174500Y203500D01*
G54D123*X174240Y202890D02*X176700Y205350D01*
X173540Y202890D02*X175800Y205150D01*
X164529Y202890D02*X173000D01*
X166890D02*X174240D01*
X171010D02*X173540D01*
X164529Y200922D02*X173428D01*
X166080D02*X172728D01*
X164529Y198953D02*X170397D01*
X164420D02*X169697D01*
X137174Y170826D02*X142000Y166000D01*
G54D124*X137885Y170115D01*
G54D123*X137174Y170476D02*X138250Y169400D01*
X137174Y179471D02*Y170826D01*
X139142Y179471D02*Y174508D01*
Y179471D02*Y175208D01*
X137174Y172630D02*Y171176D01*
G54D124*X144000Y170000D02*X140000Y174000D01*
G54D123*X139142Y174508D02*X141570Y172080D01*
X139142Y175208D02*X142120Y172230D01*
X137174Y173196D02*Y170476D01*
Y171176D02*X138390Y169960D01*
G54D124*X147250Y166000D02*X142000D01*
X144380D02*X146010D01*
X146760Y166750D01*
X143310Y166000D02*X146030D01*
G54D123*X123500Y208500D02*Y199000D01*
X121500Y205000D02*Y197500D01*
Y196000D02*Y198500D01*
X126422Y191078D02*X121500Y196000D01*
X123500Y197047D02*Y199500D01*
X127500Y193047D02*X123500Y197047D01*
X131471Y185173D02*X124673D01*
X131471Y187141D02*X124500D01*
X131471Y189110D02*X125390D01*
X131471Y191078D02*X126422D01*
X131471Y193047D02*X127500D01*
G54D124*X169000Y179500D02*X163970Y174470D01*
X162950Y178450D02*X163970D01*
X165890Y176390D02*X167950Y178450D01*
X166215Y176715D02*X167950Y178450D01*
G54D123*X158730Y175500D02*X159650D01*
X161610Y177460D01*
X158870Y175500D02*X160340D01*
X161530Y176690D01*
G54D124*X164000Y179500D02*X160790Y176290D01*
X161420Y176920D02*X162950Y178450D01*
Y179540D01*
X161325Y176825D02*X162950Y178450D01*
G54D123*X162710Y173560D02*X164670Y175520D01*
X163360Y173520D02*X164550Y174710D01*
X163725Y173885D02*X163340Y173500D01*
X162020D01*
G54D124*X167950Y178450D02*Y179560D01*
Y178450D02*X169060D01*
G54D123*X145380Y225972D02*X143078Y223670D01*
X145047Y216450D02*Y222167D01*
X144234Y224826D02*X144290Y224882D01*
X143078Y212529D02*Y223668D01*
X141110Y212529D02*Y224970D01*
X137173Y212529D02*Y218327D01*
X139141Y219359D02*X136500Y222000D01*
X139141Y212529D02*Y219359D01*
X150952Y212529D02*Y218252D01*
Y214152D02*Y218252D01*
Y214200D02*Y217652D01*
X144290Y224882D02*Y226970D01*
X141805Y225665D02*Y233045D01*
X141110Y224970D02*X141805Y225665D01*
X141800Y232350D02*X139730Y234420D01*
X141800Y227530D02*Y232350D01*
Y233050D02*X140490Y234360D01*
G54D124*X129500Y245000D02*X141000Y233500D01*
G54D123*X135500Y220000D02*X124000D01*
X137173Y218327D02*X135500Y220000D01*
X136500Y222000D02*X132000D01*
X129500Y224500D02*Y227150D01*
X132000Y222000D02*X127000Y227000D01*
X130315Y223685D02*X129500Y224500D01*
X130925Y223075D02*X129500Y224500D01*
X126990D01*
X145380Y227430D02*Y225972D01*
X148695Y225815D02*X150750Y227870D01*
X145047Y222167D02*X151250Y228370D01*
G54D124*X163100Y230100D02*X151500Y218500D01*
G54D123*X150952Y218252D02*X152800Y220100D01*
X150750Y227870D02*Y229760D01*
X151250Y228370D02*Y229720D01*
G54D124*X151000Y235000D02*Y229000D01*
X151500Y235500D02*X151000Y235000D01*
X157204Y238796D02*X156000Y240000D01*
G54D122*X162760D02*X156000D01*
X160670D02*X158480D01*
X157160Y241320D01*
X161460Y240000D02*X158440D01*
X157060Y238620D01*
G54D124*X156000Y240000D02*X151000Y235000D01*
X152305Y236305D02*X153750Y237750D01*
Y240020D01*
X152520Y236520D02*X153750Y237750D01*
X156130D01*
G54D123*X150952Y217652D02*X153000Y219700D01*
G54D124*X162000Y219000D02*X160000Y217000D01*
G54D123*X158826Y212529D02*Y216176D01*
X160640Y217990D01*
X158826Y213890D02*Y215476D01*
X160780Y217430D01*
X188335Y192495D02*X189220Y193380D01*
X189000Y193250D02*X188720D01*
X185540Y192495D02*X188335D01*
X188720Y193250D02*X187990Y192520D01*
X189000Y194940D02*Y193250D01*
X187995Y192495D02*X182475D01*
G54D124*X189000Y195320D02*Y193500D01*
Y196764D02*Y193500D01*
G54D123*X174048Y200922D02*X172490D01*
X172227Y198953D02*X174810Y196370D01*
X172937Y198953D02*X176260Y195630D01*
X170000Y205000D02*X171500Y206500D01*
G54D124*X170500Y205500D01*
G54D123*X182475Y192495D02*X174048Y200922D01*
G54D124*X183882Y187658D02*X173010Y198530D01*
X180830Y206118D02*X182020D01*
X181360D01*
X182020D02*X183148Y204990D01*
X183810D01*
X183882Y186780D02*Y187658D01*
Y186804D02*Y183118D01*
X185000Y182000D01*
X184410Y182590D01*
X205000Y197000D02*X189000D01*
G54D122*X205000D02*X189710D01*
X205031Y187078D02*X198478D01*
X194410Y183010D01*
G54D124*X185500Y182000D02*X192700D01*
X195420Y184720D01*
X188350Y182000D02*X194100D01*
X196010Y183910D01*
X188380Y182000D02*X185000D01*
X189000Y195390D02*X190610Y197000D01*
X189010Y198600D01*
G54D123*X164650Y198953D02*X172227D01*
X168780D02*X172937D01*
X168994Y195016D02*X172050Y191960D01*
X167402Y193048D02*X168870Y191580D01*
X168102Y193048D02*X169730Y191420D01*
X167452Y193048D02*X170700Y189800D01*
G54D124*X176000Y184800D02*X168200Y192600D01*
G54D123*X164529Y195016D02*X168994D01*
X169694D02*X171260Y193450D01*
X166310Y195016D02*X169694D01*
X165370Y193048D02*X167402D01*
X165552D02*X168102D01*
X164529D02*X167452D01*
G54D125*X226000Y187000D02*X212984D01*
X212905Y187078D02*X225922D01*
X226000Y197000D02*X212874D01*
X226000Y207000D02*X213000D01*
X226000Y217000D02*X212984D01*
X212905Y217078D01*
X226000Y227000D02*X212826D01*
G54D124*X241000Y229700D02*Y213900D01*
X239100Y212000D01*
X232800D01*
X231000Y210200D01*
G54D125*X212826Y227000D02*X212796Y227031D01*
G54D124*X208600Y232800D02*X237900D01*
X241000Y229700D01*
G54D125*X225922Y187078D02*X226000Y187000D01*
G54D124*X231000Y210200D02*Y184500D01*
X228400Y181900D01*
X231000Y185300D02*Y184720D01*
Y185760D02*Y184030D01*
G54D125*X212984Y187000D02*X212905Y187078D01*
G54D124*X212500Y177300D02*Y165900D01*
X222500D02*Y176000D01*
X232500Y165900D02*Y176000D01*
X242500Y165900D02*Y176000D01*
G54D122*Y165900D02*Y175980D01*
X232500Y165900D02*Y176530D01*
X222500Y166030D02*Y176000D01*
X212500Y177300D02*X216450Y181250D01*
X212500Y177300D02*X214925Y179725D01*
X216450Y181250D02*X227540D01*
G54D124*X231000Y184720D02*X227530Y181250D01*
X231000Y184030D02*X227810Y180840D01*
X184000Y217000D02*X205031D01*
X187540D02*X187544D01*
X190484D02*X190870D01*
G54D122*X204960Y207000D02*X196630D01*
X192780Y210850D01*
G54D124*X190940Y212000D02*X194670Y208270D01*
X192330Y212000D02*X195350Y208980D01*
X187630Y212000D02*X190940D01*
X187720D02*X192330D01*
X182000Y217000D02*X171000Y206000D01*
X183882Y206118D02*X177118D01*
X178760Y213760D02*X180980Y215980D01*
X182020Y206118D02*X183882Y207980D01*
Y206804D02*X182706D01*
X182020Y206118D01*
X180000Y219000D02*X168500Y207500D01*
X169520Y219000D02*X170310Y218210D01*
G54D123*X167477Y206827D02*X169700Y209050D01*
G54D124*X167910Y219000D02*X169510D01*
X186000Y237000D02*X183896Y234896D01*
X176600Y234800D02*X181900Y240100D01*
X185530Y236530D02*X186000Y237000D01*
X192240D01*
X188300D02*X190820D01*
X183896Y234896D02*Y232005D01*
Y232104D02*Y229896D01*
X177100Y235300D02*X176600Y234800D01*
X165100D01*
X163100Y232800D01*
Y230100D01*
Y230900D02*Y230100D01*
X174600Y234800D02*X176600D01*
G54D122*X201498Y227032D02*X192370Y236160D01*
G54D124*X181900Y240100D02*X201300D01*
X208600Y232800D01*
X192240Y237000D02*X193770Y235470D01*
X190820Y237000D02*X193050Y234770D01*
G54D122*X169844Y238795D02*X163965D01*
X162760Y240000D01*
G54D124*X187000Y217000D02*X182000D01*
X190000Y212000D02*X185000D01*
X183882Y210882D01*
Y206804D01*
X183896Y229896D02*X180000Y226000D01*
G54D122*X204921Y227032D02*X201498D01*
G54D124*X180000Y226000D02*Y219000D01*
X171000D02*X162000D01*
X169510D02*X170270Y219760D01*
X165110Y219000D02*X169520D01*
X189014Y221966D02*Y217000D01*
Y220820D02*Y218474D01*
X187540Y217000D01*
X187544D02*X189014Y218470D01*
X190484Y217000D01*
G54D122*X205031Y217078D02*X204432Y216480D01*
X182280D01*
G54D124*X180980Y215980D02*X184830D01*
X78126Y75874D02*X86000D01*
X76500Y77500D02*X78126Y75874D01*
G54D122*X76500Y77500D02*X78126Y75874D01*
X76055Y77945D02*X77379D01*
X79450Y75874D01*
G54D124*X78126D02*X87000D01*
G54D122*X78126D02*X88000D01*
X124500Y107500D02*Y100000D01*
G54D123*X151225Y112300D02*X155100Y116174D01*
Y115600D02*X151430Y111930D01*
G54D122*X130500Y113500D02*X124500Y107500D01*
X126135Y109135D02*X127790Y110790D01*
Y113580D01*
Y110790D02*X126025Y109025D01*
X128140Y111140D01*
X130420D01*
G54D124*X62000Y226500D02*X72000D01*
X63050Y221500D02*X53500D01*
X63050Y231500D02*X53500D01*
X76500Y245000D02*X129500D01*
X68000Y236500D02*X76500Y245000D01*
X63050Y236500D02*X68000D01*
X63050Y241500D02*X53500D01*
G54D122*X60490D02*X53450D01*
X62470Y226500D02*X72320D01*
G54D123*X120335Y223665D02*X119490Y224510D01*
X116930D01*
X121385Y222615D02*X119510Y224490D01*
Y227050D01*
G54D122*X62050Y231500D02*X53390D01*
G54D123*X142000Y166000D02*X148000D01*
X113126Y173626D02*X111126D01*
G54D124*X99374Y167500D02*X94500D01*
G54D122*X72000Y166960D02*X69170Y169790D01*
X55280D01*
G54D124*X146030Y166000D02*X146800Y165230D01*
G54D123*X124673Y185173D02*X113126Y173626D01*
X124500Y187141D02*X113267Y198374D01*
X119500Y195000D02*Y197500D01*
X117396Y194246D02*X114621Y197020D01*
X115820Y176320D02*X114560Y175060D01*
G54D124*X105500Y173626D02*X99374Y167500D01*
X110500Y173626D02*X105500D01*
G54D123*X114621Y197020D02*X112080D01*
G54D122*X79000Y189000D03*
X71874D01*
X55190Y182460D02*X70350D01*
X71850Y183960D01*
Y189000D01*
G54D123*X114560Y175060D02*X112400D01*
X121000Y211000D02*X123500Y208500D01*
X115500Y211000D02*X121500Y205000D01*
X117835Y208665D02*X116800Y209700D01*
Y210970D01*
X117620Y208880D02*X116800Y209700D01*
X122300D02*X120940D01*
X119500Y197500D02*X113000Y204000D01*
G54D124*X100332Y168458D02*X96404Y164530D01*
G54D123*X116800Y209700D02*X115480D01*
X113267Y198374D02*X110374D01*
G54D124*X110500D02*X105500D01*
G54D123*X125390Y189110D02*X119500Y195000D01*
G54D124*X99626Y192500D02*X95000D01*
X105500Y198374D02*X99626Y192500D01*
X100603Y193477D02*X97286Y190160D01*
Y195280D01*
Y194794D01*
X62000Y216500D02*X72500D01*
G54D122*X62550Y221500D02*X53470D01*
X62900Y216500D02*X72590D01*
X79000Y200500D03*
X71874D01*
X54980Y206980D02*X69280D01*
X71874Y204386D01*
Y200500D01*
G54D123*X105750Y211250D02*X98500D01*
X110425Y206575D02*X105750Y211250D01*
G54D124*X81950Y211500D02*X105130D01*
G54D123*X105250Y211750D02*X100340D01*
X115500Y201500D02*X105250Y211750D01*
G54D124*X81950Y216500D02*X91500D01*
G54D123*X124000Y220000D02*X117000Y227000D01*
X145047Y213330D02*Y217697D01*
G54D122*X81310Y216500D02*X91840D01*
G54D124*X178520Y185840D02*X170450Y193910D01*
X178520Y185160D02*Y185840D01*
Y182860D02*Y185870D01*
Y174680D02*Y183890D01*
X180350Y172850D02*X178520Y174680D01*
X176000Y180700D02*Y173600D01*
Y179600D02*Y184800D01*
X167300Y160750D02*Y153800D01*
G54D123*X163000Y173500D02*X169000Y179500D01*
X160000Y175500D02*X164000Y179500D01*
X156000Y173500D02*X163000D01*
X152922Y176578D02*X156000Y173500D01*
X152922Y179471D02*Y176578D01*
X157500Y175500D02*X160000D01*
X156859Y176141D02*X157500Y175500D01*
X156859Y179471D02*Y176141D01*
G54D124*X170000Y170000D02*X144000D01*
G54D122*X167300Y159650D02*Y153820D01*
G54D124*X176000Y173600D02*X177500Y172100D01*
X177300Y153800D02*Y160750D01*
X187300D02*Y165900D01*
X182300Y160750D02*Y167300D01*
X172300Y160750D02*Y167700D01*
X187300Y165900D02*X178700Y174500D01*
X182300Y167300D02*X176000Y173600D01*
X172300Y167700D02*X170000Y170000D01*
G54D122*X212500Y165580D02*Y177300D01*
X177300Y153380D02*Y160570D01*
G54D124*X162300Y160750D02*Y153800D01*
Y141850D02*Y133000D01*
X159000Y129700D01*
Y124000D01*
X152300Y141850D02*Y132800D01*
X151126Y131626D01*
Y124000D01*
X157300Y141850D02*Y132800D01*
X155900Y131400D01*
G54D123*X155100Y130900D02*X156700Y132500D01*
X155100Y130260D02*X157220Y132380D01*
X155100Y130940D02*X156480Y132320D01*
G54D122*X162300Y153570D02*Y159480D01*
G54D124*X167300Y141850D02*Y133200D01*
X170169Y130331D01*
G54D123*X155100Y116174D02*Y130300D01*
Y125700D02*Y130900D01*
Y128200D02*Y130260D01*
Y127340D02*Y130940D01*
Y118080D02*Y115600D01*
G54D124*X170169Y130331D02*Y124022D01*
X172300Y141850D02*Y135200D01*
X178043Y129457D01*
Y124022D01*
X177300Y141850D02*Y135660D01*
X183680Y129280D01*
X182300Y141850D02*Y135800D01*
X186900Y131200D01*
X187300Y141850D02*Y135570D01*
X190110Y132760D01*
X183680Y129280D02*Y118280D01*
X190110Y132760D02*Y62830D01*
X186890Y61110D02*Y131210D01*
X183680Y118280D02*X177800Y112400D01*
X45000Y200500D02*X45126D01*
X36500Y189000D02*X45126D01*
G54D122*X45000Y200500D02*X45126D01*
X36500Y189000D02*X45126D01*
G54D124*X29500Y196000D02*X36500Y189000D01*
X31750Y193750D02*X29480D01*
G54D122*X53000Y200500D02*Y205000D01*
X54980Y206980D01*
X53000Y189000D02*Y184650D01*
X55190Y182460D01*
G54D124*X33000Y172500D02*X31750Y173750D01*
Y176010D01*
X33640Y191860D02*X31750Y193750D01*
X34190Y191310D02*X31750Y193750D01*
Y195930D01*
X33595Y171905D02*X31750Y173750D01*
X29500Y216000D02*X45000Y200500D01*
X32880Y212620D02*X31750Y213750D01*
Y216130D01*
X33310Y212190D02*X31750Y213750D01*
X29360D01*
G54D122*X29500Y216000D02*X45000Y200500D01*
X29500Y196000D02*X36500Y189000D01*
X53374Y150999D02*Y146326D01*
X55280Y169790D02*X53374Y167884D01*
Y162501D01*
Y146326D02*X55820Y143880D01*
X69060D01*
X71874Y146694D01*
Y150999D01*
X79000Y151000D02*X71874D01*
X79000Y162500D02*X72000D01*
Y166960D01*
G54D124*X34500Y150999D02*X45500D01*
X43000Y162500D02*X45500D01*
X29500Y176000D02*X43000Y162500D01*
G54D122*X29500Y176000D02*X43000Y162501D01*
X45500D01*
X43975Y164195D02*X41305D01*
G54D124*X31750Y173750D02*X29460D01*
X29500Y156000D02*X34500Y150999D01*
X33045Y152455D02*X31749Y153750D01*
X29470D01*
X33090Y152410D02*X31750Y153749D01*
Y156000D01*
G54D122*X29500D02*X34500Y150999D01*
X45500D01*
X45670Y162500D02*X43975Y164195D01*
G54D124*X191500Y56500D02*X186900Y61100D01*
X190110Y61890D02*Y64610D01*
X192000Y60000D02*X190110Y61890D01*
X202500Y56500D02*X191500D01*
X207000Y52000D02*X202500Y56500D01*
X204000Y60000D02*X192000D01*
X187865Y60135D02*X186890Y61110D01*
G54D122*X227500Y128310D02*Y123780D01*
X217500Y128260D02*Y123780D01*
X207500Y129660D02*Y123780D01*
X227500Y121280D02*Y127160D01*
X226020Y112760D02*X217500Y121280D01*
Y128510D01*
X220775Y118005D02*X224270Y114510D01*
X220980Y117800D02*X224280Y114500D01*
X226160D01*
X216020Y112760D02*X207500Y121280D01*
X212330Y116450D02*X214300Y114480D01*
Y112800D01*
X211845Y116935D02*X214280Y114500D01*
X207500Y121280D02*Y128010D01*
X224270Y114510D02*Y112720D01*
X214280Y114500D02*X216090D01*
G54D124*X207000Y42500D02*Y52000D01*
X210000Y39500D02*X207000Y42500D01*
X212300Y51700D02*X204000Y60000D01*
X209245Y54755D02*X211800Y52200D01*
X210195Y53805D02*X212800Y51200D01*
G54D122*X223100Y45100D02*X218430Y40430D01*
X219180Y41180D02*X220750Y42750D01*
Y45140D01*
X219030Y41030D02*X220760Y42760D01*
X223230D01*
G54D124*X217500Y39500D02*X210000D01*
X223100Y45100D02*X217500Y39500D01*
X213710D02*X216800D01*
X219190Y41890D01*
X214350Y39500D02*X218200D01*
X219790Y41090D01*
X211800Y52200D02*Y49810D01*
X212300Y45100D02*Y51700D01*
G54D122*Y45100D02*Y50570D01*
G54D124*X212800Y51200D02*Y49670D01*
G54D122*X212300Y49650D02*Y48430D01*
X214010Y46720D01*
X212300Y50590D02*Y48420D01*
X210540Y46660D01*
X237500Y129210D02*Y123780D01*
Y121280D02*Y127960D01*
X236020Y112760D02*X227500Y121280D01*
X232195Y116585D02*X234260Y114520D01*
X236150D01*
X231580Y117200D02*X234290Y114490D01*
X244280Y114500D02*Y112650D01*
X246020Y112760D02*X237500Y121280D01*
X242615Y116165D02*X244280Y114500D01*
X241810Y116970D02*X244270Y114510D01*
X246010D01*
X234290Y114490D02*Y112630D01*
X42500Y27000D02*X53500D01*
X34000Y35500D02*X42500Y27000D01*
X34000Y56500D02*Y35500D01*
X38500Y61000D02*X34000Y56500D01*
X37000Y59500D02*X49750Y72250D01*
X86000Y27000D02*X45000D01*
X73781Y117281D02*X83500Y127000D01*
X78235Y121735D02*X81510Y125010D01*
X78440Y121940D01*
X81470Y124970D01*
X56110Y117281D02*X65480D01*
X56228D02*X73781D01*
X58728D02*X59009Y117000D01*
X65480Y117281D02*X61049D01*
X58490Y119840D01*
X61049Y117281D02*X67180D01*
X61061D01*
X58550Y114770D01*
X81510Y125010D02*Y127040D01*
X81470Y124970D02*X83600D01*
X97500Y38500D02*X86000Y27000D01*
X97500Y51000D02*Y38500D01*
X103500Y57000D02*X97500Y51000D01*
X103500Y68400D02*Y57000D01*
X119500Y63500D02*X106500D01*
X115080D02*X109960D01*
X108220Y65240D01*
X162000Y63500D02*X116500D01*
X153000Y68400D02*Y63500D01*
X141630D02*X146590D01*
X148520Y65430D01*
X157500D01*
X180500Y34000D02*Y45000D01*
X188000Y26500D02*X180500Y34000D01*
X237000Y26500D02*X188000D01*
X243500Y33000D02*X237000Y26500D01*
X243500Y52500D02*Y33000D01*
X237500Y58500D02*X243500Y52500D01*
X218000Y58500D02*X237500D01*
X207820Y68680D02*X218000Y58500D01*
X202150Y68680D02*X207820D01*
X180500Y45000D02*X162000Y63500D01*
X157500Y65430D02*X159430Y63500D01*
X109000D02*X103500D01*
X106500Y68000D02*X106900Y68400D01*
X108220Y65240D02*X103550D01*
X103500Y65190D01*
X69500Y92000D02*X49000Y71500D01*
X85000Y66000D02*X76500D01*
X87400Y68400D02*X85000Y66000D01*
X87400Y68400D02*X103500D01*
X83500Y92000D02*X69500D01*
X75710D02*X80670D01*
X82240Y93570D01*
X80670Y92000D02*X72950D01*
X80700D01*
X82240Y90460D01*
G54D126*G36*
X230300Y48700D02*Y41500D01*
X237500D01*
Y48700D01*
X230300D01*
G37*
G54D127*X223100Y45100D03*
X228500Y33900D03*
X217700D03*
X212300Y45100D03*
X201500D03*
X190700D03*
X206900Y33900D03*
X196100D03*
G54D128*X261500Y39500D03*
G54D129*X29500Y176000D03*
Y166000D03*
Y146000D03*
Y156000D03*
Y216000D03*
Y206000D03*
Y186000D03*
Y196000D03*
G54D130*X44228Y98281D03*
X32228Y117281D03*
X56228D03*
G54D128*X163100Y39500D03*
G54D126*G36*
X80700Y48700D02*Y41500D01*
X87900D01*
Y48700D01*
X80700D01*
G37*
G54D127*X73500Y45100D03*
X62700D03*
X51900D03*
X41100D03*
G54D128*X13500Y39500D03*
G54D127*X78900Y33900D03*
G54D128*X111900Y39500D03*
G54D127*X68100Y33900D03*
X57300D03*
X46500D03*
G54D131*X83500Y127000D03*
G54D132*X104705Y131358D03*
Y113642D03*
G54D131*X83500Y92000D03*
G54D129*X97000Y227000D03*
X107000D03*
X117000D03*
X137000D03*
X127000D03*
X156000Y230000D03*
Y240000D03*
X97000Y147000D03*
X107000D03*
X117000D03*
X127000D03*
X137000D03*
G54D132*X130295Y131358D03*
Y113642D03*
G54D129*X246000Y227000D03*
X236000D03*
X226000D03*
X246000Y197000D03*
X236000D03*
X226000D03*
X246000Y187000D03*
X236000D03*
X226000D03*
X246000Y207000D03*
X246020Y112760D03*
X236000Y207000D03*
Y217000D03*
X236020Y112760D03*
X226000Y207000D03*
Y217000D03*
X216020Y112760D03*
X226020D03*
X246000Y217000D03*
G54D133*X45126Y189590D02*Y188409D01*
X53000Y189590D02*Y188409D01*
X45126Y201090D02*Y199909D01*
X53000Y201090D02*Y199909D01*
X45500Y151590D02*Y150409D01*
Y163091D02*Y161910D01*
X53374Y151590D02*Y150409D01*
X64000Y151590D02*Y150409D01*
X71874Y151590D02*Y150409D01*
X53374Y163091D02*Y161910D01*
X64126Y163091D02*Y161910D01*
X72000Y163091D02*Y161910D01*
G54D134*X129772Y206826D02*X133170D01*
X129772Y204858D02*X133170D01*
X129772Y202889D02*X133170D01*
X129772Y200921D02*X133170D01*
X129772Y198952D02*X133170D01*
X129772Y196984D02*X133170D01*
G54D133*X109909Y198374D02*X111090D01*
G54D134*X129772Y195015D02*X133170D01*
X129772Y193047D02*X133170D01*
G54D133*X109909Y190500D02*X111090D01*
G54D135*X94500Y202300D02*Y188700D01*
Y174300D02*Y160700D01*
G54D133*X109909Y173626D02*X111090D01*
X109909Y181500D02*X111090D01*
X71874Y189591D02*Y188410D01*
Y201091D02*Y199910D01*
X64000Y189591D02*Y188410D01*
Y201091D02*Y199910D01*
G54D136*X59900Y241500D02*X66200D01*
X59900Y236500D02*X66200D01*
X59900Y231500D02*X66200D01*
X59900Y226500D02*X66200D01*
X59900Y221500D02*X66200D01*
X59900Y216500D02*X66200D01*
X59900Y211500D02*X66200D01*
X78800D02*X85100D01*
X78800Y216500D02*X85100D01*
X78800Y221500D02*X85100D01*
X78800Y226500D02*X85100D01*
X78800Y231500D02*X85100D01*
X78800Y236500D02*X85100D01*
X78800Y241500D02*X85100D01*
G54D133*X170169Y124612D02*Y123431D01*
X151126Y124590D02*Y123409D01*
X159000Y124590D02*Y123409D01*
X178043Y124612D02*Y123431D01*
X169926Y112991D02*Y111810D01*
X151225Y112890D02*Y111709D01*
X159099Y112890D02*Y111709D01*
G54D137*X149700Y86500D02*X156300D01*
X149700Y77500D02*X156300D01*
X149700Y68400D02*X156300D01*
G54D138*X177400Y82000D02*Y73000D01*
G54D133*X159174Y101091D02*Y99910D01*
X151300Y101091D02*Y99910D01*
X177800Y112991D02*Y111810D01*
X200849Y98510D02*X202030D01*
X200849Y106384D02*X202030D01*
G54D137*X198850Y86780D02*X205450D01*
X198850Y77780D02*X205450D01*
X198850Y68680D02*X205450D01*
G54D138*X226550Y82280D02*Y73280D01*
G54D133*X124746Y101108D02*Y99927D01*
X132620Y101108D02*Y99927D01*
G54D138*X127900Y82000D02*Y73000D01*
G54D137*X100200Y86500D02*X106800D01*
X100200Y77500D02*X106800D01*
X100200Y68400D02*X106800D01*
G54D133*X106469Y101012D02*Y99831D01*
X114343Y101012D02*Y99831D01*
X68626Y66590D02*Y65409D01*
Y78091D02*Y76910D01*
X76500Y66590D02*Y65409D01*
Y78091D02*Y76910D01*
X86410Y68000D02*X87591D01*
X86410Y75874D02*X87591D01*
G54D136*X202500Y133450D02*Y126750D01*
X207500Y133450D02*Y126750D01*
X212500Y133450D02*Y126750D01*
X217500Y133450D02*Y126750D01*
X222500Y133450D02*Y126750D01*
X227500Y133450D02*Y126750D01*
X232500Y133450D02*Y126750D01*
X237500Y133450D02*Y126750D01*
X242500Y133450D02*Y126750D01*
X247500Y133450D02*Y126750D01*
G54D134*X129772Y191078D02*X133170D01*
X129772Y189110D02*X133170D01*
X129772Y187141D02*X133170D01*
X129772Y185173D02*X133170D01*
X137174Y181170D02*Y177772D01*
X139142Y181170D02*Y177772D01*
X141111Y181170D02*Y177772D01*
X143079Y181170D02*Y177772D01*
X145048Y181170D02*Y177772D01*
X147016Y181170D02*Y177772D01*
X148985Y181170D02*Y177772D01*
X150953Y181170D02*Y177772D01*
X152922Y181170D02*Y177772D01*
X154890Y181170D02*Y177772D01*
X156859Y181170D02*Y177772D01*
X158827Y181170D02*Y177772D01*
G54D136*X152300Y145000D02*Y138700D01*
X157300Y145000D02*Y138700D01*
X162300Y145000D02*Y138700D01*
X167300Y145000D02*Y138700D01*
X172300Y145000D02*Y138700D01*
X177300Y145000D02*Y138700D01*
X182300Y145000D02*Y138700D01*
X187300Y145000D02*Y138700D01*
Y163900D02*Y157600D01*
X182300Y163900D02*Y157600D01*
X177300Y163900D02*Y157600D01*
X172300Y163900D02*Y157600D01*
X167300Y163900D02*Y157600D01*
X162300Y163900D02*Y157600D01*
X157300Y163900D02*Y157600D01*
X152300Y163900D02*Y157600D01*
G54D134*X162830Y185174D02*X166228D01*
X162830Y187142D02*X166228D01*
X162830Y189111D02*X166228D01*
X162830Y191079D02*X166228D01*
X162830Y193048D02*X166228D01*
X162830Y195016D02*X166228D01*
X162830Y196985D02*X166228D01*
X162830Y198953D02*X166228D01*
X162830Y200922D02*X166228D01*
X162830Y202890D02*X166228D01*
X162830Y204859D02*X166228D01*
G54D133*X169253Y238795D02*X170434D01*
X169253Y230921D02*X170434D01*
G54D134*X162830Y206827D02*X166228D01*
G54D139*X189000Y208575D02*Y205032D01*
X186441Y208575D02*Y205032D01*
X183882Y208575D02*Y205032D01*
G54D134*X158826Y214228D02*Y210830D01*
X156858Y214228D02*Y210830D01*
X154889Y214228D02*Y210830D01*
X152921Y214228D02*Y210830D01*
X150952Y214228D02*Y210830D01*
X148984Y214228D02*Y210830D01*
X147015Y214228D02*Y210830D01*
X145047Y214228D02*Y210830D01*
X143078Y214228D02*Y210830D01*
X141110Y214228D02*Y210830D01*
X139141Y214228D02*Y210830D01*
X137173Y214228D02*Y210830D01*
G54D136*X247500Y169250D02*Y162550D01*
X242500Y169250D02*Y162550D01*
X237500Y169250D02*Y162550D01*
X232500Y169250D02*Y162550D01*
X227500Y169250D02*Y162550D01*
X222500Y169250D02*Y162550D01*
X217500Y169250D02*Y162550D01*
X212500Y169250D02*Y162550D01*
X207500Y169250D02*Y162550D01*
X202500Y169250D02*Y162550D01*
G54D139*X189000Y188575D02*Y185032D01*
X186441Y188575D02*Y185032D01*
X183882Y188575D02*Y185032D01*
Y178536D02*Y174993D01*
X186441Y178536D02*Y174993D01*
X189000Y178536D02*Y174993D01*
X183882Y198536D02*Y194993D01*
X186441Y198536D02*Y194993D01*
X189000Y198536D02*Y194993D01*
G54D133*X205000Y197590D02*Y196409D01*
X204921Y227622D02*Y226441D01*
X205031Y217669D02*Y216488D01*
X205126Y207590D02*Y206409D01*
X205031Y187669D02*Y186488D01*
X212874Y197590D02*Y196409D01*
X212795Y227622D02*Y226441D01*
X212905Y217669D02*Y216488D01*
X213000Y207590D02*Y206409D01*
X212905Y187669D02*Y186488D01*
G54D139*X189014Y233776D02*Y230233D01*
X186455Y233776D02*Y230233D01*
X183896Y233776D02*Y230233D01*
Y223737D02*Y220194D01*
X186455Y223737D02*Y220194D01*
X189014Y223737D02*Y220194D01*
G54D140*X25000Y253000D03*
Y76500D03*
G54D141*X115480Y90990D03*
X137000Y194000D03*
X145380Y227430D03*
X115500Y211000D03*
X121000D03*
X142500Y199000D03*
X126500Y211000D03*
X72500Y226500D03*
Y216500D03*
X91500D03*
X79000Y200500D03*
X53500Y221500D03*
Y231500D03*
Y241500D03*
X79000Y189000D03*
Y162500D03*
Y151000D03*
G54D140*X250000Y76500D03*
G54D141*X177300Y153800D03*
X147500Y166000D03*
X167300Y153800D03*
X162300D03*
X169000Y179500D03*
X164000D03*
X171000Y219000D03*
X222500Y176000D03*
X232500D03*
X242500D03*
G54D140*X250000Y253000D03*
G54D142*G54D143*G54D142*G54D143*G54D142*G54D144*G54D145*G54D146*G54D147*G54D145*G54D144*G54D145*G54D144*G54D145*G54D144*G54D125*G54D148*G54D125*G54D146*G54D148*G54D146*M02*
